<svg viewBox="0 0 92 92" xmlns="http://www.w3.org/2000/svg">
<g clip-path="url(#clip0_1045_3786)">
<path d="M82.3564 75.4502H80.9253C76.4377 69.7258 73.9537 62.6418 73.9537 55.3636V39.3147C73.9537 26.6596 65.3466 15.9876 53.6933 12.7982C54.4497 11.5307 54.9097 10.0484 54.9097 8.45378C54.9097 3.80267 51.1275 0 46.4559 0C41.7844 0 38.0022 3.80267 38.0022 8.45378C38.0022 10.0484 38.4519 11.5307 39.2186 12.7982C27.5551 15.9876 18.9582 26.6493 18.9582 39.3147V55.3636C18.9582 62.6622 16.4742 69.7258 11.9866 75.4502H10.5759C9.16527 75.4502 8.02039 76.5951 8.02039 78.0058C8.02039 79.4164 9.16527 80.5613 10.5759 80.5613H32.7071C33.9235 87.0627 39.6275 92.0102 46.4559 92.0102C53.2844 92.0102 59.0088 87.0627 60.2048 80.5613H82.3564C83.7671 80.5613 84.9119 79.4164 84.9119 78.0058C84.9528 76.5951 83.7875 75.4502 82.3973 75.4502H82.3564ZM46.4457 5.11111C48.2959 5.11111 49.7986 6.61378 49.7986 8.464C49.7986 10.3142 48.2959 11.8169 46.4457 11.8169C44.5955 11.8169 43.0928 10.3142 43.0928 8.464C43.0928 6.61378 44.5955 5.11111 46.4457 5.11111ZM46.4457 86.8889C42.4284 86.8889 39.0346 84.2107 37.9306 80.5511H54.9506C53.8466 84.2107 50.463 86.8889 46.4355 86.8889H46.4457ZM18.2528 75.4502C22.0248 69.4702 24.0693 62.4987 24.0693 55.3636V39.3147C24.0693 26.9662 34.1177 16.9076 46.4764 16.9076C58.835 16.9076 68.8835 26.956 68.8835 39.3147V55.3636C68.8835 62.4987 70.9075 69.4702 74.6795 75.4502H18.2528Z"/>
</g>
<defs>
<clipPath id="clip0_1045_3786">
<rect width="92" height="92"/>
</clipPath>
</defs>
</svg>
