<svg viewBox="0 0 92 92" xmlns="http://www.w3.org/2000/svg">
<g clip-path="url(#clip0_2427_3283)">
<path d="M74.6 5C81.44 5 87 10.56 87 17.4V74.59C87 81.43 81.44 86.99 74.6 86.99H17.4C10.56 86.99 5 81.43 5 74.59V17.4C5 10.56 10.56 5 17.4 5H74.59M74.6 0H17.4C7.79 0 0 7.79 0 17.4V74.59C0 84.2 7.79 91.99 17.4 91.99H74.59C84.2 91.99 91.99 84.2 91.99 74.59V17.4C91.99 7.79 84.2 0 74.59 0H74.6Z"/>
<path d="M45.5 64C55.7173 64 64 55.9411 64 46C64 36.0589 55.7173 28 45.5 28C35.2827 28 27 36.0589 27 46C27 55.9411 35.2827 64 45.5 64Z"/>
<path d="M87 28H5V33H87V28Z"/>
<path d="M87 60H5V65H87V60Z"/>
</g>
<defs>
<clipPath id="clip0_2427_3283">
<rect width="92" height="92"/>
</clipPath>
</defs>
</svg>
