<svg viewBox="0 0 92 92" xmlns="http://www.w3.org/2000/svg">
<g clip-path="url(#clip0_2745_3013)">
<path fill-rule="evenodd" clip-rule="evenodd" d="M32.93 0H37.68C43.53 0 48.25 0 51.96 0.5C55.81 1.02 59.05 2.13 61.63 4.7C64.21 7.28 65.31 10.52 65.83 14.37C66.33 18.08 66.33 22.8 66.33 28.65V64.19H69.84C74.99 64.19 79.16 68.36 79.16 73.51V73.82C79.16 75.59 80.6 77.03 82.37 77.03C84.14 77.03 85.58 75.59 85.58 73.82V56.88L79.33 54.8C75.4 53.49 72.75 49.81 72.75 45.67V35.32C72.75 30 77.06 25.69 82.38 25.69H85.55C85.34 23.25 84.21 20.98 82.38 19.34C82.19 19.17 81.98 19 81.36 18.51L76.08 14.29C74.7 13.18 74.47 11.16 75.58 9.78C76.69 8.4 78.71 8.17 80.09 9.28L85.44 13.56C85.96 13.98 86.32 14.27 86.66 14.57C89.82 17.4 91.73 21.38 91.97 25.62C92 26.07 92 26.53 92 27.2V54.5C92 54.5 92 54.6 92 54.65V73.83C92 79.15 87.69 83.46 82.37 83.46C77.05 83.46 72.74 79.15 72.74 73.83V73.52C72.74 71.92 71.44 70.62 69.84 70.62H66.33V85.6H67.4C69.17 85.6 70.61 87.04 70.61 88.81C70.61 90.58 69.17 92.02 67.4 92.02H3.21C1.44 92.02 0 90.58 0 88.81C0 87.04 1.44 85.6 3.21 85.6H4.28V28.65C4.28 22.8 4.28 18.08 4.78 14.37C5.3 10.52 6.41 7.28 8.98 4.7C11.55 2.12 14.8 1.02 18.65 0.5C22.36 0 27.08 0 32.93 0ZM10.7 85.58H59.91V28.88C59.91 22.74 59.91 18.45 59.47 15.22C59.05 12.08 58.28 10.42 57.09 9.23C55.91 8.05 54.24 7.27 51.1 6.85C47.87 6.42 43.58 6.41 37.44 6.41H33.16C27.02 6.41 22.73 6.41 19.5 6.85C16.36 7.27 14.7 8.04 13.51 9.23C12.33 10.41 11.55 12.08 11.13 15.22C10.7 18.45 10.69 22.74 10.69 28.88V85.58H10.7ZM85.58 50.11V32.1H82.37C80.6 32.1 79.16 33.54 79.16 35.31V45.66C79.16 47.04 80.04 48.27 81.35 48.7L85.57 50.11H85.58ZM41.92 28.4L26.77 48.35H33.12L27.9 63.6L43.84 43.76H37.25L41.92 28.4Z"/>
</g>
<defs>
<clipPath id="clip0_2745_3013">
<rect width="92" height="92"/>
</clipPath>
</defs>
</svg>
