<svg viewBox="0 0 92 92" xmlns="http://www.w3.org/2000/svg">
<g clip-path="url(#clip0_1023_1972)">
<path d="M74.723 92.0002H25.5915C16.0892 92.0002 8.42249 84.2255 8.42249 74.5072V24.6199C8.42249 15.0096 16.0892 7.12695 25.5915 7.12695H74.723C84.2253 7.12695 91.892 14.9016 91.892 24.6199V74.5072C91.892 84.1176 84.2253 92.0002 74.723 92.0002ZM25.5915 12.2021C18.7887 12.2021 13.2816 17.8171 13.2816 24.6199V74.5072C13.2816 81.418 18.7887 86.9251 25.5915 86.9251H74.723C81.5258 86.9251 87.0328 81.3101 87.0328 74.5072V24.6199C87.0328 17.7091 81.5258 12.2021 74.723 12.2021H25.5915Z"/>
<path d="M50.2112 76.0187C35.8497 76.0187 24.1877 64.1408 24.1877 49.5633C24.1877 34.9858 35.8497 23.1079 50.2112 23.1079C64.5727 23.1079 76.2347 34.9858 76.2347 49.5633C76.2347 64.1408 64.5727 76.0187 50.2112 76.0187ZM50.2112 26.2394C37.4694 26.2394 27.1032 36.7135 27.1032 49.6713C27.1032 62.629 37.4694 73.1032 50.2112 73.1032C62.953 73.1032 73.3192 62.629 73.3192 49.6713C73.3192 36.7135 62.953 26.2394 50.2112 26.2394Z"/>
<path d="M40.3849 56.1501C36.8216 56.1501 34.014 53.2346 34.014 49.6713C34.014 46.1079 36.9295 43.1924 40.3849 43.1924C43.8403 43.1924 46.7558 46.1079 46.7558 49.6713C46.7558 53.2346 43.8403 56.1501 40.3849 56.1501ZM40.3849 46.1079C38.4413 46.1079 36.9295 47.6196 36.9295 49.5633C36.9295 51.5069 38.4413 53.0187 40.3849 53.0187C42.3286 53.0187 43.8403 51.5069 43.8403 49.5633C43.8403 47.6196 42.3286 46.1079 40.3849 46.1079Z"/>
<path d="M59.9296 56.1501C56.3662 56.1501 53.5587 53.2346 53.5587 49.6713C53.5587 46.1079 56.4742 43.1924 59.9296 43.1924C63.385 43.1924 66.3005 46.1079 66.3005 49.6713C66.3005 53.2346 63.385 56.1501 59.9296 56.1501ZM59.9296 46.1079C57.9859 46.1079 56.4742 47.6196 56.4742 49.5633C56.4742 51.5069 57.9859 53.0187 59.9296 53.0187C61.8733 53.0187 63.385 51.5069 63.385 49.5633C63.385 47.6196 61.8733 46.1079 59.9296 46.1079Z"/>
<path d="M50.2113 34.6619C49.3475 34.6619 48.6996 34.014 48.6996 33.1501V26.1314C48.6996 25.2675 49.3475 24.6196 50.2113 24.6196C51.0752 24.6196 51.7231 25.2675 51.7231 26.1314V33.1501C51.7231 34.014 51.0752 34.6619 50.2113 34.6619Z"/>
<path d="M50.2113 74.5071C49.3475 74.5071 48.6996 73.8592 48.6996 72.9954V65.9766C48.6996 65.1127 49.3475 64.4648 50.2113 64.4648C51.0752 64.4648 51.7231 65.1127 51.7231 65.9766V72.9954C51.7231 73.8592 51.0752 74.5071 50.2113 74.5071Z"/>
<path d="M75.6948 9.50235C75.6948 9.39437 75.4789 9.28638 75.3709 9.1784L75.6948 9.50235ZM76.0188 9.93427C76.0188 9.82629 75.8028 9.71831 75.6948 9.50235L76.0188 9.93427ZM75.3709 9.1784C73.1033 6.69484 69.9718 5.1831 66.4085 5.1831H17.277C10.4742 5.1831 4.96714 10.7981 4.96714 17.6009V67.4883C4.96714 72.8873 8.31455 77.4225 12.9577 79.1502C17.6009 80.8779 17.169 84.8732 17.169 84.8732C7.66667 84.8732 0 77.0986 0 67.3803V17.493C0 7.88263 7.66667 0 17.169 0H66.3005C72.2394 0 77.4225 3.02347 80.554 7.66667L81.2019 8.74648L75.3709 8.96244V9.1784Z"/>
</g>
<defs>
<clipPath id="clip0_1023_1972">
<rect width="92" height="92"/>
</clipPath>
</defs>
</svg>
