<svg viewBox="0 0 92 92" xmlns="http://www.w3.org/2000/svg">
<g clip-path="url(#clip0_2652_3778)">
<path d="M74.59 5C81.43 5 87 10.57 87 17.41V74.59C87 81.43 81.43 87 74.59 87H17.41C10.57 87 5 81.43 5 74.59V17.41C5 10.57 10.57 5 17.41 5H74.59ZM74.59 0H17.41C7.79 0 0 7.79 0 17.41V74.59C0 84.2 7.79 92 17.41 92H74.59C84.2 92 92 84.21 92 74.59V17.41C92 7.8 84.21 0 74.59 0Z"/>
<path d="M54.4199 46.2398C56.7616 46.2398 58.6599 44.3415 58.6599 41.9998C58.6599 39.6581 56.7616 37.7598 54.4199 37.7598C52.0782 37.7598 50.1799 39.6581 50.1799 41.9998C50.1799 44.3415 52.0782 46.2398 54.4199 46.2398Z"/>
<path d="M52.91 48.5797L48.49 52.0197L42.54 46.8997L40.49 49.2897L48.39 56.0697L54.32 51.4897L58.66 60.3897L52.59 64.8797L52 76.6997L56.19 76.9097L56.68 67.0697L61.64 63.3997L61.95 63.1797L63.22 70.7897L75.79 71.7397L76.1 67.5597L66.82 66.8597L65.79 60.4797L61.56 48.7997H67.69L71.37 57.1297L74.25 55.8597L69.74 45.6597H60.42L52.91 48.5797Z"/>
<path d="M23.4501 43.7902C20.8801 43.7902 18.3301 43.4502 15.8301 42.7702C15.3001 42.6302 14.9801 42.0802 15.1301 41.5402C15.2701 41.0102 15.8201 40.6902 16.3601 40.8402C19.9701 41.8202 23.6701 42.0502 27.3601 41.5102C31.0501 40.9802 34.5401 39.7102 37.7201 37.7602C40.9001 35.8002 43.5901 33.2602 45.7301 30.2002C47.8701 27.1402 49.3401 23.7402 50.0901 20.0802C50.2001 19.5402 50.7201 19.1902 51.2701 19.3002C51.8101 19.4102 52.1601 19.9402 52.0501 20.4802C51.2501 24.4102 49.6701 28.0602 47.3701 31.3502C45.0701 34.6402 42.1801 37.3702 38.7701 39.4702C35.3501 41.5702 31.6101 42.9302 27.6401 43.5002C26.2401 43.7002 24.8501 43.8002 23.4601 43.8002L23.4501 43.7902ZM23.4601 34.4002C21.7201 34.4002 19.9901 34.1702 18.2901 33.7102C17.7601 33.5702 17.4401 33.0202 17.5901 32.4802C17.7401 31.9402 18.2801 31.6302 18.8201 31.7802C21.1801 32.4202 23.6001 32.5702 26.0201 32.2202C28.4401 31.8702 30.7201 31.0402 32.8001 29.7602C34.8801 28.4802 36.6501 26.8102 38.0501 24.8102C39.4501 22.8102 40.4101 20.5802 40.9001 18.1902C41.0101 17.6502 41.5401 17.3002 42.0801 17.4102C42.6201 17.5202 42.9701 18.0502 42.8601 18.5902C42.3201 21.2502 41.2501 23.7302 39.6901 25.9602C38.1301 28.1902 36.1701 30.0402 33.8501 31.4602C31.5401 32.8802 29.0001 33.8002 26.3101 34.1902C25.3601 34.3302 24.4101 34.4002 23.4701 34.4002H23.4601ZM22.2301 25.3502C21.1101 25.3502 20.0001 25.2002 18.9001 24.9002C18.3701 24.7602 18.0501 24.2102 18.2001 23.6702C18.3401 23.1402 18.8901 22.8202 19.4301 22.9702C20.8501 23.3602 22.3201 23.4502 23.7701 23.2302C25.2301 23.0202 26.6101 22.5202 27.8601 21.7502C29.1201 20.9802 30.1901 19.9702 31.0301 18.7602C31.8801 17.5502 32.4501 16.2102 32.7501 14.7602C32.8601 14.2202 33.3801 13.8702 33.9301 13.9802C34.4701 14.0902 34.8201 14.6202 34.7101 15.1602C34.3601 16.8802 33.6701 18.4702 32.6701 19.9102C31.6701 21.3402 30.4001 22.5402 28.9101 23.4502C27.4201 24.3702 25.7901 24.9602 24.0501 25.2102C23.4401 25.3002 22.8301 25.3402 22.2201 25.3402L22.2301 25.3502ZM22.2501 15.9602C21.1201 15.9602 20.0201 15.3902 19.3901 14.3602C18.9201 13.6002 18.7801 12.7002 18.9901 11.8302C19.2001 10.9602 19.7401 10.2302 20.5001 9.76018C21.2601 9.29018 22.1701 9.15018 23.0301 9.36018C23.9001 9.57018 24.6301 10.1102 25.1001 10.8702C25.5701 11.6302 25.7101 12.5302 25.5001 13.4002C25.2901 14.2702 24.7501 15.0002 23.9901 15.4702C23.4501 15.8002 22.8401 15.9602 22.2501 15.9602ZM22.2401 11.2702C22.0001 11.2702 21.7601 11.3302 21.5401 11.4702C21.2301 11.6602 21.0201 11.9502 20.9301 12.3002C20.8501 12.6502 20.9001 13.0102 21.0901 13.3202C21.4801 13.9502 22.3101 14.1502 22.9401 13.7702C23.5701 13.3802 23.7701 12.5502 23.3901 11.9202C23.1401 11.5002 22.6901 11.2702 22.2401 11.2702Z"/>
</g>
<defs>
<clipPath id="clip0_2652_3778">
<rect width="92" height="92"/>
</clipPath>
</defs>
</svg>
