<svg viewBox="0 0 92 92" xmlns="http://www.w3.org/2000/svg">
<g clip-path="url(#clip0_2687_2741)">
<path d="M30.5747 44.7319C33.7931 47.9603 37.7886 50.1239 42.143 51.0552L41.2973 54.0649C36.4419 52.9813 31.975 50.5483 28.3667 46.9399L30.5747 44.7319Z"/>
<path d="M65.8208 46.9302C62.8019 49.949 59.1722 52.1595 55.2094 53.4263L52.8696 50.8452C56.897 49.823 60.5973 47.7376 63.6128 44.7222L65.8208 46.9302Z"/>
<path d="M60.3217 41.4204C56.7951 44.9573 52.0924 46.8999 47.104 46.8999H47.0835C42.0952 46.8999 37.3933 44.9469 33.8667 41.4204L36.0747 39.2124C39.0187 42.146 42.9339 43.772 47.0942 43.772C51.2545 43.7719 55.1698 42.1563 58.1137 39.2124L60.3217 41.4204Z"/>
<path d="M54.812 35.9204H54.8012C50.5488 40.1729 43.6289 40.1729 39.3764 35.9204L41.5844 33.7134C44.6307 36.7489 49.5681 36.7492 52.604 33.7134L54.812 35.9204Z"/>
<path d="M61.1699 13.0742C63.0272 13.0743 64.5332 14.5781 64.5332 16.4326C64.533 18.287 63.0271 19.79 61.1699 19.79H59.2988C58.9281 26.2347 53.5801 31.3514 47.043 31.3516C40.5058 31.3516 35.1579 26.2348 34.7871 19.79H32.1182C30.2609 19.79 28.7551 18.287 28.7549 16.4326C28.7549 14.5781 30.2608 13.0742 32.1182 13.0742H61.1699Z"/>
<path d="M47.7889 55.1693C49.5573 55.1693 50.9987 53.6053 50.9987 51.6835C50.9987 49.7618 49.5573 48.1978 47.7889 48.1978C46.0205 48.1978 44.5791 49.7618 44.5791 51.6835C44.5791 53.6053 46.0205 55.1693 47.7889 55.1693ZM54.1062 65.9844L52.5525 65.1258L51.9084 62.9893C50.9271 59.7489 48.1876 57.4898 45.0698 57.4795C42.6676 57.4795 41.3285 58.2155 38.8342 59.3093C37.3929 59.9431 36.2071 61.1391 35.512 62.6622L35.0622 63.6538C34.5409 64.7986 34.96 66.1889 36.0129 66.7613C37.0556 67.3338 38.3231 66.8738 38.8547 65.7289L39.3045 64.7373C39.5396 64.2262 39.928 63.8275 40.4085 63.6231L42.1973 62.836L41.1853 67.2418C40.8378 68.7546 41.216 70.3493 42.1769 71.5044L46.184 76.2475C46.6645 76.82 47.0018 77.5049 47.1756 78.2613L48.4022 83.5769C48.6884 84.8138 49.8538 85.5804 50.9987 85.2635C52.1436 84.9466 52.8489 83.6893 52.5525 82.4524L51.0702 75.992C50.8965 75.2458 50.5591 74.5506 50.0787 73.9782L47.0324 70.3697L48.1876 65.3813L48.5556 66.5773C48.9133 67.7426 49.6698 68.7138 50.6716 69.2658L52.2253 70.1244C53.268 70.6969 54.5356 70.2369 55.0671 69.092C55.5782 67.9573 55.1591 66.5466 54.1062 65.9742V65.9844ZM38.8036 76.1964C38.5889 76.7791 38.272 77.3106 37.8529 77.7604L34.5102 81.3995C33.672 82.3093 33.672 83.7813 34.5102 84.6809C35.3485 85.5906 36.6978 85.5906 37.536 84.6809L41.5125 80.3671C41.9213 79.9275 42.2382 79.396 42.4631 78.8031L43.3627 76.3498C39.6622 71.9746 40.7765 73.3138 40.1938 72.4551L38.8138 76.1862L38.8036 76.1964Z"/>
<path d="M74.1111 92H17.8889C8.07556 92 0 83.9244 0 74.1111V17.8889C0 8.07556 8.07556 0 17.8889 0H74.1111C83.9244 0 92 8.07556 92 17.8889V74.1111C92 83.9244 83.9244 92 74.1111 92ZM17.8889 5.11111C10.8356 5.11111 5.11111 10.8356 5.11111 17.8889V74.1111C5.11111 81.1645 10.8356 86.8889 17.8889 86.8889H74.1111C81.1645 86.8889 86.8889 81.1645 86.8889 74.1111V17.8889C86.8889 10.8356 81.1645 5.11111 74.1111 5.11111H17.8889Z"/>
</g>
<defs>
<clipPath id="clip0_2687_2741">
<rect width="92" height="92"/>
</clipPath>
</defs>
</svg>
