<svg viewBox="0 0 92 92" xmlns="http://www.w3.org/2000/svg">
<path d="M22.784 0H68.968C70.2867 0 71.4827 0.541778 72.3516 1.40044C73.2204 2.26933 73.7622 3.46533 73.7622 4.784V81.5938C73.7622 82.9124 73.2204 84.1084 72.3516 84.9773C71.4827 85.8462 70.2867 86.3778 68.968 86.3778H65.1653V88.4938C65.1653 90.4156 63.5911 92 61.6693 92C59.7476 92 58.1733 90.4258 58.1733 88.4938V86.3778H33.7218V88.4938C33.7218 90.4156 32.1476 92 30.2258 92C28.304 92 26.7298 90.4258 26.7298 88.4938V86.3778H22.784C21.4653 86.3778 20.2693 85.836 19.4004 84.9773C18.5418 84.1084 18 82.9124 18 81.5938V4.784C18 3.46533 18.5418 2.26933 19.4004 1.40044C20.2693 0.541778 21.4653 0 22.784 0ZM47.0107 48.76C51.3756 44.62 51.7844 47.4107 47.0107 51.9493V56.948L51.3858 54.4231C52.9089 48.0547 55.536 47.0631 54.1458 52.8284C58.5924 50.2627 59.6964 52.3071 55.2804 54.8524C61.0458 56.5596 58.848 58.3178 52.5204 56.4471L48.1964 58.9413L52.5613 61.456C58.848 59.5956 61.0151 61.364 55.3213 63.0507C59.768 65.6164 58.5516 67.5996 54.1356 65.044C55.5462 70.9013 52.9191 69.8484 51.3756 63.4493L47.0107 60.9347V65.9538C51.7844 70.4924 51.3756 73.2831 47.0107 69.1431C47.0107 74.2747 44.6902 74.3564 44.6902 69.1738C40.3969 73.2627 39.9369 70.5027 44.6902 65.9844V60.9653L40.3867 63.4493C38.8431 69.8484 36.216 70.9013 37.6267 65.044C33.1902 67.6098 31.9636 65.6471 36.4409 63.0507C30.7573 61.364 32.9142 59.5956 39.2009 61.456L43.5658 58.9413L39.2418 56.4471C32.9244 58.3178 30.7164 56.5596 36.4818 54.8524C32.0351 52.2867 33.1391 50.2422 37.6164 52.8284C36.2364 47.0529 38.8431 48.0547 40.3764 54.4231L44.7004 56.9173V51.9187C39.9471 47.4004 40.3969 44.6507 44.7004 48.7293C44.7004 43.5978 47.0107 43.6591 47.0107 48.76ZM25.9529 31.2084C25.9529 30.1556 26.8013 29.3173 27.844 29.3173C28.8867 29.3173 29.7351 30.1658 29.7351 31.2084V43.3218C29.7351 44.3747 28.8867 45.2129 27.844 45.2129C26.8013 45.2129 25.9529 44.3644 25.9529 43.3218V31.2084ZM25.9529 8.096C25.9529 7.04311 26.8013 6.20489 27.844 6.20489C28.8867 6.20489 29.7351 7.05333 29.7351 8.096V16.1102C29.7351 17.1631 28.8867 18.0013 27.844 18.0013C26.8013 18.0013 25.9529 17.1529 25.9529 16.1102V8.096ZM21.7924 22.2231H69.9698V4.784C69.9698 4.51822 69.8573 4.26267 69.6733 4.07867C69.4893 3.89467 69.244 3.78222 68.968 3.78222H22.784C22.5182 3.78222 22.2627 3.89467 22.0787 4.07867C21.8947 4.26267 21.7822 4.508 21.7822 4.784V22.2231H21.7924ZM69.9698 26.0156H21.7924V81.5835C21.7924 81.8493 21.9049 82.1049 22.0889 82.2889C22.2729 82.4729 22.5182 82.5853 22.7942 82.5853H68.9782C69.244 82.5853 69.4996 82.4729 69.6836 82.2889C69.8676 82.1049 69.98 81.8596 69.98 81.5835V26.0156H69.9698Z"/>
</svg>
