<svg viewBox="0 0 92 92" xmlns="http://www.w3.org/2000/svg">
<g clip-path="url(#clip0_1045_3697)">
<path d="M74.11 92H17.89C8.08 92 0 83.92 0 74.11V17.89C0 8.08 8.08 0 17.89 0H74.11C83.92 0 92 8.08 92 17.89V74.11C92 83.92 83.92 92 74.11 92ZM17.89 5.11C10.84 5.11 5.11 10.83 5.11 17.89V74.11C5.11 81.16 10.83 86.89 17.89 86.89H74.11C81.16 86.89 86.89 81.17 86.89 74.11V17.89C86.89 10.84 81.17 5.11 74.11 5.11H17.89Z"/>
<path d="M29.84 36.1299V50.4899C29.84 55.9199 32.25 58.2299 35.49 58.2299C39.09 58.2299 41.39 55.8499 41.39 50.4899V36.1299H44.56V50.2799C44.56 57.7299 40.64 60.7899 35.38 60.7899C30.41 60.7899 26.67 57.9499 26.67 50.4199V36.1299H29.84Z"/>
<path d="M55.33 60.3901L47.41 36.1301H50.79L54.57 48.0801C55.61 51.3601 56.51 54.3101 57.16 57.1501H57.23C57.91 54.3401 58.92 51.2801 60 48.1101L64.1 36.1201H67.45L58.78 60.3801H55.32L55.33 60.3901Z"/>
</g>
<defs>
<clipPath id="clip0_1045_3697">
<rect width="92" height="92"/>
</clipPath>
</defs>
</svg>
