<svg viewBox="0 0 92 92" xmlns="http://www.w3.org/2000/svg">
<g clip-path="url(#clip0_1451_3541)">
<path d="M74.11 92H17.89C8.08 92 0 83.92 0 74.11V17.89C0 8.08 8.08 0 17.89 0H74.11C83.92 0 92 8.08 92 17.89V74.11C92 83.92 83.92 92 74.11 92ZM17.89 5.11C10.84 5.11 5.11 10.83 5.11 17.89V74.11C5.11 81.16 10.83 86.89 17.89 86.89H74.11C81.16 86.89 86.89 81.17 86.89 74.11V17.89C86.89 10.84 81.17 5.11 74.11 5.11H17.89Z"/>
<path d="M80.7602 80.7602H11.2402V11.2402H80.7502V80.7502L80.7602 80.7602ZM14.3102 77.6902H77.6902V14.3102H14.3102V77.6902Z"/>
<path d="M46 56.5405C46.61 56.5405 47.0205 56.9501 47.0205 57.5601V61.3403C47.0204 61.9502 46.6099 62.3599 46 62.3599C45.3903 62.3597 44.9806 61.95 44.9805 61.3403V57.5601C44.9805 56.9502 45.3902 56.5407 46 56.5405Z"/>
<path d="M53.46 53.4595C53.8699 53.0495 54.4806 53.0495 54.8906 53.4595L57.5508 56.1196C57.9607 56.5296 57.9608 57.1403 57.5508 57.5503C57.1408 57.9603 57.0401 57.8599 56.8301 57.8599H56.8408C56.5309 57.8599 56.3301 57.8601 56.1201 57.5503L53.46 54.8901C53.05 54.4801 53.05 53.8694 53.46 53.4595Z"/>
<path d="M35.1602 57.8599H35.1504L35.1523 57.8589C35.1549 57.8589 35.1575 57.8599 35.1602 57.8599Z"/>
<path d="M37.1006 53.4595C37.5105 53.0498 38.1204 53.0498 38.5303 53.4595C38.9403 53.8695 38.9403 54.4801 38.5303 54.8901L35.8701 57.5503C35.6707 57.7494 35.3622 57.8582 35.1523 57.8589C34.847 57.8589 34.6485 57.8573 34.4404 57.5503C34.0304 57.1403 34.0304 56.5296 34.4404 56.1196L37.1006 53.4595Z"/>
<path fill-rule="evenodd" clip-rule="evenodd" d="M44.9805 41.0894C43.6505 41.0894 42.5304 41.6 41.6104 42.52C40.6904 43.44 40.1807 44.6702 40.1807 45.8901C40.1808 48.55 42.3306 50.6899 44.9805 50.6899C47.3561 50.6899 49.316 48.9746 49.708 46.7202H48.4502C48.0404 46.7202 47.7302 46.5203 47.5303 46.2104C47.3303 45.9004 47.3303 45.4899 47.5303 45.1899L49.7803 41.6099C49.9803 41.2999 50.2906 41.1001 50.6006 41.1001C50.9104 41.1002 51.3197 41.3001 51.4199 41.6099L53.6699 45.1899C53.8699 45.4999 53.8699 45.9104 53.6699 46.2104C53.4699 46.5102 53.1598 46.7202 52.75 46.7202H51.7686C51.358 50.1091 48.4694 52.7396 44.9707 52.7397L44.8701 52.8394L44.8809 52.8501C41.1009 52.8501 38.0303 49.7795 38.0303 45.9995C38.0303 44.1596 38.7504 42.4193 40.0703 41.0894C41.3903 39.7595 43.1406 39.0503 44.9805 39.0503V41.0894ZM50.29 44.6704H51.1104L50.7002 44.0601L50.29 44.6704Z"/>
<path d="M34.4502 44.98C35.06 44.98 35.4705 45.3898 35.4707 45.9995C35.4707 46.6095 35.0602 47.02 34.4502 47.02H30.6699C30.0602 47.0198 29.6504 46.6094 29.6504 45.9995C29.6506 45.3899 30.0603 44.9802 30.6699 44.98H34.4502Z"/>
<path d="M61.3301 44.98C61.9399 44.98 62.3504 45.3898 62.3506 45.9995C62.3506 46.6095 61.9401 47.02 61.3301 47.02H57.5508C56.9408 47.02 56.5303 46.6095 56.5303 45.9995C56.5305 45.3898 56.9409 44.98 57.5508 44.98H61.3301Z"/>
<path d="M34.4404 34.4399C34.8504 34.03 35.4601 34.03 35.8701 34.4399L38.5303 37.1001C38.9402 37.5101 38.9402 38.1198 38.5303 38.5298C38.1204 38.9396 38.0204 38.8394 37.8105 38.8394H37.8203C37.5104 38.8394 37.3106 38.8397 37.1006 38.5298L34.4404 35.8696C34.0305 35.4596 34.0305 34.8499 34.4404 34.4399Z"/>
<path d="M54.1807 38.8394H54.1699L54.1719 38.8384C54.1747 38.8384 54.1778 38.8394 54.1807 38.8394Z"/>
<path d="M56.1201 34.4399C56.5301 34.0299 57.1408 34.0299 57.5508 34.4399C57.9604 34.8498 57.9604 35.4597 57.5508 35.8696L54.8906 38.5298C54.6911 38.7293 54.3818 38.8379 54.1719 38.8384C53.8667 38.8384 53.668 38.8369 53.46 38.5298C53.0503 38.1199 53.0504 37.51 53.46 37.1001L56.1201 34.4399Z"/>
<path d="M46 29.6499C46.6098 29.6499 47.0203 30.0597 47.0205 30.6694V34.4497C47.0205 35.0597 46.61 35.4702 46 35.4702C45.3902 35.47 44.9805 35.0596 44.9805 34.4497V30.6694C44.9807 30.0598 45.3904 29.6501 46 29.6499Z"/>
</g>
<defs>
<clipPath id="clip0_1451_3541">
<rect width="92" height="92"/>
</clipPath>
</defs>
</svg>
