<svg viewBox="0 0 92 92" xmlns="http://www.w3.org/2000/svg">
<g clip-path="url(#clip0_1434_3971)">
<path d="M73.0588 92H18.9412C8.55059 92 0 83.4494 0 73.0588V18.9412C0 8.55059 8.55059 0 18.9412 0H73.0588C83.4494 0 92 8.55059 92 18.9412V73.0588C92 83.4494 83.4494 92 73.0588 92ZM18.9412 5.41177C11.4729 5.41177 5.41177 11.4729 5.41177 18.9412V73.0588C5.41177 80.5271 11.4729 86.5882 18.9412 86.5882H73.0588C80.5271 86.5882 86.5882 80.5271 86.5882 73.0588V18.9412C86.5882 11.4729 80.5271 5.41177 73.0588 5.41177H18.9412Z"/>
<path d="M69.801 37.5033V34.5269H54.6697V37.5033H50.8706V57.2563H73.6V37.5033H69.801ZM67.0193 50.6972V54.821H65.8071V50.6972H62.8414V54.821H61.6292V50.6972H58.6635V54.821H57.4513V50.6972H54.4857V54.821H53.3059V39.9386H57.105V36.9622H67.3657V39.9386H71.1647V54.821H69.985V50.6972H67.0193Z"/>
<path fill-rule="evenodd" clip-rule="evenodd" d="M37.3301 34.5264V37.5029H41.1299V57.2559H18.4004V37.5029H22.1992V34.5264H37.3301ZM24.6348 36.9619V39.9385H20.835V54.8213H22.0146V50.6973H24.9805V54.8213H26.1934V50.6973H29.1582V54.8213H30.3711V50.6973H33.3369V54.8213H34.5488V50.6973H37.5146V54.8213H38.6943V39.9385H34.8955V36.9619H24.6348Z"/>
</g>
<defs>
<clipPath id="clip0_1434_3971">
<rect width="92" height="92"/>
</clipPath>
</defs>
</svg>
