<svg viewBox="0 0 92 92" xmlns="http://www.w3.org/2000/svg">
<path fill-rule="evenodd" clip-rule="evenodd" d="M34.6328 0.494141C44.074 0.494141 51.7626 8.03259 51.7627 17.3018C51.7627 25.9016 45.1442 33.0092 36.6484 33.9912V91.5049H32.6182V34.001C24.1221 33.0192 17.5039 25.911 17.5039 17.3018C17.504 8.02277 25.1917 0.494243 34.6328 0.494141ZM34.6328 4.45117C27.4085 4.45127 21.5344 10.2188 21.5342 17.3115C21.5342 24.4044 27.4084 30.1718 34.6328 30.1719C41.8573 30.1719 47.7314 24.4044 47.7314 17.3115C47.7313 10.2188 41.8572 4.45117 34.6328 4.45117Z"/>
<path d="M47.0576 57.8112L23.6337 49.0846C22.6073 48.7022 21.4552 49.2204 21.0604 50.242C20.6655 51.2636 21.1774 52.4018 22.2038 52.7841L45.6277 61.5108C46.654 61.8931 47.8061 61.3749 48.201 60.3533C48.5959 59.3317 48.0839 58.1936 47.0576 57.8112Z"/>
<path d="M47.0548 70.0168L23.6309 61.2901C22.6046 60.9078 21.4525 61.426 21.0576 62.4476C20.6627 63.4692 21.1747 64.6073 22.201 64.9897L45.6249 73.7163C46.6513 74.0987 47.8034 73.5805 48.1982 72.5589C48.5931 71.5373 48.0812 70.3991 47.0548 70.0168Z"/>
<path d="M47.0589 82.2692L23.635 73.5426C22.6086 73.1602 21.4565 73.6784 21.0616 74.7C20.6668 75.7216 21.1787 76.8598 22.2051 77.2421L45.6289 85.9688C46.6553 86.3512 47.8074 85.8329 48.2023 84.8113C48.5971 83.7897 48.0852 82.6516 47.0589 82.2692Z"/>
<path d="M52.1451 88.1815C52.4978 88.3991 53.314 88.7453 54.1805 88.7453C55.7725 88.7453 56.2662 87.7462 56.2561 87.0043C56.2461 85.7479 55.0873 85.2038 53.8883 85.2038H53.193V84.2937H53.8883C54.7951 84.2937 55.9337 83.8387 55.9337 82.7703C55.9337 82.0481 55.4702 81.415 54.3216 81.415C53.586 81.415 52.8807 81.7316 52.4877 82.0086L52.1653 81.1183C52.6489 80.772 53.5759 80.4258 54.5634 80.4258C56.367 80.4258 57.1932 81.4744 57.1932 82.5724C57.1932 83.5023 56.629 84.2937 55.5004 84.6894V84.7191C56.629 84.9367 57.5459 85.7677 57.5459 87.034C57.5459 88.4783 56.4073 89.7346 54.2006 89.7346C53.1729 89.7346 52.266 89.418 51.8126 89.1213L52.1552 88.1815H52.1451Z"/>
<path d="M59.0875 89.5862V88.8344L60.0649 87.9045C62.4126 85.7183 63.4706 84.5509 63.4807 83.1957C63.4807 82.2856 63.0272 81.4348 61.6569 81.4348C60.8206 81.4348 60.1354 81.8503 59.7122 82.1965L59.3193 81.3359C59.9541 80.8116 60.8609 80.4258 61.9189 80.4258C63.8938 80.4258 64.7301 81.7514 64.7301 83.0473C64.7301 84.7092 63.5008 86.0546 61.5662 87.8847L60.8307 88.5475V88.5772H64.9518V89.5862H59.0976H59.0875Z"/>
<path d="M68.297 86.648L67.3096 89.586H66.04L69.2744 80.2476H70.7556L74 89.586H72.6901L71.6725 86.648H68.297ZM71.4206 85.7082L70.4936 83.0174C70.282 82.4041 70.1409 81.8501 69.9999 81.3159H69.9696C69.8286 81.8699 69.6774 82.4338 69.486 83.0076L68.559 85.7082H71.4206Z"/>
</svg>
