<svg viewBox="0 0 92 92" xmlns="http://www.w3.org/2000/svg">
<path fill-rule="evenodd" clip-rule="evenodd" d="M34.6328 0.494141C44.074 0.494141 51.7626 8.03259 51.7627 17.3018C51.7627 25.9016 45.1442 33.0092 36.6484 33.9912V91.5049H32.6182V34.001C24.1221 33.018 17.5039 25.9018 17.5039 17.3018C17.504 8.03266 25.1917 0.494243 34.6328 0.494141ZM34.6328 4.45117C27.4085 4.45127 21.5344 10.2188 21.5342 17.3115C21.5342 24.4044 27.4084 30.1718 34.6328 30.1719C41.8573 30.1719 47.7314 24.4044 47.7314 17.3115C47.7313 10.2188 41.8572 4.45117 34.6328 4.45117Z"/>
<path d="M47.0576 57.8112L23.6337 49.0846C22.6073 48.7022 21.4552 49.2204 21.0604 50.242C20.6655 51.2636 21.1774 52.4018 22.2038 52.7841L45.6277 61.5108C46.654 61.8931 47.8061 61.3749 48.201 60.3533C48.5959 59.3317 48.0839 58.1936 47.0576 57.8112Z"/>
<path d="M47.0548 70.0168L23.6309 61.2901C22.6046 60.9078 21.4525 61.426 21.0576 62.4476C20.6627 63.4692 21.1747 64.6073 22.201 64.9897L45.6249 73.7163C46.6513 74.0987 47.8034 73.5805 48.1982 72.5589C48.5931 71.5373 48.0812 70.3991 47.0548 70.0168Z"/>
<path d="M47.0589 82.2692L23.635 73.5426C22.6086 73.1602 21.4565 73.6784 21.0616 74.7C20.6668 75.7216 21.1787 76.8598 22.2051 77.2421L45.6289 85.9688C46.6553 86.3512 47.8074 85.8329 48.2023 84.8113C48.5971 83.7897 48.0852 82.6516 47.0589 82.2692Z"/>
<path d="M54.5533 81.7216H54.523L52.931 82.5625L52.6892 81.6326L54.6943 80.584H55.7523V89.5861H54.5533V81.7216Z"/>
<path d="M64.327 81.4447C64.0751 81.4348 63.7527 81.4447 63.4 81.504C61.4553 81.8206 60.4175 83.2253 60.2059 84.7092H60.2462C60.6795 84.1453 61.4453 83.6705 62.4629 83.6705C64.0852 83.6705 65.2338 84.818 65.2338 86.5789C65.2338 88.2309 64.0953 89.7544 62.1808 89.7544C60.2664 89.7544 58.9363 88.2606 58.9363 85.9161C58.9363 84.1453 59.5812 82.7406 60.488 81.8602C61.2538 81.1281 62.2614 80.6731 63.4202 80.5346C63.7829 80.4752 64.0953 80.4653 64.327 80.4653V81.4645V81.4447ZM63.9743 86.6382C63.9743 85.3522 63.2287 84.5707 62.0801 84.5707C61.3344 84.5707 60.6392 85.0258 60.3067 85.6787C60.2261 85.8172 60.1656 85.9952 60.1656 86.2228C60.1958 87.7066 60.881 88.7948 62.1808 88.7948C63.2489 88.7948 63.9743 87.9243 63.9743 86.6382Z"/>
<path d="M68.307 86.648L67.3196 89.586H66.05L69.2844 80.2476H70.7656L74.01 89.586H72.7002L71.6825 86.648H68.307ZM71.4205 85.7082L70.4935 83.0174C70.2819 82.4041 70.1408 81.8501 69.9998 81.3159H69.9696C69.8285 81.8699 69.6774 82.4338 69.4859 83.0076L68.5589 85.7082H71.4205Z"/>
</svg>
