<svg viewBox="0 0 92 92" xmlns="http://www.w3.org/2000/svg">
<g clip-path="url(#clip0_1023_2002)">
<path d="M40.3243 56.1082C36.7567 56.1082 33.9459 53.1893 33.9459 49.6217C33.9459 46.0542 36.8648 43.1353 40.3243 43.1353C43.7838 43.1353 46.7027 46.0542 46.7027 49.6217C46.7027 53.1893 43.7838 56.1082 40.3243 56.1082ZM40.3243 46.0542C38.3784 46.0542 36.8648 47.5677 36.8648 49.5136C36.8648 51.4596 38.3784 52.9731 40.3243 52.9731C42.2702 52.9731 43.7838 51.4596 43.7838 49.5136C43.7838 47.5677 42.2702 46.0542 40.3243 46.0542Z" fill-opacity="0.5"/>
<path d="M59.8919 56.1082C56.3244 56.1082 53.5135 53.1893 53.5135 49.6217C53.5135 46.0542 56.4325 43.1353 59.8919 43.1353C63.3514 43.1353 66.2703 46.0542 66.2703 49.6217C66.2703 53.1893 63.3514 56.1082 59.8919 56.1082ZM59.8919 46.0542C57.946 46.0542 56.4325 47.5677 56.4325 49.5136C56.4325 51.4596 57.946 52.9731 59.8919 52.9731C61.8379 52.9731 63.3514 51.4596 63.3514 49.5136C63.3514 47.5677 61.8379 46.0542 59.8919 46.0542Z" fill-opacity="0.5"/>
<path d="M50.1622 23.1353C35.7838 23.1353 24.1082 35.0271 24.1082 49.6217C24.1082 64.2163 35.7838 76.1082 50.1622 76.1082C64.5406 76.1082 76.2163 64.2163 76.2163 49.6217C76.2163 35.0271 64.5406 23.1353 50.1622 23.1353ZM51.5676 72.9731V66.0542C51.5676 65.1893 50.919 64.5407 50.0541 64.5407C49.1892 64.5407 48.5406 65.1893 48.5406 66.0542V72.9731C36.5406 72.2163 26.919 61.9461 26.919 49.5136C26.919 37.0812 36.5406 26.919 48.5406 26.1623V33.0812C48.5406 33.9461 49.1892 34.5947 50.0541 34.5947C50.919 34.5947 51.5676 33.9461 51.5676 33.0812V26.1623C63.6757 26.919 73.1892 37.0812 73.1892 49.5136C73.1892 61.9461 63.6757 72.1082 51.5676 72.9731Z" fill-opacity="0.5"/>
<path d="M58.1621 84.4323H41.4054C40.5405 84.4323 39.8918 83.7836 39.8918 82.9188C39.8918 82.0539 40.5405 81.4053 41.4054 81.4053H58.1621C59.027 81.4053 59.6756 82.0539 59.6756 82.9188C59.6756 83.7836 59.027 84.4323 58.1621 84.4323Z" fill-opacity="0.5"/>
<path d="M80.973 8.32432L80.6486 7.67568C77.5135 3.02703 72.3243 0 66.3784 0H17.1892C7.67567 0 0 7.78379 0 17.5135V67.4595C0 74.8108 4.54054 81.1892 10.9189 83.6757C13.9459 88.6487 19.3514 92 25.5135 92H74.7027C84.2162 92 91.8919 84.2162 91.8919 74.4865V24.5405C91.8919 17.1892 87.3513 10.8108 80.973 8.32432ZM8.43243 76.1081C6.27027 73.8378 4.97297 70.8108 4.97297 67.4595V17.5135C4.97297 10.5946 10.4865 5.08108 17.2973 5.08108H66.4865C68.973 5.08108 71.3513 5.83784 73.2973 7.13514H25.7297C16.2162 7.13514 8.54054 14.9189 8.54054 24.6486V76.2162L8.43243 76.1081ZM86.9189 74.4865C86.9189 81.4054 81.4054 86.9189 74.5946 86.9189H25.4054C18.5946 86.9189 13.0811 81.2973 13.0811 74.4865V24.5405C13.0811 17.6216 18.5946 12.1081 25.4054 12.1081H74.5946C81.4054 12.1081 86.9189 17.7297 86.9189 24.5405V74.4865Z"/>
</g>
<defs>
<clipPath id="clip0_1023_2002">
<rect width="92" height="92"/>
</clipPath>
</defs>
</svg>
