<svg viewBox="0 0 92 92" xmlns="http://www.w3.org/2000/svg">
<g clip-path="url(#clip0_1451_3568)">
<path d="M74.11 92H17.89C8.08 92 0 83.92 0 74.11V17.89C0 8.08 8.08 0 17.89 0H74.11C83.92 0 92 8.08 92 17.89V74.11C92 83.92 83.92 92 74.11 92ZM17.89 5.11C10.84 5.11 5.11 10.83 5.11 17.89V74.11C5.11 81.16 10.83 86.89 17.89 86.89H74.11C81.16 86.89 86.89 81.17 86.89 74.11V17.89C86.89 10.84 81.17 5.11 74.11 5.11H17.89Z"/>
<path d="M80.7602 80.7602H11.2402V11.2402H80.7502V80.7502L80.7602 80.7602ZM14.3102 77.6902H77.6902V14.3102H14.3102V77.6902Z"/>
<path d="M47.5397 12.7803H44.4697V79.2203H47.5397V12.7803Z"/>
<path d="M28.9952 40.5996C29.0014 40.6001 29.0076 40.6 29.0138 40.6006C29.242 40.6191 29.4652 40.7151 29.6398 40.8896C29.6718 40.9217 29.6999 40.9562 29.7267 40.9912L38.4396 49.6953C38.83 50.0854 38.8303 50.7187 38.4405 51.1094C38.0503 51.5002 37.4162 51.5007 37.0255 51.1104L28.9249 43.0176L20.8341 51.1094C20.4436 51.4998 19.8105 51.4998 19.42 51.1094C19.0295 50.7189 19.0295 50.0858 19.42 49.6953L28.1173 40.9971C28.1454 40.9597 28.1761 40.9237 28.2101 40.8896C28.4052 40.6945 28.6613 40.5967 28.9171 40.5967H28.9327C28.9536 40.5967 28.9744 40.5983 28.9952 40.5996Z"/>
<path d="M69.4259 40.8895C69.8164 40.4991 70.4495 40.4991 70.84 40.8895C71.2303 41.28 71.2304 41.9132 70.84 42.3036L62.1398 51.0028C62.1121 51.0394 62.0833 51.0759 62.0499 51.1093C61.8527 51.3065 61.5935 51.4032 61.3351 51.4013C61.0766 51.4033 60.8175 51.3065 60.6202 51.1093C60.5867 51.0758 60.5571 51.0396 60.5294 51.0028L51.8302 42.3036C51.4397 41.9131 51.4397 41.28 51.8302 40.8895C52.2207 40.4991 52.8538 40.4991 53.2442 40.8895L61.3351 48.9804L69.4259 40.8895Z"/>
</g>
<defs>
<clipPath id="clip0_1451_3568">
<rect width="92" height="92"/>
</clipPath>
</defs>
</svg>
