<svg viewBox="0 0 92 92" xmlns="http://www.w3.org/2000/svg">
<path d="M14.9919 64C12.7864 64 11 62.21 11 60C11 57.79 12.7964 56 14.9919 56C17.1874 56 18.9838 57.79 18.9838 60C18.9838 62.21 17.1874 64 14.9919 64ZM14.9919 58C13.8941 58 12.9959 58.9 12.9959 60C12.9959 61.1 13.8941 62 14.9919 62C16.0897 62 16.9878 61.1 16.9878 60C16.9878 58.9 16.0897 58 14.9919 58Z"/>
<path d="M76.0081 64C73.8026 64 72.0162 62.21 72.0162 60C72.0162 57.79 73.8126 56 76.0081 56C78.2037 56 80 57.79 80 60C80 62.21 78.2037 64 76.0081 64ZM76.0081 58C74.9103 58 74.0122 58.9 74.0122 60C74.0122 61.1 74.9103 62 76.0081 62C77.1059 62 78.0041 61.1 78.0041 60C78.0041 58.9 77.1059 58 76.0081 58Z"/>
<path d="M45.4203 64C43.2148 64 41.4284 62.21 41.4284 60C41.4284 57.79 43.2248 56 45.4203 56C47.6159 56 49.4122 57.79 49.4122 60C49.4122 62.21 47.6159 64 45.4203 64ZM45.4203 58C44.3226 58 43.4244 58.9 43.4244 60C43.4244 61.1 44.3226 62 45.4203 62C46.5181 62 47.4163 61.1 47.4163 60C47.4163 58.9 46.5181 58 45.4203 58Z"/>
<path d="M90.0802 71H1.90979C0.859907 71 0 70.1532 0 69.0972V51.9028C0 50.8567 0.849908 50 1.90979 50H90.0902C91.1401 50 92 50.8468 92 51.9028V69.0972C92 70.1433 91.1501 71 90.0902 71H90.0802ZM5.90936 67.0152H86.0806C87.1305 67.0152 87.9904 66.1684 87.9904 65.1124V55.8876C87.9904 54.8416 87.1405 53.9848 86.0806 53.9848H5.90936C4.85947 53.9848 3.99957 54.8316 3.99957 55.8876V65.1124C3.99957 66.1584 4.84947 67.0152 5.90936 67.0152Z"/>
<path d="M75.7852 40.9735C76.3295 40.9735 76.7708 41.4148 76.7708 41.9592C76.7706 42.5033 76.3294 42.9448 75.7852 42.9448H66.2445C65.7003 42.9448 65.2591 42.5033 65.2588 41.9592C65.2588 41.4148 65.7001 40.9735 66.2445 40.9735H75.7852Z"/>
<path d="M81.9561 36.7941C82.5002 36.7944 82.9417 37.2356 82.9417 37.7798C82.9417 38.324 82.5002 38.7652 81.9561 38.7654H58.882C58.3376 38.7654 57.8963 38.3242 57.8963 37.7798C57.8963 37.2354 58.3376 36.7941 58.882 36.7941H81.9561Z"/>
<path d="M71.0148 20.9448C71.5592 20.9448 72.0005 21.3861 72.0005 21.9305V32.6253H87.5244C88.0687 32.6253 88.51 33.0666 88.51 33.611C88.5098 34.1551 88.0686 34.5966 87.5244 34.5966H54.4957C53.9515 34.5966 53.5103 34.1551 53.51 33.611C53.51 33.0666 53.9513 32.6253 54.4957 32.6253H70.0292V21.9305C70.0292 21.3862 70.4705 20.9449 71.0148 20.9448Z"/>
</svg>
