<svg viewBox="0 0 92 92" xmlns="http://www.w3.org/2000/svg">
<g clip-path="url(#clip0_1451_4765)">
<path d="M47.1045 62.4375C48.1674 62.4377 49.0254 63.2964 49.0254 64.3594V68.1924C49.0254 69.2553 48.1674 70.114 47.1045 70.1143C46.0414 70.1143 45.1826 69.2555 45.1826 68.1924V64.3594C45.1826 63.2963 46.0414 62.4375 47.1045 62.4375Z"/>
<path d="M33.5498 57.9502C34.296 57.204 35.5116 57.204 36.2578 57.9502C37.004 58.6964 37.004 59.913 36.2578 60.6592L33.5498 63.3672C32.8036 64.1134 31.587 64.1134 30.8408 63.3672C30.0946 62.621 30.0946 61.4054 30.8408 60.6592L33.5498 57.9502Z"/>
<path d="M57.9502 57.9502C58.6964 57.204 59.913 57.204 60.6592 57.9502L63.3672 60.6592C64.1134 61.4054 64.1134 62.621 63.3672 63.3672C62.621 64.1134 61.4054 64.1134 60.6592 63.3672L57.9502 60.6592C57.204 59.913 57.204 58.6964 57.9502 57.9502Z"/>
<path fill-rule="evenodd" clip-rule="evenodd" d="M47.1045 35.6045C53.4523 35.6048 58.6045 40.7567 58.6045 47.1045C58.6042 53.4521 53.4521 58.6042 47.1045 58.6045C40.7567 58.6045 35.6048 53.4523 35.6045 47.1045C35.6045 40.7565 40.7565 35.6045 47.1045 35.6045ZM47.1045 39.5596C42.944 39.5596 39.5596 42.9338 39.5596 47.1045C39.5597 49.1896 40.3979 51.0708 41.7676 52.4404L52.4404 41.7676C51.081 40.4081 49.1896 39.5597 47.1045 39.5596Z"/>
<path d="M29.8594 45.1826C30.9222 45.1828 31.781 46.0407 31.7812 47.1035C31.7812 48.1665 30.9224 49.0252 29.8594 49.0254H26.0254C24.9625 49.0252 24.1035 48.1665 24.1035 47.1035C24.1037 46.0407 24.9626 45.1828 26.0254 45.1826H29.8594Z"/>
<path d="M68.1924 45.1826C69.2554 45.1826 70.114 46.0406 70.1143 47.1035C70.1143 48.1666 69.2555 49.0254 68.1924 49.0254H64.3594C63.2963 49.0254 62.4375 48.1666 62.4375 47.1035C62.4377 46.0406 63.2964 45.1826 64.3594 45.1826H68.1924Z"/>
<path d="M30.8408 30.8408C31.587 30.0946 32.8036 30.0946 33.5498 30.8408L36.2578 33.5498C37.004 34.296 37.004 35.5116 36.2578 36.2578C35.5116 37.004 34.296 37.004 33.5498 36.2578L30.8408 33.5498C30.0946 32.8036 30.0946 31.587 30.8408 30.8408Z"/>
<path d="M60.6592 30.8408C61.4054 30.0946 62.621 30.0946 63.3672 30.8408C64.1134 31.587 64.1134 32.8036 63.3672 33.5498L60.6592 36.2578C59.913 37.004 58.6964 37.004 57.9502 36.2578C57.204 35.5116 57.204 34.296 57.9502 33.5498L60.6592 30.8408Z"/>
<path d="M47.1045 24.1035C48.1673 24.1038 49.0252 24.9626 49.0254 26.0254V29.8594C49.0252 30.9222 48.1673 31.781 47.1045 31.7812C46.0415 31.7812 45.1828 30.9224 45.1826 29.8594V26.0254C45.1828 24.9625 46.0415 24.1035 47.1045 24.1035Z"/>
<path d="M74.1111 92H17.8889C8.07556 92 0 83.9244 0 74.1111V17.8889C0 8.07556 8.07556 0 17.8889 0H74.1111C83.9244 0 92 8.07556 92 17.8889V74.1111C92 83.9244 83.9244 92 74.1111 92ZM17.8889 5.11111C10.8356 5.11111 5.11111 10.8356 5.11111 17.8889V74.1111C5.11111 81.1645 10.8356 86.8889 17.8889 86.8889H74.1111C81.1645 86.8889 86.8889 81.1645 86.8889 74.1111V17.8889C86.8889 10.8356 81.1645 5.11111 74.1111 5.11111H17.8889Z"/>
<path d="M72.4756 73.3955C73.1502 73.3955 73.7333 73.753 74.7861 74.4072L75.8076 75.041C76.799 75.6542 77.3515 75.9917 77.6582 76.5742C77.9751 77.1466 77.9746 77.7603 77.9746 78.9971V79.7744C77.9746 81.8698 77.9748 82.9227 77.2695 83.6484C76.554 84.3843 75.5419 84.3848 73.5078 84.3848V83.6182C75.3272 83.6182 76.2373 83.6179 76.7178 83.1172C77.2084 82.6061 77.208 81.6654 77.208 79.7744V78.9971C77.208 77.8932 77.2088 77.341 76.9941 76.9424C76.7795 76.5437 76.3189 76.2575 75.4092 75.6953L74.3867 75.0615C72.4653 73.8657 72.5056 73.8656 70.584 75.0615L69.5625 75.6953C68.6528 76.2575 68.1922 76.5438 67.9775 76.9424C67.8549 77.1673 67.7939 77.4336 67.7734 77.8936L67.0068 77.8525C67.0375 77.2801 67.1187 76.9013 67.3027 76.5742C67.6196 76.0019 68.1619 75.6645 69.1533 75.041L70.1758 74.4072C71.2285 73.7531 71.801 73.3955 72.4756 73.3955Z"/>
<path d="M67.3848 82.0947C68.4377 82.0947 69.3066 82.9535 69.3066 84.0166L69.2969 84.0059H68.5293C68.5291 83.3723 68.0184 82.8613 67.3848 82.8613V82.0947Z"/>
<path d="M67.3848 80.5615C69.2861 80.5615 70.8398 82.105 70.8398 84.0166L70.8301 84.0059H70.0635C70.0633 82.5238 68.8567 81.3281 67.3848 81.3281V80.5615Z"/>
<path d="M67.3848 79.0283C70.1345 79.0283 72.373 81.2668 72.373 84.0166L72.3633 84.0059H71.5967C71.5964 81.6856 69.7051 79.7949 67.3848 79.7949V79.0283Z"/>
</g>
<defs>
<clipPath id="clip0_1451_4765">
<rect width="92" height="92"/>
</clipPath>
</defs>
</svg>
