<svg viewBox="0 0 92 92" xmlns="http://www.w3.org/2000/svg">
<g clip-path="url(#clip0_1023_2033)">
<path d="M73.0588 92H18.9412C8.55059 92 0 83.4494 0 73.0588V18.9412C0 8.55059 8.55059 0 18.9412 0H73.0588C83.4494 0 92 8.55059 92 18.9412V73.0588C92 83.4494 83.4494 92 73.0588 92ZM18.9412 5.41177C11.4729 5.41177 5.41177 11.4729 5.41177 18.9412V73.0588C5.41177 80.5271 11.4729 86.5882 18.9412 86.5882H73.0588C80.5271 86.5882 86.5882 80.5271 86.5882 73.0588V18.9412C86.5882 11.4729 80.5271 5.41177 73.0588 5.41177H18.9412Z"/>
<path d="M46 74.6826C30.1976 74.6826 17.3176 61.8026 17.3176 46.0002C17.3176 30.1979 30.1976 17.3179 46 17.3179C61.8023 17.3179 74.6823 30.1979 74.6823 46.0002C74.6823 61.8026 61.8023 74.6826 46 74.6826ZM46 20.5649C31.9294 20.5649 20.5647 31.9296 20.5647 46.0002C20.5647 60.0708 31.9294 71.4355 46 71.4355C60.0706 71.4355 71.4353 60.0708 71.4353 46.0002C71.4353 31.9296 60.0706 20.5649 46 20.5649Z"/>
<path d="M35.1765 53.0354C31.28 53.0354 28.1412 49.8966 28.1412 46.0001C28.1412 42.1037 31.28 38.9648 35.1765 38.9648C39.0729 38.9648 42.2118 42.1037 42.2118 46.0001C42.2118 49.8966 39.0729 53.0354 35.1765 53.0354ZM35.1765 42.2119C33.12 42.2119 31.3882 43.9437 31.3882 46.0001C31.3882 48.0566 33.12 49.7884 35.1765 49.7884C37.2329 49.7884 38.9647 48.0566 38.9647 46.0001C38.9647 43.9437 37.2329 42.2119 35.1765 42.2119Z"/>
<path d="M56.8235 53.0354C52.927 53.0354 49.7882 49.8966 49.7882 46.0001C49.7882 42.1037 52.927 38.9648 56.8235 38.9648C60.72 38.9648 63.8588 42.1037 63.8588 46.0001C63.8588 49.8966 60.72 53.0354 56.8235 53.0354ZM56.8235 42.2119C54.767 42.2119 53.0353 43.9437 53.0353 46.0001C53.0353 48.0566 54.767 49.7884 56.8235 49.7884C58.88 49.7884 60.6117 48.0566 60.6117 46.0001C60.6117 43.9437 58.88 42.2119 56.8235 42.2119Z"/>
<path d="M47.6235 28.1414V20.5649C47.6235 19.6683 46.8966 18.9414 46 18.9414C45.1033 18.9414 44.3765 19.6683 44.3765 20.5649V28.1414C44.3765 29.0381 45.1033 29.7649 46 29.7649C46.8966 29.7649 47.6235 29.0381 47.6235 28.1414Z"/>
<path d="M47.6235 71.4353V63.8589C47.6235 62.9622 46.8966 62.2354 46 62.2354C45.1033 62.2354 44.3765 62.9622 44.3765 63.8589V71.4354C44.3765 72.332 45.1033 73.0589 46 73.0589C46.8966 73.0589 47.6235 72.332 47.6235 71.4353Z"/>
<path d="M25.5652 17.6533H12.4038C10.6179 17.6533 8.94022 16.5709 8.39905 14.8608C7.50069 12.0251 9.60046 9.40576 12.3063 9.40576H25.4678C27.2536 9.40576 28.9313 10.4881 29.4725 12.1982C30.3708 15.034 28.271 17.6533 25.5652 17.6533ZM12.3172 11.5705C11.0292 11.5705 10.0334 12.8152 10.4663 14.1681C10.7261 14.9799 11.5487 15.4778 12.4038 15.4778H25.4786C26.3336 15.4778 27.1562 14.9799 27.416 14.1681C27.8489 12.8152 26.8532 11.5705 25.5652 11.5705H12.3172Z"/>
<path d="M22.816 12.4473H14.6984C14.1006 12.4473 13.616 12.9319 13.616 13.5296C13.616 14.1274 14.1006 14.612 14.6984 14.612H22.816C23.4138 14.612 23.8984 14.1274 23.8984 13.5296C23.8984 12.9319 23.4138 12.4473 22.816 12.4473Z"/>
</g>
<defs>
<clipPath id="clip0_1023_2033">
<rect width="92" height="92"/>
</clipPath>
</defs>
</svg>
