<svg viewBox="0 0 92 92" xmlns="http://www.w3.org/2000/svg">
<g clip-path="url(#clip0_1451_4873)">
<path d="M74.1111 92H17.8889C8.07556 92 0 83.9244 0 74.1111V17.8889C0 8.07556 8.07556 0 17.8889 0H74.1111C83.9244 0 92 8.07556 92 17.8889V74.1111C92 83.9244 83.9244 92 74.1111 92ZM17.8889 5.11111C10.8356 5.11111 5.11111 10.8356 5.11111 17.8889V74.1111C5.11111 81.1645 10.8356 86.8889 17.8889 86.8889H74.1111C81.1645 86.8889 86.8889 81.1645 86.8889 74.1111V17.8889C86.8889 10.8356 81.1645 5.11111 74.1111 5.11111H17.8889Z"/>
<path d="M74.0391 73.4053C74.7239 73.4053 75.2967 73.7638 76.3496 74.418L77.3721 75.0518C78.3635 75.665 78.916 76.0023 79.2227 76.585C79.5394 77.1573 79.5391 77.7711 79.5391 79.0078V79.7842C79.5391 81.8794 79.539 82.9324 78.834 83.6582C78.1185 84.3942 77.1063 84.3945 75.0723 84.3945H75.0615V83.6279C76.8811 83.6279 77.791 83.6278 78.2715 83.127C78.7621 82.6158 78.7617 81.6752 78.7617 79.7842V79.0078C78.7617 77.9041 78.7623 77.3518 78.5479 76.9531C78.3332 76.5545 77.8727 76.2683 76.9629 75.7061L75.9404 75.0723C74.0189 73.8764 74.0602 73.8764 72.1387 75.0723L71.1162 75.7061C70.2064 76.2683 69.7459 76.5545 69.5312 76.9531C69.4087 77.1779 69.3476 77.4437 69.3271 77.9033L68.5605 77.8623C68.5912 77.2902 68.6726 76.9119 68.8564 76.585C69.1733 76.0125 69.7156 75.6753 70.707 75.0518L71.7295 74.418C72.7821 73.7639 73.3544 73.4054 74.0391 73.4053Z"/>
<path d="M68.9287 82.1055C69.9813 82.1056 70.8504 82.9635 70.8506 84.0264L70.8398 84.0166H70.0732C70.0732 83.3829 69.5623 82.8722 68.9287 82.8721V82.1055Z"/>
<path d="M68.9287 80.5713C70.8298 80.5715 72.3836 82.115 72.3838 84.0264L72.373 84.0166H71.6064C71.6064 82.5345 70.4006 81.3381 68.9287 81.3379V80.5713Z"/>
<path d="M68.9287 79.0381C71.6783 79.0383 73.9169 81.2768 73.917 84.0264L73.9062 84.0166H73.1396C73.1396 81.6963 71.249 79.8049 68.9287 79.8047V79.0381Z"/>
<path d="M34.1885 34.1875C31.3312 37.0428 29.7232 40.4161 29.3643 44.3066C29.3145 44.8614 29.2903 45.4279 29.291 46.0059C29.2912 50.6158 30.9202 54.5533 34.1777 57.8184L34.1836 57.8242L30.626 61.3809L30.6201 61.375C26.3859 57.131 24.2707 52.0078 24.2734 46.0059C24.274 44.9778 24.3363 43.9757 24.4609 43C25.0587 38.2696 27.1157 34.1466 30.6318 30.6309L34.1885 34.1875Z"/>
<path d="M61.374 30.6367C64.0078 33.2723 65.8233 36.2473 66.8184 39.5625C67.4264 41.5823 67.7307 43.7282 67.7324 46V46.0059C67.7316 49.3272 67.0827 52.3784 65.7842 55.1592C64.7392 57.4076 63.2707 59.4794 61.3799 61.375L57.8223 57.8184C59.1208 56.5191 60.1614 55.1137 60.9424 53.6025C62.1259 51.3141 62.7162 48.7817 62.7148 46.0059V46C62.7176 43.7819 62.3451 41.7194 61.5957 39.8125C60.7774 37.7551 59.5216 35.8801 57.8281 34.1875L61.374 30.6367Z"/>
<path d="M40.2471 40.2441C38.6635 41.8295 37.873 43.7444 37.877 45.9883V46.0059C37.8755 46.2559 37.885 46.5021 37.9053 46.7441V46.75C38.0625 48.6726 38.8436 50.3372 40.2471 51.7441C40.2505 51.7477 40.2536 51.7519 40.2578 51.7559L36.6953 55.3125L36.6895 55.3066C34.1273 52.7394 32.8453 49.6392 32.8428 46.0059V45.9883C32.8422 45.8278 32.8433 45.6691 32.8477 45.5117C32.9564 42.0816 34.2373 39.14 36.6895 36.6875L40.2471 40.2441Z"/>
<path d="M55.3447 36.7217C56.2009 37.5834 56.9133 38.5056 57.4814 39.4883H57.4873C58.6053 41.4216 59.1645 43.5883 59.1641 45.9883V46C59.1637 48.4918 58.563 50.7343 57.3623 52.7275H57.3564C56.8022 53.6389 56.1223 54.4986 55.3164 55.3066V55.3008L55.3105 55.3066L51.7539 51.75C51.9854 51.511 52.1989 51.266 52.3955 51.0166V51.0107C53.5505 49.578 54.1305 47.9077 54.1348 46V45.9883C54.1328 43.7485 53.3414 41.8377 51.7598 40.2559L55.3223 36.6875C55.3304 36.6983 55.3377 36.7098 55.3447 36.7217Z"/>
<path d="M46.0088 41.8066C47.1659 41.8057 48.1524 42.2131 48.9688 43.0283L48.9746 43.0342C49.7863 43.8493 50.1915 44.834 50.1904 45.9883V46C50.1889 47.1521 49.7815 48.1354 48.9688 48.9492C48.9661 48.9518 48.9648 48.9556 48.9639 48.96C48.1471 49.7677 47.1622 50.1716 46.0088 50.1709C44.8548 50.1718 43.8718 49.7656 43.0596 48.9541L43.0537 48.9492C42.2421 48.137 41.835 47.1555 41.832 46.0059V45.9883C41.8309 44.8374 42.2342 43.8546 43.042 43.04C43.0454 43.0367 43.0495 43.0326 43.0537 43.0283C43.8683 42.2129 44.8534 41.8057 46.0088 41.8066Z"/>
</g>
<defs>
<clipPath id="clip0_1451_4873">
<rect width="92" height="92"/>
</clipPath>
</defs>
</svg>
