<svg viewBox="0 0 92 92" xmlns="http://www.w3.org/2000/svg">
<path d="M74.7891 92H18.2109C8.70533 92 1 84.21 1 74.6V17.4C1 7.79 8.70533 0 18.2109 0H74.7891C84.2947 0 92 7.79 92 17.4V74.6C92 84.21 84.2947 92 74.7891 92ZM18.2109 3.83C10.8023 3.83 4.78837 9.9 4.78837 17.4V74.6C4.78837 82.09 10.7924 88.17 18.2109 88.17H74.7891C82.1977 88.17 88.2116 82.1 88.2116 74.6V17.4C88.2116 9.91 82.2076 3.83 74.7891 3.83H18.2109Z"/>
<path d="M66.93 83.5898C64.36 83.5898 61.74 82.9798 59.43 81.7498C52.3 77.9598 50.75 70.0198 49.25 62.3498C47.86 55.2198 46.55 48.4898 41.08 44.9798C37.46 42.6598 32.56 42.1398 28.89 43.6798C20.51 47.1898 18.51 61.8098 17.66 68.0598C17.02 72.7098 16.97 77.4698 17.5 82.1898L12.13 82.8498C11.55 77.6398 11.61 72.3998 12.31 67.2598C13.29 60.0398 15.6 43.1498 26.89 38.4198C32.15 36.2198 38.82 36.8998 43.9 40.1498C51.39 44.9398 53.07 53.5898 54.56 61.2198C55.91 68.1498 57.08 74.1398 61.88 76.6898C64.98 78.3398 69.01 78.3398 71.68 76.6898C75.77 74.1698 76.67 66.8198 77.14 51.2798C77.54 37.8998 77.48 24.1998 76.97 10.5398L82.38 10.3198C82.9 24.1098 82.96 37.9498 82.55 51.4598C82.07 67.3898 81.29 77.3598 74.42 81.5798C72.25 82.9098 69.62 83.5798 66.93 83.5798V83.5898Z"/>
</svg>
