<svg viewBox="0 0 92 92" xmlns="http://www.w3.org/2000/svg">
<g clip-path="url(#clip0_2687_2760)">
<path d="M37.5566 54.3618C38.5789 58.3892 40.6642 62.0896 43.6797 65.105L41.4717 67.313C38.4529 64.2942 36.2424 60.6644 34.9756 56.7017L37.5566 54.3618Z"/>
<path d="M49.1992 37.5562C46.2654 40.5002 44.6406 44.4162 44.6406 48.5767C44.6407 52.7369 46.2553 56.6523 49.1992 59.5962L46.9912 61.8042C43.4543 58.2775 41.5127 53.5749 41.5127 48.5864V48.5659C41.5127 43.5777 43.4648 38.8757 46.9912 35.3491L49.1992 37.5562Z"/>
<path d="M54.6992 43.0767C51.6632 46.1229 51.6632 51.0602 54.6992 54.0962L52.4912 56.3042V56.2944C48.2388 52.042 48.2388 45.1211 52.4912 40.8687L54.6992 43.0767Z"/>
<path d="M43.6797 32.0669C40.4513 35.2853 38.2877 39.2809 37.3564 43.6353L34.3467 42.7896C35.4303 37.9342 37.8633 33.4672 41.4717 29.8589L43.6797 32.0669Z"/>
<path d="M71.9697 30.248C73.8241 30.2481 75.327 31.7532 75.3271 33.6104V62.6621C75.3271 64.5194 73.8242 66.0253 71.9697 66.0254C70.1152 66.0254 68.6113 64.5195 68.6113 62.6621V60.79C62.1668 60.419 57.0498 55.0722 57.0498 48.5352C57.0498 41.9981 62.1668 36.6503 68.6113 36.2793V33.6104C68.6115 31.7531 70.1153 30.248 71.9697 30.248Z"/>
<path d="M28.0804 36.933C29.8489 36.933 31.2902 35.369 31.2902 33.4472C31.2902 31.5254 29.8489 29.9614 28.0804 29.9614C26.312 29.9614 24.8707 31.5254 24.8707 33.4472C24.8707 35.369 26.312 36.933 28.0804 36.933ZM34.3978 47.7481L32.844 46.8894L32.2 44.753C31.2187 41.5125 28.4791 39.2534 25.3613 39.2432C22.9591 39.2432 21.62 39.9792 19.1258 41.073C17.6844 41.7068 16.4987 42.9028 15.8035 44.4259L15.3538 45.4174C14.8324 46.5623 15.2515 47.9525 16.3044 48.525C17.3471 49.0974 18.6147 48.6374 19.1462 47.4925L19.596 46.501C19.8311 45.9899 20.2195 45.5912 20.7 45.3868L22.4889 44.5997L21.4769 49.0054C21.1293 50.5183 21.5075 52.113 22.4684 53.2681L26.4755 58.0112C26.956 58.5837 27.2933 59.2685 27.4671 60.025L28.6938 65.3405C28.98 66.5774 30.1453 67.3441 31.2902 67.0272C32.4351 66.7103 33.1404 65.453 32.844 64.2161L31.3618 57.7556C31.188 57.0094 30.8506 56.3143 30.3702 55.7419L27.324 52.1334L28.4791 47.145L28.8471 48.341C29.2049 49.5063 29.9613 50.4774 30.9631 51.0294L32.5169 51.8881C33.5595 52.4605 34.8271 52.0005 35.3587 50.8556C35.8698 49.721 35.4507 48.3103 34.3978 47.7379V47.7481ZM19.0951 57.9601C18.8804 58.5428 18.5635 59.0743 18.1444 59.5241L14.8018 63.1632C13.9635 64.073 13.9635 65.545 14.8018 66.4445C15.64 67.3543 16.9893 67.3543 17.8275 66.4445L21.804 62.1308C22.2129 61.6912 22.5298 61.1597 22.7547 60.5668L23.6542 58.1134C19.9538 53.7383 21.068 55.0774 20.4853 54.2188L19.1053 57.9499L19.0951 57.9601Z"/>
<path d="M74.1111 92H17.8889C8.07556 92 0 83.9244 0 74.1111V17.8889C0 8.07556 8.07556 0 17.8889 0H74.1111C83.9244 0 92 8.07556 92 17.8889V74.1111C92 83.9244 83.9244 92 74.1111 92ZM17.8889 5.11111C10.8356 5.11111 5.11111 10.8356 5.11111 17.8889V74.1111C5.11111 81.1645 10.8356 86.8889 17.8889 86.8889H74.1111C81.1645 86.8889 86.8889 81.1645 86.8889 74.1111V17.8889C86.8889 10.8356 81.1645 5.11111 74.1111 5.11111H17.8889Z"/>
</g>
<defs>
<clipPath id="clip0_2687_2760">
<rect width="92" height="92"/>
</clipPath>
</defs>
</svg>
