<svg viewBox="0 0 92 92" xmlns="http://www.w3.org/2000/svg">
<g clip-path="url(#clip0_1434_4011)">
<path d="M69.92 51.7582C68.9134 50.2321 67.4955 49.0523 65.8179 48.338C64.1294 47.6345 62.3002 47.4396 60.5035 47.786C58.7176 48.1215 57.0833 48.9874 55.7736 50.2646C54.4748 51.5417 53.5981 53.1653 53.2301 54.9512C52.8513 56.737 53.0244 58.577 53.7063 60.2655C54.3882 61.9648 55.5463 63.4043 57.0616 64.4217C58.5661 65.45 60.3303 66.002 62.1595 66.0236H62.192C64.6381 66.0236 66.9435 65.0712 68.6753 63.361C70.4287 61.6401 71.4028 59.3347 71.4353 56.8777C71.4353 55.0486 70.9157 53.2843 69.92 51.7582ZM64.4108 62.0297C63.3826 62.4519 62.2569 62.5709 61.1637 62.3545C60.0597 62.1488 59.064 61.6185 58.2739 60.8283C57.4729 60.049 56.9317 59.0533 56.7044 57.9601C56.4772 56.8669 56.5854 55.7413 56.9967 54.7022C57.4188 53.674 58.1332 52.7864 59.0532 52.1587C59.9732 51.5309 61.0447 51.1846 62.1703 51.1737H62.4626C63.1012 51.1846 63.7397 51.3253 64.3459 51.5742C65.0386 51.8556 65.6663 52.2669 66.1967 52.7973C66.727 53.3276 67.1492 53.9446 67.4414 54.6481C67.7228 55.33 67.8743 56.066 67.8743 56.8236C67.8743 57.9385 67.5496 59.0208 66.9327 59.9516C66.3157 60.8716 65.439 61.5968 64.4108 62.0297Z"/>
<path d="M73.0588 92H18.9412C8.55059 92 0 83.4494 0 73.0588V18.9412C0 8.55059 8.55059 0 18.9412 0H73.0588C83.4494 0 92 8.55059 92 18.9412V73.0588C92 83.4494 83.4494 92 73.0588 92ZM18.9412 5.41177C11.4729 5.41177 5.41177 11.4729 5.41177 18.9412V73.0588C5.41177 80.5271 11.4729 86.5882 18.9412 86.5882H73.0588C80.5271 86.5882 86.5882 80.5271 86.5882 73.0588V18.9412C86.5882 11.4729 80.5271 5.41177 73.0588 5.41177H18.9412Z"/>
<path d="M46 36.2587C42.4174 36.2587 39.5059 33.3472 39.5059 29.7646C39.5059 26.182 42.4174 23.2705 46 23.2705C49.5826 23.2705 52.4941 26.182 52.4941 29.7646C52.4941 33.3472 49.5826 36.2587 46 36.2587ZM46 25.4352C43.608 25.4352 41.6706 27.3726 41.6706 29.7646C41.6706 32.1566 43.608 34.094 46 34.094C48.392 34.094 50.3294 32.1566 50.3294 29.7646C50.3294 27.3726 48.392 25.4352 46 25.4352Z"/>
<path d="M46 31.9295C44.8094 31.9295 43.8353 30.9554 43.8353 29.7648C43.8353 28.5742 44.8094 27.6001 46 27.6001C47.1906 27.6001 48.1647 28.5742 48.1647 29.7648C48.1647 30.9554 47.1906 31.9295 46 31.9295Z"/>
<path d="M62.2353 58.9881C61.0447 58.9881 60.0706 58.014 60.0706 56.8234C60.0706 55.6328 61.0447 54.6587 62.2353 54.6587C63.4259 54.6587 64.4 55.6328 64.4 56.8234C64.4 58.014 63.4259 58.9881 62.2353 58.9881Z"/>
<path d="M37.3412 56.8235C37.3412 60.9906 33.9426 64.4 29.7647 64.4C25.5868 64.4 22.1882 60.9906 22.1882 56.8235C22.1882 52.6565 25.5868 49.2471 29.7647 49.2471C33.9426 49.2471 37.3412 52.6457 37.3412 56.8235Z"/>
</g>
<defs>
<clipPath id="clip0_1434_4011">
<rect width="92" height="92"/>
</clipPath>
</defs>
</svg>
