<svg viewBox="0 0 92 92" xmlns="http://www.w3.org/2000/svg">
<path d="M53.3582 91.5054H49.3455V53.9536C47.2489 53.8448 44.3597 53.3996 41.2298 52.0345C32.9436 48.4336 27.8776 42.419 26.9847 35.0887C25.9815 26.9175 30.2751 18.5583 37.4077 14.7497C42.4938 12.0293 49.1549 11.7424 54.7827 13.988C59.287 15.7885 62.5574 18.954 64.0019 22.9209C66.0886 28.6487 64.5738 37.1859 58.4443 41.5485C57.2104 42.4289 55.5351 43.2895 53.3683 43.7347V49.5712C60.3103 48.4237 66.6804 43.428 69.6498 36.6121C73.4418 27.8968 71.295 17.1437 64.4433 10.4663C56.2574 2.49297 43.7478 3.67017 35.592 8.14157C24.4968 14.2353 18.6584 28.1145 21.0459 42.7158L17.0934 43.4181C14.4049 27.0362 21.086 11.3863 33.706 4.47146C43.0757 -0.672622 57.5515 -1.92897 67.172 7.43921C75.2676 15.3136 77.7856 28.0254 73.2914 38.3334C69.69 46.6035 61.8451 52.6082 53.3582 53.7854V91.5054ZM46.8376 16.6392C44.1491 16.6392 41.5007 17.2525 39.2435 18.4495C33.6759 21.4272 30.1949 28.2035 30.9673 34.5644C31.6796 40.3515 35.8729 45.1988 42.7848 48.1962C45.3128 49.2943 47.6301 49.6801 49.3556 49.7889V44.0117C48.0815 43.9424 46.6971 43.7248 45.1924 43.3192C42.7045 42.6465 37.508 41.2418 36.3845 36.5132C35.4415 32.5364 37.9093 28.5794 40.7182 26.868C42.9352 25.5128 46.2858 24.8598 48.7637 26.4229C48.7637 26.4229 48.9242 26.5317 49.1048 26.6504C52.0541 28.7575 53.6893 32.4869 53.3683 36.4044V39.471C54.3815 39.1743 55.3144 38.7192 56.1772 38.1158C60.6212 34.9502 61.7548 28.53 60.2501 24.3949C59.2168 21.5558 56.769 19.2409 53.3482 17.8758C51.2817 17.0448 49.0446 16.6392 46.8476 16.6392H46.8376ZM45.4331 29.6577C44.5503 29.6577 43.507 29.9842 42.7446 30.4491C41.1997 31.3889 39.8354 33.6444 40.2768 35.5042C40.8286 37.8289 44.3196 38.7687 46.2056 39.2831C47.3091 39.5798 48.3524 39.7678 49.3556 39.8469V36.1274C49.5763 33.674 48.6132 31.3592 46.8276 30.093L46.647 29.9644C46.326 29.7665 45.9046 29.6775 45.4432 29.6775L45.4331 29.6577Z"/>
</svg>
