<svg viewBox="0 0 92 92" xmlns="http://www.w3.org/2000/svg">
<g clip-path="url(#clip0_2427_3282)">
<path d="M74.59 5C81.43 5 87 10.57 87 17.41V74.59C87 81.43 81.43 87 74.59 87H17.41C10.57 87 5 81.43 5 74.59V17.41C5 10.57 10.57 5 17.41 5H74.59ZM74.59 0H17.41C7.79 0 0 7.79 0 17.41V74.59C0 84.2 7.79 92 17.41 92H74.59C84.2 92 92 84.21 92 74.59V17.41C92 7.8 84.21 0 74.59 0Z"/>
<path d="M31.72 29.7C28.15 29.7 25.24 26.79 25.24 23.22C25.24 19.65 28.15 16.74 31.72 16.74C35.29 16.74 38.2 19.65 38.2 23.22C38.2 26.79 35.29 29.7 31.72 29.7ZM31.72 20.74C30.35 20.74 29.24 21.85 29.24 23.22C29.24 24.59 30.35 25.7 31.72 25.7C33.09 25.7 34.2 24.59 34.2 23.22C34.2 21.85 33.09 20.74 31.72 20.74Z"/>
<path d="M31.72 35.67C24.28 35.67 17.79 30.91 15.56 23.82C15.44 23.43 15.44 23.01 15.56 22.62C17.79 15.53 24.28 10.76 31.72 10.76C39.16 10.76 45.65 15.52 47.88 22.61C48 23 48 23.42 47.88 23.81C45.65 30.9 39.16 35.66 31.72 35.66V35.67ZM19.58 23.22C21.45 28.3 26.25 31.67 31.72 31.67C37.19 31.67 41.99 28.3 43.86 23.22C41.99 18.14 37.19 14.77 31.72 14.77C26.25 14.77 21.45 18.14 19.58 23.22Z"/>
<path fill-rule="evenodd" clip-rule="evenodd" d="M12.8 42.3601V49.5601C12.8 51.5501 14.41 53.1601 16.4 53.1601H16.94L18.34 62.6801C18.6 64.4601 20.14 65.7801 21.94 65.7601H39.7201C41.5201 65.7801 43.06 64.4601 43.32 62.6801L44.6501 53.1601H45.19C47.18 53.1601 48.7901 51.5501 48.7901 49.5601V42.3601H12.8ZM39.68 62.1501H21.9L20.57 53.1501H41.01L39.68 62.1501ZM45.19 49.5501H16.4V45.9501H45.19V49.5501ZM25.4 60.3501L24.5 54.9501H27.2L28.1 60.3501H25.4ZM25.7 73.5001C26.42 74.3501 26.82 75.4301 26.83 76.5401C26.83 77.7301 26.37 78.8601 25.55 79.7201C25.3 79.9901 25.02 80.2401 24.72 80.4601L24.43 80.6601C24.43 80.6601 24.36 80.6701 24.32 80.6601L23.58 79.4501L22.9 78.1901H23.03C23.18 78.0901 23.31 77.9701 23.43 77.8301C23.77 77.4901 23.96 77.0201 23.95 76.5301C23.95 76.0601 23.79 75.7901 23.34 75.1801C22.64 74.3301 22.24 73.2801 22.21 72.1801C22.24 70.9801 22.66 69.8201 23.4 68.8701C23.62 68.5501 23.88 68.2601 24.16 67.9901L24.41 67.7401H24.5L25.42 68.8601L26.34 69.9801L26.2 70.1201C26.03 70.2901 25.87 70.4801 25.73 70.6801C25.35 71.1301 25.13 71.6901 25.1 72.2801C25.1 72.7501 25.26 73.0201 25.73 73.6301L25.71 73.5001H25.7ZM32.9001 73.5001C33.6201 74.3501 34.02 75.4301 34.03 76.5401C34.03 77.7301 33.57 78.8601 32.75 79.7201C32.5 79.9901 32.22 80.2401 31.92 80.4601L31.63 80.6601C31.63 80.6601 31.5601 80.6701 31.5201 80.6601L30.84 79.4001L30.16 78.1401H30.2901C30.4401 78.0401 30.57 77.9201 30.69 77.7801C31 77.4401 31.17 77.0001 31.16 76.5401C31.16 76.0701 31 75.8001 30.55 75.1901C29.85 74.3401 29.45 73.2901 29.42 72.1901C29.45 70.9901 29.8701 69.8301 30.6101 68.8801C30.83 68.5601 31.09 68.2701 31.37 68.0001L31.62 67.7501H31.71L32.6301 68.8701L33.55 69.9901L33.41 70.1301C33.24 70.3001 33.08 70.4901 32.94 70.6901C32.56 71.1401 32.3401 71.7001 32.3101 72.2901C32.3101 72.7601 32.47 73.0301 32.94 73.6401L32.92 73.5101L32.9001 73.5001ZM40.1 73.5001C40.82 74.3501 41.22 75.4301 41.23 76.5401C41.23 77.7301 40.7701 78.8601 39.9501 79.7201C39.7001 79.9901 39.42 80.2401 39.12 80.4601L38.8301 80.6601C38.8301 80.6601 38.7601 80.6701 38.7201 80.6601L38.0401 79.4001L37.3601 78.1401H37.4901C37.6401 78.0401 37.77 77.9201 37.89 77.7801C38.2 77.4401 38.3701 77.0001 38.3601 76.5401C38.3601 76.0701 38.2001 75.8001 37.75 75.1901C37.05 74.3401 36.65 73.2901 36.62 72.1901C36.65 70.9901 37.0701 69.8301 37.8101 68.8801C38.0301 68.5601 38.29 68.2701 38.57 68.0001L38.82 67.7501L39.7401 68.8701L40.66 69.9901L40.5201 70.1301C40.35 70.3001 40.19 70.4901 40.05 70.6901C39.67 71.1401 39.45 71.7001 39.42 72.2901C39.42 72.7601 39.58 73.0301 40.05 73.6401L40.12 73.5101L40.1 73.5001Z"/>
<path d="M69.8301 29.56C70.41 28.99 71.2698 28.8204 72.0098 29.1303L72 29.1401C72.74 29.44 73.2304 30.1699 73.2305 30.9799V58.9301C73.2304 59.7301 72.75 60.46 72 60.7699C71.7601 60.8699 71.5002 60.9203 71.2402 60.9203C70.7203 60.9203 70.2101 60.7202 69.8301 60.3403L62.4297 52.9399H55.2705C54.1605 52.9399 53.2695 52.0399 53.2695 50.9399V38.9604C53.2695 37.8504 54.1705 36.9604 55.2705 36.9604H62.4297L69.8301 29.56Z"/>
<path d="M75.3604 51.9399C75.9204 50.99 77.1299 50.6604 78.0898 51.2104L81.5498 53.2104C82.4997 53.7604 82.8301 54.9899 82.2803 55.9399C81.7303 56.8899 80.4998 57.2203 79.5498 56.6703L76.0898 54.6703C75.1298 54.1203 74.8104 52.8999 75.3604 51.9399Z"/>
<path d="M83.2197 42.9604C84.3297 42.9604 85.2197 43.8504 85.2197 44.9604C85.2195 46.0702 84.3196 46.9604 83.2197 46.9604H79.2305C78.1206 46.9604 77.2307 46.0702 77.2305 44.9604C77.2305 43.8504 78.1305 42.9604 79.2305 42.9604H83.2197Z"/>
<path d="M79.5498 33.2397C80.5098 32.6897 81.7303 33.0101 82.2803 33.9701C82.8301 34.9301 82.5097 36.1497 81.5498 36.6996L78.0898 38.6996C77.1299 39.2496 75.9104 38.9299 75.3604 37.9701C74.8104 37.0101 75.1298 35.7897 76.0898 35.2397L79.5498 33.2397Z"/>
</g>
<defs>
<clipPath id="clip0_2427_3282">
<rect width="92" height="92"/>
</clipPath>
</defs>
</svg>
