<svg viewBox="0 0 92 92" xmlns="http://www.w3.org/2000/svg">
<path d="M76.663 77.95H15.337C7.13707 77.95 0.5 71.23 0.5 62.95V28.5C0.5 20.22 7.14696 13.5 15.337 13.5H76.663C84.8629 13.5 91.5 20.22 91.5 28.5V62.94C91.5 71.23 84.853 77.94 76.663 77.94V77.95ZM15.337 17.33C9.23402 17.33 4.28837 22.33 4.28837 28.5V62.94C4.28837 69.11 9.23402 74.11 15.337 74.11H76.6532C82.7561 74.11 87.7017 69.11 87.7017 62.94V28.5C87.7017 22.33 82.7561 17.33 76.6532 17.33H15.337Z"/>
<path d="M7.78003 30.9602H24.9V34.4002H11.88V44.9602H23.91V48.3602H11.88V62.7402H7.78003V30.9502V30.9602Z"/>
<path d="M34.85 30.9602V62.7502H30.75V30.9602H34.85Z"/>
<path d="M42.02 31.3902C43.81 31.0102 46.64 30.7302 49.52 30.7302C53.62 30.7302 56.26 31.4402 58.25 33.0402C59.9 34.2702 60.89 36.1502 60.89 38.6502C60.89 41.7202 58.86 44.4002 55.51 45.6302V45.7202C58.53 46.4702 62.07 48.9702 62.07 53.6902C62.07 56.4302 60.99 58.5002 59.38 60.0602C57.16 62.0902 53.58 63.0302 48.39 63.0302C45.56 63.0302 43.39 62.8402 42.02 62.6502V31.3802V31.3902ZM46.12 44.4002H49.85C54.19 44.4002 56.73 42.1402 56.73 39.0702C56.73 35.3402 53.9 33.8802 49.75 33.8802C47.86 33.8802 46.78 34.0202 46.12 34.1602V44.3902V44.4002ZM46.12 59.6402C46.92 59.7802 48.1 59.8302 49.56 59.8302C53.81 59.8302 57.72 58.2702 57.72 53.6502C57.72 49.3102 53.99 47.5202 49.51 47.5202H46.11V59.6402H46.12Z"/>
<path d="M67.01 57.7502C68.85 58.8802 71.54 59.8302 74.37 59.8302C78.57 59.8302 81.02 57.6102 81.02 54.4102C81.02 51.4402 79.32 49.7402 75.03 48.0902C69.84 46.2502 66.63 43.5602 66.63 39.0802C66.63 34.1302 70.73 30.4502 76.91 30.4502C80.16 30.4502 82.52 31.2002 83.94 32.0102L82.81 35.3602C81.77 34.7902 79.65 33.8502 76.77 33.8502C72.43 33.8502 70.78 36.4402 70.78 38.6102C70.78 41.5802 72.71 43.0402 77.1 44.7402C82.48 46.8202 85.21 49.4102 85.21 54.0802C85.21 58.9802 81.58 63.2302 74.08 63.2302C71.01 63.2302 67.67 62.3302 65.97 61.2002L67.01 57.7602V57.7502Z"/>
</svg>
