<svg viewBox="0 0 92 92" xmlns="http://www.w3.org/2000/svg">
<g clip-path="url(#clip0_2427_3281)">
<path d="M85.9802 21.0498C87.2101 20.36 88.7701 20.8298 89.4402 22.0596C90.1301 23.2894 89.6601 24.8494 88.4304 25.5195L80.9304 29.6104C79.7004 30.3004 78.1405 29.8296 77.4705 28.5996C76.8006 27.3496 77.2503 25.8096 78.4802 25.1396L85.9802 21.0498Z"/>
<path d="M2.53004 22.0596C3.20011 20.8298 4.76009 20.3799 5.99 21.0498L13.49 25.1396C14.72 25.8096 15.1697 27.3696 14.4998 28.5996C13.8298 29.8296 12.2698 30.2803 11.0398 29.6104L3.56031 25.5195C2.31031 24.8495 1.86004 23.2896 2.53004 22.0596Z"/>
<path d="M21.5603 5.54004C22.7702 4.80023 24.35 5.1799 25.0701 6.38965L29.2703 13.3096C30.0103 14.5196 29.6297 16.0803 28.4197 16.8203C27.2097 17.56 25.6298 17.1796 24.9099 15.9697L20.7097 9.0498C19.97 7.83984 20.3504 6.25998 21.5603 5.54004Z"/>
<path d="M66.9402 6.38965C67.6803 5.19986 69.2401 4.82009 70.45 5.54004C71.6399 6.28006 72.0196 7.83983 71.2996 9.0498L67.1003 15.9697C66.3604 17.1597 64.7996 17.5603 63.5896 16.8203C62.3997 16.1003 62.02 14.5195 62.74 13.3096L66.9402 6.38965Z"/>
<path d="M45.9998 0C47.4097 0 48.5495 1.13989 48.5496 2.5498V10.4102C48.5495 11.8201 47.4097 12.96 45.9998 12.96C44.5899 12.9599 43.45 11.82 43.45 10.4102V2.5498C43.4501 1.13996 44.5899 0.000108965 45.9998 0Z"/>
<path d="M91.8201 88.5L87.2701 77.02C86.8901 76.04 85.9501 75.41 84.9001 75.41H79.5801L74.1101 35.48C73.1701 28.24 66.9701 22.78 59.6601 22.78H32.3301C25.0301 22.78 18.8201 28.23 17.9001 35.46L12.4301 75.39H7.11005C6.06005 75.39 5.12005 76.02 4.74005 77L0.180055 88.5C-0.489945 90.18 0.760055 92 2.55005 92H89.4401C91.2301 92 92.48 90.19 91.8101 88.5H91.8201ZM22.9601 36.13C23.5601 31.42 27.6001 27.89 32.3401 27.89H59.6701C64.41 27.89 68.4301 31.44 69.0501 36.15L74.4301 75.39H17.5901L22.9701 36.13H22.9601ZM6.32006 86.89L8.84005 80.52H83.1601L85.6801 86.89H6.32006Z"/>
<path d="M42.1801 37.1799V42.5399L43.4301 58.1199H48.5401L49.8201 42.5399V37.1799H42.1801Z"/>
<path d="M46 68.63C48.0986 68.63 49.7999 66.9287 49.7999 64.83C49.7999 62.7314 48.0986 61.03 46 61.03C43.9013 61.03 42.2 62.7314 42.2 64.83C42.2 66.9287 43.9013 68.63 46 68.63Z"/>
</g>
<defs>
<clipPath id="clip0_2427_3281">
<rect width="92" height="92"/>
</clipPath>
</defs>
</svg>
