<svg viewBox="0 0 92 92" xmlns="http://www.w3.org/2000/svg">
<path d="M10.5 64C11.8807 64 13 65.1193 13 66.5C13 67.8807 11.8807 69 10.5 69C9.11929 69 8 67.8807 8 66.5C8 65.1193 9.11929 64 10.5 64Z"/>
<path d="M18.5 64C19.8807 64 21 65.1193 21 66.5C21 67.8807 19.8807 69 18.5 69C17.1193 69 16 67.8807 16 66.5C16 65.1193 17.1193 64 18.5 64Z"/>
<path d="M26.5 64C27.8807 64 29 65.1193 29 66.5C29 67.8807 27.8807 69 26.5 69C25.1193 69 24 67.8807 24 66.5C24 65.1193 25.1193 64 26.5 64Z"/>
<path fill-rule="evenodd" clip-rule="evenodd" d="M87 57C89.7614 57 92 59.2386 92 62V72C92 74.7614 89.7614 77 87 77H80.9131C80.9685 77.1565 81 77.3245 81 77.5V81.5C81 82.3284 80.3284 83 79.5 83C78.6716 83 78 82.3284 78 81.5V77.5C78 77.3245 78.0315 77.1565 78.0869 77H13.9131C13.9685 77.1565 14 77.3245 14 77.5V81.5C14 82.3284 13.3284 83 12.5 83C11.6716 83 11 82.3284 11 81.5V77.5C11 77.3245 11.0315 77.1565 11.0869 77H5L4.74316 76.9932C2.1011 76.8595 0 74.6753 0 72V62C0 59.2386 2.23858 57 5 57H87ZM5 60C3.89543 60 3 60.8954 3 62V72C3 73.1046 3.89543 74 5 74H87C88.1046 74 89 73.1046 89 72V62C89 60.8954 88.1046 60 87 60H5Z"/>
<path d="M10.5 40C11.8807 40 13 41.1193 13 42.5C13 43.8807 11.8807 45 10.5 45C9.11929 45 8 43.8807 8 42.5C8 41.1193 9.11929 40 10.5 40Z"/>
<path d="M18.5 40C19.8807 40 21 41.1193 21 42.5C21 43.8807 19.8807 45 18.5 45C17.1193 45 16 43.8807 16 42.5C16 41.1193 17.1193 40 18.5 40Z"/>
<path d="M26.5 40C27.8807 40 29 41.1193 29 42.5C29 43.8807 27.8807 45 26.5 45C25.1193 45 24 43.8807 24 42.5C24 41.1193 25.1193 40 26.5 40Z"/>
<path fill-rule="evenodd" clip-rule="evenodd" d="M87 33C89.7614 33 92 35.2386 92 38V48C92 50.7614 89.7614 53 87 53H5L4.74316 52.9932C2.1011 52.8595 0 50.6753 0 48V38C0 35.2386 2.23858 33 5 33H87ZM5 36C3.89543 36 3 36.8954 3 38V48C3 49.1046 3.89543 50 5 50H87C88.1046 50 89 49.1046 89 48V38C89 36.8954 88.1046 36 87 36H5Z"/>
<path d="M10.5 16C11.8807 16 13 17.1193 13 18.5C13 19.8807 11.8807 21 10.5 21C9.11929 21 8 19.8807 8 18.5C8 17.1193 9.11929 16 10.5 16Z"/>
<path d="M18.5 16C19.8807 16 21 17.1193 21 18.5C21 19.8807 19.8807 21 18.5 21C17.1193 21 16 19.8807 16 18.5C16 17.1193 17.1193 16 18.5 16Z"/>
<path d="M26.5 16C27.8807 16 29 17.1193 29 18.5C29 19.8807 27.8807 21 26.5 21C25.1193 21 24 19.8807 24 18.5C24 17.1193 25.1193 16 26.5 16Z"/>
<path fill-rule="evenodd" clip-rule="evenodd" d="M87 9C89.7614 9 92 11.2386 92 14V24C92 26.7614 89.7614 29 87 29H5L4.74316 28.9932C2.1011 28.8595 0 26.6753 0 24V14C0 11.2386 2.23858 9 5 9H87ZM5 12C3.89543 12 3 12.8954 3 14V24C3 25.1046 3.89543 26 5 26H87C88.1046 26 89 25.1046 89 24V14C89 12.8954 88.1046 12 87 12H5Z"/>
</svg>
