<svg viewBox="0 0 92 92" xmlns="http://www.w3.org/2000/svg">
<path d="M60.8711 46.112C62.5067 46.112 63.8253 44.7933 63.8253 43.1578V41.5529H66.5649C70.8173 41.5529 74.2724 38.0978 74.2724 33.8453V25.8209H81.8164C83.452 25.8209 84.7707 24.5022 84.7707 22.8667V10.6409C84.7707 4.77334 79.9969 0.00978201 74.1395 0.00978201H17.6311C11.7738 -0.000440211 7 4.77334 7 10.6307V89.0453C7 90.6809 8.31867 91.9996 9.95422 91.9996H67.0044C76.0307 91.9996 83.3804 84.6498 83.3804 75.6236C83.3804 73.988 82.0618 72.6693 80.4262 72.6693H65.2462C70.4596 71.9436 74.6609 68.0489 75.8569 63.0093H78.0956C81.4076 63.0093 84.1062 60.3107 84.1062 56.9987V55.2098C84.1062 51.8978 81.4076 49.1991 78.0956 49.1991H48.032C46.3964 49.1991 45.0778 50.5178 45.0778 52.1533V60.1062C45.0778 66.5156 49.8516 71.8311 56.0258 72.6796H38.4947V25.8107H47.48V33.8351C47.48 38.0876 50.9351 41.5427 55.1876 41.5427H57.9169V43.1476C57.9169 44.7831 59.2356 46.1018 60.8711 46.1018V46.112ZM50.976 60.0858V55.0871H70.2756V60.0858C70.2756 63.8271 67.2293 66.8733 63.488 66.8733H57.7738C54.0324 66.8733 50.9862 63.8271 50.9862 60.0858H50.976ZM77.0427 78.5778C75.7649 82.912 71.7476 86.0911 66.9942 86.0911H12.9084V25.8107C12.9084 25.8107 12.9698 25.8107 13.0004 25.8107H32.5658V75.1533C32.5658 75.2351 32.5658 75.3067 32.576 75.3885C32.576 75.4702 32.5658 75.5418 32.5658 75.6236C32.5658 77.2591 33.8844 78.5778 35.52 78.5778H77.0427ZM13.0004 19.9022C13.0004 19.9022 12.9391 19.9022 12.9084 19.9022V10.6307C12.9084 8.024 15.0244 5.908 17.6311 5.908H74.1395C76.7462 5.908 78.8622 8.024 78.8622 10.6307V19.9022H13.0004ZM55.1773 35.6445C54.1858 35.6445 53.3782 34.8369 53.3782 33.8453V25.8209H68.364V33.8453C68.364 34.8369 67.5564 35.6445 66.5649 35.6445H55.1876H55.1773Z"/>
</svg>
