<svg viewBox="0 0 92 92" xmlns="http://www.w3.org/2000/svg">
<g clip-path="url(#clip0_2652_3591)">
<path d="M16.4834 57.9375C16.8696 57.7711 17.3082 57.7275 17.707 57.7773C18.052 57.8206 18.4088 57.9394 18.6934 58.1543L18.8164 58.2568C20.3059 59.6766 20.7561 61.0364 20.582 62.3604C20.416 63.6217 19.684 64.775 19.0459 65.7891C18.5404 66.5968 18.1234 67.2799 18.0039 67.9277C17.9475 68.2339 17.962 68.5195 18.0664 68.7988C18.1588 69.0455 18.3308 69.3144 18.6309 69.6016L18.7686 69.7266L18.7715 69.7285C19.0929 70.0119 19.2644 70.4134 19.1611 70.8369C19.0638 71.235 18.7529 71.5295 18.3848 71.707C18.0059 71.8897 17.5671 71.9457 17.165 71.9053C16.7668 71.8651 16.3501 71.7243 16.0391 71.4512L15.791 71.2256C14.6065 70.0962 14.2284 68.972 14.3789 67.8359C14.53 66.6971 15.2132 65.6221 15.8242 64.6514C16.3581 63.791 16.8266 63.0223 16.9551 62.249C17.0665 61.5778 16.9243 60.857 16.1309 60.0391H16.1279L15.9834 59.9023C15.6677 59.6029 15.531 59.1876 15.6592 58.7744C15.7796 58.3871 16.1011 58.1024 16.4834 57.9375Z"/>
<path d="M27.3213 57.9375C27.7075 57.7711 28.1461 57.7275 28.5449 57.7773C28.8899 57.8206 29.2467 57.9394 29.5312 58.1543L29.6543 58.2568C31.1438 59.6766 31.594 61.0364 31.4199 62.3604C31.2539 63.6217 30.5219 64.775 29.8838 65.7891C29.3783 66.5968 28.9612 67.2799 28.8418 67.9277C28.7854 68.234 28.7999 68.5195 28.9043 68.7988C28.9967 69.0455 29.1687 69.3144 29.4688 69.6016L29.6064 69.7266L29.6094 69.7285C29.9308 70.0119 30.1023 70.4134 29.999 70.8369C29.9017 71.235 29.5908 71.5295 29.2227 71.707C28.8438 71.8897 28.405 71.9457 28.0029 71.9053C27.6048 71.8651 27.188 71.7243 26.877 71.4512L26.6289 71.2256C25.4443 70.0962 25.0663 68.972 25.2168 67.8359C25.3679 66.6971 26.0501 65.6221 26.6611 64.6514C27.1951 63.7908 27.6645 63.0224 27.793 62.249C27.9044 61.5778 27.7622 60.857 26.9688 60.0391H26.9658L26.8213 59.9023C26.5056 59.6029 26.3689 59.1876 26.4971 58.7744C26.6175 58.3871 26.9389 58.1024 27.3213 57.9375Z"/>
<path d="M38.1699 57.9375C38.556 57.7712 38.9939 57.7275 39.3926 57.7773C39.7376 57.8206 40.0943 57.9394 40.3789 58.1543L40.502 58.2568C41.9915 59.6766 42.4416 61.0364 42.2676 62.3604C42.1015 63.6217 41.3696 64.775 40.7314 65.7891C40.2259 66.5968 39.8089 67.2799 39.6895 67.9277C39.6331 68.2339 39.6476 68.5195 39.752 68.7988C39.8444 69.0456 40.0171 69.3142 40.3174 69.6016L40.4541 69.7266L40.457 69.7285L40.5703 69.8408C40.817 70.1131 40.938 70.4664 40.8477 70.8369C40.7504 71.2351 40.4385 71.5295 40.0703 71.707C39.6914 71.8896 39.2527 71.9457 38.8506 71.9053C38.4524 71.8651 38.0356 71.7243 37.7246 71.4512L37.4775 71.2256C36.2927 70.096 35.9139 68.9721 36.0645 67.8359C36.2155 66.6971 36.8987 65.6221 37.5098 64.6514C38.0442 63.79 38.5159 63.0214 38.6455 62.248C38.7577 61.5775 38.6152 60.8572 37.8174 60.0391H37.8145L37.6689 59.9023C37.3533 59.6028 37.2174 59.1876 37.3457 58.7744C37.4662 58.3871 37.7875 58.1023 38.1699 57.9375Z"/>
<path d="M49.0068 57.9375C49.3931 57.7711 49.8316 57.7275 50.2305 57.7773C50.5754 57.8206 50.9322 57.9394 51.2168 58.1543L51.3398 58.2568C52.8294 59.6766 53.2795 61.0364 53.1055 62.3604C52.9394 63.6217 52.2075 64.775 51.5693 65.7891C51.0638 66.5968 50.6468 67.2799 50.5273 67.9277C50.471 68.2339 50.4855 68.5195 50.5898 68.7988C50.6823 69.0456 50.855 69.3142 51.1553 69.6016L51.292 69.7266L51.2949 69.7285C51.6164 70.0119 51.7888 70.4134 51.6855 70.8369C51.5883 71.2351 51.2764 71.5295 50.9082 71.707L50.9023 71.71C50.5271 71.8842 50.0914 71.9411 49.6904 71.9023C49.2938 71.8639 48.8753 71.7259 48.5625 71.4512L48.3145 71.2246C47.13 70.0948 46.7543 68.9707 46.9062 67.835C47.0586 66.6972 47.7414 65.6227 48.3467 64.6533C48.8816 63.7912 49.3537 63.022 49.4834 62.248C49.5955 61.5775 49.453 60.8571 48.6553 60.0391H48.6523L48.5068 59.9023C48.1912 59.6029 48.0545 59.1876 48.1826 58.7744C48.303 58.3872 48.6245 58.1024 49.0068 57.9375Z"/>
<path d="M59.8447 57.9375C60.231 57.7711 60.6695 57.7275 61.0684 57.7773C61.4133 57.8206 61.7701 57.9394 62.0547 58.1543L62.1777 58.2568C63.6672 59.6766 64.1174 61.0364 63.9434 62.3604C63.7773 63.6217 63.0454 64.775 62.4072 65.7891C61.9017 66.5968 61.4847 67.2799 61.3652 67.9277C61.3088 68.2339 61.3234 68.5195 61.4277 68.7988C61.5201 69.0455 61.6922 69.3144 61.9922 69.6016L62.1299 69.7266L62.1328 69.7285C62.4543 70.0119 62.6258 70.4134 62.5225 70.8369C62.4251 71.235 62.1142 71.5295 61.7461 71.707L61.7393 71.71C61.3641 71.884 60.9291 71.9411 60.5283 71.9023C60.1317 71.8639 59.7132 71.7259 59.4004 71.4512L59.1523 71.2256C57.9678 70.0962 57.5897 68.972 57.7402 67.8359C57.8913 66.6971 58.5745 65.6221 59.1855 64.6514C59.72 63.79 60.1907 63.0214 60.3203 62.248C60.4325 61.5775 60.291 60.8572 59.4932 60.0391H59.4893L59.3447 59.9023C59.0291 59.6029 58.8923 59.1876 59.0205 58.7744C59.1409 58.3871 59.4624 58.1024 59.8447 57.9375Z"/>
<path d="M73.499 44.6934C74.7877 44.6936 75.8191 45.7378 75.8193 47.0127C75.8191 48.2894 74.7757 49.3328 73.499 49.333C72.2223 49.3329 71.18 48.2894 71.1797 47.0127C71.1799 45.7359 72.2222 44.6935 73.499 44.6934Z"/>
<path d="M81.1016 44.6934C82.3902 44.6936 83.4216 45.7378 83.4219 47.0127C83.4216 48.2894 82.3783 49.3328 81.1016 49.333C79.8249 49.3328 78.7825 48.2894 78.7822 47.0127C78.7825 45.736 79.8248 44.6935 81.1016 44.6934Z"/>
<path d="M81.1826 34.5527C82.1662 34.5529 82.9667 35.3533 82.9668 36.3369C82.9665 37.3204 82.1661 38.1209 81.1826 38.1211H11.7686C10.7849 38.1211 9.98464 37.3205 9.98438 36.3369C9.98446 35.3532 10.7848 34.5527 11.7686 34.5527H81.1826Z"/>
<path d="M81.1826 28.5381C82.1662 28.5383 82.9666 29.3378 82.9668 30.3213C82.9665 31.3048 82.1661 32.1053 81.1826 32.1055H11.7686C10.7849 32.1055 9.98464 31.3049 9.98438 30.3213C9.98459 29.3376 10.7849 28.5381 11.7686 28.5381H81.1826Z"/>
<path fill-rule="evenodd" clip-rule="evenodd" d="M84.9941 21.0049C86.8029 21.005 88.4558 21.7058 89.7021 22.8311L89.9463 23.0615L89.9482 23.0635C91.2097 24.3254 92.0049 26.0887 92.0049 28.0166V48.7617C92.0047 50.691 91.2087 52.4435 89.9492 53.7139L89.9482 53.7158C88.6864 54.9776 86.9223 55.7724 84.9941 55.7725H7.02637C5.09717 55.7724 3.34458 54.9761 2.07422 53.7168C0.801219 52.4545 0.00599361 50.6899 0.00585938 48.7617V28.0264C0.00596155 26.097 0.802019 24.3446 2.06152 23.0742L2.06348 23.0732C3.33472 21.8021 5.08714 21.005 7.02637 21.0049H84.9941ZM7.02637 24.5938C6.08503 24.5939 5.22832 24.9808 4.59766 25.6025C3.9718 26.2196 3.58409 27.0834 3.58398 28.0264V48.7617C3.58412 49.703 3.97101 50.5608 4.59277 51.1914C5.20755 51.8146 6.07057 52.1953 7.0166 52.1953H9.49902V43.6162C9.49902 42.8022 10.0517 42.1203 10.793 41.9043V41.8223H65.8262C66.8097 41.8226 67.6094 42.6228 67.6094 43.6064V52.1846H84.9736C85.915 52.1845 86.7727 51.7975 87.4033 51.1758C88.0196 50.558 88.4061 49.6938 88.4062 48.752V28.0264C88.4062 27.0853 88.0199 26.2283 87.3984 25.5977C86.7837 24.9741 85.9199 24.5938 84.9736 24.5938H7.02637ZM13.0869 51.8711H64.042V45.4004H13.0869V51.8711Z"/>
</g>
<defs>
<clipPath id="clip0_2652_3591">
<rect width="92" height="92"/>
</clipPath>
</defs>
</svg>
