<svg viewBox="0 0 92 92" xmlns="http://www.w3.org/2000/svg">
<g clip-path="url(#clip0_1434_4002)">
<path d="M73.0588 92H18.9412C8.55059 92 0 83.4494 0 73.0588V18.9412C0 8.55059 8.55059 0 18.9412 0H73.0588C83.4494 0 92 8.55059 92 18.9412V73.0588C92 83.4494 83.4494 92 73.0588 92ZM18.9412 5.41177C11.4729 5.41177 5.41177 11.4729 5.41177 18.9412V73.0588C5.41177 80.5271 11.4729 86.5882 18.9412 86.5882H73.0588C80.5271 86.5882 86.5882 80.5271 86.5882 73.0588V18.9412C86.5882 11.4729 80.5271 5.41177 73.0588 5.41177H18.9412Z"/>
<path d="M35.512 58.1006C34.8951 60.3518 33.6179 59.6375 32.449 59.7241C31.7455 59.7782 30.9986 59.5509 30.3384 59.7565C28.5958 60.2977 28.0546 58.9556 27.5568 57.5918C27.0589 56.2497 28.033 55.5029 28.6824 54.7128C29.3859 53.8577 29.4833 52.7537 28.7473 51.9853C28.1304 51.3358 28.1304 48.4893 28.7473 47.7857C29.5699 46.8333 29.4725 45.7076 28.4335 44.9716C28.1845 44.7984 28.0655 44.6036 28.1196 44.3655C28.4335 43.0775 27.297 41.3674 29.0288 40.4582C29.4184 40.2634 29.3643 39.3758 29.1695 39.1377C27.9572 37.6765 28.4876 35.8257 28.217 34.1589C28.152 32.3947 28.9963 31.9401 30.5224 32.189C31.3991 32.3297 32.2866 32.373 33.1633 32.2323C34.657 31.9834 35.5229 32.2973 35.3822 34.0507C35.3497 35.133 35.3064 36.2045 35.2739 37.2869L34.7977 38.142C34.0184 39.0511 34.0617 39.9387 34.841 40.8046C35.5445 41.573 35.4796 44.2897 34.7544 45.069C34.0184 45.87 34.1266 46.8549 34.6353 47.6234C35.5662 49.0413 35.4904 50.7406 34.5379 52.245C34.105 52.9269 33.8777 54.0201 34.7869 54.7453C34.7977 55.1133 34.9925 55.2864 35.2847 55.3514C35.9883 56.2389 35.8151 56.91 35.4904 58.1222L35.512 58.1006Z"/>
<path d="M49.2038 38.1314C48.4245 39.0298 48.4678 39.9173 49.2471 40.7832C49.9398 41.5517 49.8748 44.2684 49.1605 45.0476C48.4245 45.8486 48.5327 46.8335 49.0522 47.602C49.9831 49.0199 49.9073 50.7192 48.9548 52.2128C48.5219 52.8947 48.2946 53.9879 49.1929 54.7239C49.2038 55.0919 49.3986 55.2651 49.6908 55.3408C50.3835 56.2284 50.2212 56.8994 49.8965 58.1008C49.2903 60.3629 48.0023 59.6378 46.8334 59.7244C46.1299 59.7785 45.3831 59.5512 44.7336 59.7568C42.9911 60.298 42.4391 58.9559 41.9412 57.5921C41.4541 56.25 42.4174 55.4924 43.0776 54.7131C43.792 53.8688 43.8786 52.754 43.1426 51.9855C42.5256 51.3361 42.5256 48.4895 43.1426 47.786C43.9652 46.8444 43.8569 45.7079 42.8287 44.9719C42.5798 44.7987 42.4607 44.6039 42.5148 44.3658C42.8287 43.0778 41.6922 41.3568 43.4348 40.4476C43.8245 40.242 43.7703 39.3653 43.5755 39.1272C42.3741 37.6552 42.8936 35.8152 42.6122 34.1592C42.5473 32.3949 43.3915 31.9295 44.9176 32.1785C45.7943 32.3192 46.6819 32.3625 47.5586 32.2218C49.0522 31.9728 49.9181 32.2867 49.7882 34.0401C49.7558 35.1117 49.7233 36.194 49.68 37.2655L49.2038 38.1206V38.1314Z"/>
<path d="M63.599 38.1314C62.8197 39.0298 62.863 39.9173 63.6423 40.7832C64.335 41.5517 64.2701 44.2684 63.5557 45.0476C62.8197 45.8486 62.928 46.8335 63.4475 47.602C64.3783 49.0199 64.3026 50.7192 63.3501 52.2128C62.9171 52.8947 62.6898 53.9879 63.5882 54.7239C63.599 55.0919 63.7938 55.2651 64.0861 55.3408C64.7788 56.2284 64.6164 56.8994 64.2917 58.1008C63.6856 60.3629 62.3976 59.6378 61.2287 59.7244C60.5251 59.7785 59.7783 59.5512 59.1289 59.7568C57.3863 60.298 56.8343 58.9559 56.3364 57.5921C55.8494 56.25 56.8127 55.4924 57.4729 54.7131C58.1873 53.8688 58.2738 52.754 57.5378 51.9855C56.9209 51.3361 56.9209 48.4895 57.5378 47.786C58.3604 46.8444 58.2522 45.7079 57.224 44.9719C56.975 44.7987 56.856 44.6039 56.9101 44.3658C57.224 43.0778 56.0875 41.3568 57.8301 40.4476C58.2197 40.242 58.1656 39.3653 57.9708 39.1272C56.7694 37.6552 57.2889 35.8152 57.0075 34.1592C56.9426 32.3949 57.7868 31.9295 59.3129 32.1785C60.1896 32.3192 61.0771 32.3625 61.9538 32.2218C63.4475 31.9728 64.3134 32.2867 64.1835 34.0401C64.151 35.1117 64.1186 36.194 64.0753 37.2655L63.599 38.1206V38.1314Z"/>
</g>
<defs>
<clipPath id="clip0_1434_4002">
<rect width="92" height="92"/>
</clipPath>
</defs>
</svg>
