<svg viewBox="0 0 92 92" xmlns="http://www.w3.org/2000/svg">
<path d="M51 73C52.6569 73 54 74.3431 54 76C54 77.6569 52.6569 79 51 79H40C38.3431 79 37 77.6569 37 76C37 74.3431 38.3431 73 40 73H51Z"/>
<path d="M61 61C62.6569 61 64 62.3431 64 64C64 65.6569 62.6569 67 61 67H29C27.3431 67 26 65.6569 26 64C26 62.3431 27.3431 61 29 61H61Z"/>
<path d="M45.5 13C46.8807 13 48 14.1193 48 15.5V48H69C70.6569 48 72 49.3431 72 51C72 52.6569 70.6569 54 69 54H23C21.3431 54 20 52.6569 20 51C20 49.3431 21.3431 48 23 48H43V15.5C43 14.1193 44.1193 13 45.5 13Z"/>
</svg>
