<svg viewBox="0 0 92 92" xmlns="http://www.w3.org/2000/svg">
<g clip-path="url(#clip0_2652_3748)">
<path fill-rule="evenodd" clip-rule="evenodd" d="M46.8701 47.7705C52.274 47.7706 56.9034 51.6608 57.9561 56.8506H78.3555C79.1753 56.8508 79.8398 57.515 79.8398 58.335C79.8398 59.1549 79.1754 59.82 78.3555 59.8203H15.4053C14.5851 59.8203 13.9199 59.1551 13.9199 58.335C13.92 57.5149 14.5852 56.8506 15.4053 56.8506H35.7832C36.8358 51.6607 41.4661 47.7705 46.8701 47.7705ZM46.8701 50.7402C43.0903 50.7402 39.8202 53.3198 38.8301 56.8496H54.9102C53.9201 53.3198 50.6499 50.7403 46.8701 50.7402Z"/>
<path d="M64.6338 40.2314C65.2714 39.7157 66.2069 39.8145 66.7227 40.4521C67.2384 41.0898 67.1396 42.0252 66.502 42.541L59.4814 48.2197C58.8438 48.7355 57.9084 48.6367 57.3926 47.999C56.877 47.3614 56.9759 46.4269 57.6133 45.9111L64.6338 40.2314Z"/>
<path d="M25.5996 40.4482C26.1153 39.8107 27.0498 39.7119 27.6875 40.2275L34.709 45.9053C35.3466 46.4208 35.4459 47.3554 34.9307 47.9932C34.415 48.6309 33.4795 48.7305 32.8418 48.2148L25.8203 42.5371C25.1826 42.0214 25.0839 41.086 25.5996 40.4482Z"/>
<path d="M46.875 32.21C47.6951 32.21 48.3604 32.8752 48.3604 33.6953V42.7246C48.3604 43.5448 47.6951 44.21 46.875 44.21C46.0549 44.21 45.3896 43.5447 45.3896 42.7246V33.6953C45.3896 32.8752 46.0549 32.21 46.875 32.21Z"/>
<path fill-rule="evenodd" clip-rule="evenodd" d="M74.2822 0C84.0511 2.06939e-05 92 7.94999 92 17.71V74.2803C91.9998 84.0501 84.051 91.9902 74.2822 91.9902L74.2724 92H17.7081C7.93915 92 2.06881e-05 84.05 0 74.29V17.7197C0.000147942 7.94994 7.9491 0.000147967 17.7178 0H74.2822ZM17.7081 4.9502C10.6689 4.95022 4.94969 10.68 4.94967 17.71V74.2803C4.94982 81.3201 10.6789 87.04 17.7081 87.04H74.2724C81.3114 87.0399 87.0306 81.3201 87.0308 74.2803V17.71C87.0308 10.6701 81.3015 4.95034 74.2724 4.9502H17.7081Z"/>
</g>
<defs>
<clipPath id="clip0_2652_3748">
<rect width="92" height="92"/>
</clipPath>
</defs>
</svg>
