<svg viewBox="0 0 92 92" xmlns="http://www.w3.org/2000/svg">
<g clip-path="url(#clip0_1451_4660)">
<path d="M74.1111 92H17.8889C8.07556 92 0 83.9244 0 74.1111V17.8889C0 8.07556 8.07556 0 17.8889 0H74.1111C83.9244 0 92 8.07556 92 17.8889V74.1111C92 83.9244 83.9244 92 74.1111 92ZM17.8889 5.11111C10.8356 5.11111 5.11111 10.8356 5.11111 17.8889V74.1111C5.11111 81.1645 10.8356 86.8889 17.8889 86.8889H74.1111C81.1645 86.8889 86.8889 81.1645 86.8889 74.1111V17.8889C86.8889 10.8356 81.1645 5.11111 74.1111 5.11111H17.8889Z"/>
<path d="M72.8125 70.7988C73.4974 70.7988 74.0297 71.1369 75.1133 71.8115L76.1348 72.4453C77.1263 73.0689 77.6787 73.4061 77.9854 73.9785C78.3021 74.5508 78.3027 75.164 78.3027 76.4004V77.1777C78.3027 79.2733 78.302 80.326 77.5967 81.0518C76.8811 81.7877 75.8692 81.7881 73.835 81.7881L73.8252 81.7773V81.0107C75.6446 81.0107 76.5547 81.0106 77.0352 80.5098C77.5254 79.9986 77.5254 79.0582 77.5254 77.168V76.3906C77.5254 75.2866 77.5252 74.7346 77.3105 74.3359C77.0959 73.9373 76.6358 73.6608 75.7363 73.0986L74.7041 72.4648C72.7826 71.269 72.8229 71.269 70.9014 72.4648L69.8789 73.0986C68.9695 73.6709 68.5097 73.9473 68.2949 74.3457C68.1723 74.5706 68.1103 74.8369 68.0898 75.2969L67.3232 75.2559C67.3539 74.6836 67.4362 74.3158 67.6201 73.9785C67.937 73.4061 68.4791 73.0684 69.4707 72.4551L70.5029 71.8115C71.5863 71.137 72.1278 70.799 72.8125 70.7988Z"/>
<path d="M67.7021 79.4775C68.7548 79.4777 69.6239 80.3365 69.624 81.3994L69.6133 81.3896H68.8467C68.8467 80.756 68.3358 80.2443 67.7021 80.2441V79.4775Z"/>
<path d="M67.7021 77.9443C69.6033 77.9445 71.1572 79.488 71.1572 81.3994L71.1465 81.3896H70.3799C70.3799 79.9075 69.174 78.7111 67.7021 78.7109V77.9443Z"/>
<path d="M67.7021 76.4111C70.4517 76.4113 72.6903 78.6498 72.6904 81.3994L72.6797 81.3896H71.9131C71.9131 79.0693 70.0224 77.1779 67.7021 77.1777V76.4111Z"/>
<path fill-rule="evenodd" clip-rule="evenodd" d="M52.6035 31.1064C59.3809 31.1064 64.8701 36.5957 64.8701 43.373C64.87 50.1503 59.3808 55.6396 52.6035 55.6396H36.248C29.4708 55.6396 23.9815 50.1503 23.9814 43.373C23.9814 36.5957 29.4707 31.1064 36.248 31.1064H52.6035ZM36.248 35.1953C31.7298 35.1953 28.0703 38.8548 28.0703 43.373C28.0704 47.8912 31.7299 51.5508 36.248 51.5508C40.7662 51.5508 44.4257 47.8912 44.4258 43.373C44.4258 38.8548 40.7662 35.1953 36.248 35.1953ZM45.3867 35.1953C47.3289 37.3624 48.5146 40.2349 48.5146 43.373C48.5146 46.5112 47.3289 49.3837 45.3867 51.5508H52.6035C57.1217 51.5508 60.7812 47.8912 60.7812 43.373C60.7812 38.8548 57.1217 35.1953 52.6035 35.1953H45.3867Z"/>
</g>
<defs>
<clipPath id="clip0_1451_4660">
<rect width="92" height="92"/>
</clipPath>
</defs>
</svg>
