<svg viewBox="0 0 92 92" xmlns="http://www.w3.org/2000/svg">
<path d="M20.0879 70.3495L6.28795 84.1495C4.5195 85.9793 4.57062 88.8926 6.40039 90.6509C8.17906 92.3682 11.0106 92.3682 12.7893 90.6509L26.5893 76.8509C28.3577 75.0211 28.3066 72.1077 26.4768 70.3495C24.6982 68.6322 21.8666 68.6322 20.0879 70.3495Z"/>
<path d="M86.3995 84.1495L72.5995 70.3495C70.7697 68.581 67.8564 68.6321 66.0982 70.4619C64.3808 72.2406 64.3808 75.0721 66.0982 76.8508L79.8982 90.6508C81.728 92.4193 84.6413 92.3681 86.3995 90.5384C88.1168 88.7597 88.1168 85.9281 86.3995 84.1495Z"/>
<path d="M46.3386 69C43.7933 69 41.7386 71.0547 41.7386 73.6V87.4C41.7386 89.9453 43.7933 92 46.3386 92C48.884 92 50.9386 89.9453 50.9386 87.4V73.6C50.9386 71.0547 48.884 69 46.3386 69Z"/>
<path d="M18.7387 59.8H73.9387C76.484 59.8 78.5387 57.7453 78.5387 55.2C78.5387 52.6547 76.484 50.6 73.9387 50.6H69.3387V46C69.3387 35.0418 61.5902 25.6067 50.8467 23.46C50.8876 23.3067 50.9182 23.1533 50.9387 23V4.6C50.9387 2.05467 48.884 0 46.3387 0C43.7933 0 41.7387 2.05467 41.7387 4.6V23C41.7591 23.1533 41.7898 23.3067 41.8307 23.46C31.0871 25.6067 23.3489 35.0418 23.3387 46V50.6H18.7387C16.1933 50.6 14.1387 52.6547 14.1387 55.2C14.1387 57.7453 16.1933 59.8 18.7387 59.8Z"/>
</svg>
