<svg viewBox="0 0 92 92" xmlns="http://www.w3.org/2000/svg">
<g clip-path="url(#clip0_1451_4946)">
<path d="M74.1111 92H17.8889C8.07556 92 0 83.9244 0 74.1111V17.8889C0 8.07556 8.07556 0 17.8889 0H74.1111C83.9244 0 92 8.07556 92 17.8889V74.1111C92 83.9244 83.9244 92 74.1111 92ZM17.8889 5.11111C10.8356 5.11111 5.11111 10.8356 5.11111 17.8889V74.1111C5.11111 81.1645 10.8356 86.8889 17.8889 86.8889H74.1111C81.1645 86.8889 86.8889 81.1645 86.8889 74.1111V17.8889C86.8889 10.8356 81.1645 5.11111 74.1111 5.11111H17.8889Z"/>
<path d="M80.7556 80.7555H11.2444V11.2444H80.7556V80.7555ZM14.3111 77.6888H77.6889V14.3111H14.3111V77.6888Z"/>
<path d="M68.959 65.126C69.6439 65.126 70.2166 65.4835 71.2695 66.1377L72.292 66.7715C73.2832 67.3846 73.8349 67.7222 74.1416 68.3047C74.4585 68.8771 74.459 69.4907 74.459 70.7275V71.5049C74.459 73.6001 74.4582 74.6532 73.7529 75.3789C73.0374 76.1146 72.0251 76.1143 69.9912 76.1143H69.9707V75.3477C71.7903 75.3477 72.7007 75.3476 73.1914 74.8467C73.6817 74.3355 73.6816 73.3952 73.6816 71.5049V70.7275C73.6816 69.6235 73.6815 69.0715 73.4668 68.6729C73.2521 68.2743 72.7924 67.9879 71.8828 67.4258L70.8604 66.792C68.9386 65.596 68.9794 65.596 67.0576 66.792L66.0352 67.4258C65.1256 67.9879 64.6658 68.2742 64.4512 68.6729C64.3285 68.8977 64.2675 69.1633 64.2471 69.623L63.4805 69.583C63.5111 69.0106 63.5924 68.6318 63.7764 68.3047C64.0933 67.7323 64.6354 67.395 65.627 66.7715L66.6484 66.1377C67.7013 65.4835 68.2741 65.126 68.959 65.126Z"/>
<path d="M63.8477 73.8145C64.9005 73.8145 65.7695 74.6733 65.7695 75.7363L65.7598 75.7266H64.9932C64.9932 75.0928 64.4814 74.5811 63.8477 74.5811V73.8145Z"/>
<path d="M63.8477 72.2812C65.749 72.2812 67.3027 73.8248 67.3027 75.7363L67.293 75.7266H66.5264C66.5264 74.2443 65.3197 73.0479 63.8477 73.0479V72.2812Z"/>
<path d="M63.8477 70.748C66.5974 70.748 68.8368 72.9866 68.8369 75.7363L68.8262 75.7266H68.0596C68.0596 73.4061 66.1681 71.5146 63.8477 71.5146V70.748Z"/>
<path d="M46.9098 13.3298H44.8653V79.4267H46.9098V13.3298Z"/>
<path d="M78.4351 35.1338H12.3382V37.1782H78.4351V35.1338Z"/>
<path d="M79.5289 57.1116H13.432V59.156H79.5289V57.1116Z"/>
</g>
<defs>
<clipPath id="clip0_1451_4946">
<rect width="92" height="92"/>
</clipPath>
</defs>
</svg>
