<svg viewBox="0 0 92 92" xmlns="http://www.w3.org/2000/svg">
<g clip-path="url(#clip0_1023_2011)">
<path d="M35.1765 53.0354C31.28 53.0354 28.1412 49.8966 28.1412 46.0001C28.1412 42.1037 31.28 38.9648 35.1765 38.9648C39.0729 38.9648 42.2118 42.1037 42.2118 46.0001C42.2118 49.8966 39.0729 53.0354 35.1765 53.0354ZM35.1765 42.2119C33.12 42.2119 31.3882 43.9437 31.3882 46.0001C31.3882 48.0566 33.12 49.7884 35.1765 49.7884C37.2329 49.7884 38.9647 48.0566 38.9647 46.0001C38.9647 43.9437 37.2329 42.2119 35.1765 42.2119Z" fill-opacity="0.5"/>
<path d="M56.8235 53.0354C52.927 53.0354 49.7882 49.8966 49.7882 46.0001C49.7882 42.1037 52.927 38.9648 56.8235 38.9648C60.72 38.9648 63.8588 42.1037 63.8588 46.0001C63.8588 49.8966 60.72 53.0354 56.8235 53.0354ZM56.8235 42.2119C54.767 42.2119 53.0353 43.9437 53.0353 46.0001C53.0353 48.0566 54.767 49.7884 56.8235 49.7884C58.88 49.7884 60.6117 48.0566 60.6117 46.0001C60.6117 43.9437 58.88 42.2119 56.8235 42.2119Z" fill-opacity="0.5"/>
<path d="M46 17.3179C30.1976 17.3179 17.3176 30.1979 17.3176 46.0002C17.3176 61.8026 30.1976 74.6826 46 74.6826C61.8023 74.6826 74.6823 61.8026 74.6823 46.0002C74.6823 30.1979 61.8023 17.3179 46 17.3179ZM47.6235 71.3273V63.859C47.6235 62.9932 46.8659 62.2355 46 62.2355C45.1341 62.2355 44.3764 62.9932 44.3764 63.859V71.3273C31.0635 70.4614 20.5647 59.4214 20.5647 46.0002C20.5647 32.579 31.0635 21.4308 44.3764 20.5649V28.1414C44.3764 29.0073 45.1341 29.7649 46 29.7649C46.8659 29.7649 47.6235 29.0073 47.6235 28.1414V20.5649C60.9364 21.4308 71.4353 32.4708 71.4353 46.0002C71.4353 59.5296 60.9364 70.5696 47.6235 71.3273Z" fill-opacity="0.5"/>
<path d="M18.9304 5.41177C11.4621 5.41177 5.41177 11.4621 5.41177 18.9304V73.0697C5.41177 80.5379 11.4621 86.5882 18.9304 86.5882H73.0697C80.5379 86.5882 86.5882 80.5379 86.5882 73.0697V18.9304C86.5882 11.4621 80.5379 5.41177 73.0697 5.41177H18.9304ZM73.0697 92H18.9304C8.51812 92 0 83.4819 0 73.0697V18.9304C0 8.51812 8.51812 0 18.9304 0H73.0697C83.4819 0 92 8.51812 92 18.9304V73.0697C92 83.4819 83.4819 92 73.0697 92Z"/>
<path d="M55.2 80.5269H36.8C35.9033 80.5269 35.1765 81.2537 35.1765 82.1504C35.1765 83.047 35.9033 83.7739 36.8 83.7739H55.2C56.0966 83.7739 56.8235 83.047 56.8235 82.1504C56.8235 81.2537 56.0966 80.5269 55.2 80.5269Z" fill-opacity="0.5"/>
</g>
<defs>
<clipPath id="clip0_1023_2011">
<rect width="92" height="92"/>
</clipPath>
</defs>
</svg>
