<svg viewBox="0 0 92 92" xmlns="http://www.w3.org/2000/svg">
<g clip-path="url(#clip0_2652_3794)">
<path d="M44.86 77.74C52.7 77.74 59.06 71.37 59.06 63.54C59.06 59.4 57.35 55.79 54.11 52.85C53.51 52.31 53.38 52.01 53.38 51.19L53.43 26.76C53.43 21.07 49.97 17.29 44.86 17.29C39.75 17.29 36.26 21.07 36.26 26.76L36.29 51.19C36.29 52.01 36.15 52.31 35.58 52.85C32.31 55.79 30.63 59.41 30.63 63.54C30.63 71.38 36.97 77.74 44.86 77.74ZM44.86 73.8C39.2 73.8 34.6 69.17 34.6 63.54C34.6 60.14 36.21 57.06 39.09 55.13C39.93 54.56 40.26 54.04 40.26 52.93V26.92C40.26 23.49 42.14 21.29 44.86 21.29C47.58 21.29 49.4 23.49 49.4 26.92V52.93C49.4 54.05 49.73 54.56 50.57 55.13C53.45 57.06 55.06 60.14 55.06 63.54C55.06 69.17 50.49 73.8 44.86 73.8ZM58.49 27.27H64.42C65.37 27.27 66.03 26.54 66.03 25.69C66.03 24.84 65.38 24.11 64.42 24.11H58.49C57.54 24.11 56.88 24.84 56.88 25.69C56.88 26.54 57.53 27.27 58.49 27.27ZM58.49 34.92H64.42C65.37 34.92 66.03 34.19 66.03 33.34C66.03 32.49 65.38 31.76 64.42 31.76H58.49C57.54 31.76 56.88 32.49 56.88 33.34C56.88 34.19 57.53 34.92 58.49 34.92ZM44.84 70.13C48.49 70.13 51.42 67.19 51.42 63.52C51.42 60.96 49.98 58.87 47.88 57.72C47.01 57.26 46.71 56.93 46.71 55.6V41.15C46.71 39.74 45.89 38.89 44.83 38.89C43.77 38.89 42.95 39.73 42.95 41.15V55.6C42.95 56.93 42.65 57.26 41.78 57.72C39.68 58.86 38.24 60.96 38.24 63.52C38.24 67.19 41.18 70.13 44.82 70.13H44.84ZM58.49 42.56H64.42C65.37 42.56 66.03 41.83 66.03 40.98C66.03 40.13 65.38 39.37 64.42 39.37H58.49C57.54 39.37 56.88 40.13 56.88 40.98C56.88 41.83 57.53 42.56 58.49 42.56ZM58.49 50.21H64.42C65.37 50.21 66.03 49.45 66.03 48.6C66.03 47.75 65.38 47.02 64.42 47.02H58.49C57.54 47.02 56.88 47.75 56.88 48.6C56.88 49.45 57.53 50.21 58.49 50.21Z"/>
<path fill-rule="evenodd" clip-rule="evenodd" d="M74.29 0C84.0599 2.06937e-05 91.9999 7.94986 92 17.7197V74.29C92 84.06 84.05 92 74.29 92H17.71C7.93999 92 2.06903e-05 84.05 0 74.29V17.7197C0.000147958 7.94994 7.94994 0.000147967 17.7197 0H74.29ZM17.71 4.9502C10.67 4.95022 4.95022 10.68 4.9502 17.71V74.2803C4.95034 81.3201 10.6801 87.04 17.71 87.04H74.2803C81.3201 87.0399 87.0399 81.3101 87.04 74.2803V17.7197C87.0399 10.6799 81.3101 4.96011 74.2803 4.95996H17.71V4.9502Z"/>
</g>
<defs>
<clipPath id="clip0_2652_3794">
<rect width="92" height="92"/>
</clipPath>
</defs>
</svg>
