<svg viewBox="0 0 92 92" xmlns="http://www.w3.org/2000/svg">
<path fill-rule="evenodd" clip-rule="evenodd" d="M46.0703 4.5C57.9602 4.50018 67.6299 14.5901 67.6299 27C67.6299 38.5596 59.2397 48.1043 48.4805 49.3584V59.0518L88.3672 37.9746C89.0698 37.6033 89.889 37.6874 90.4922 38.1182C91.0921 38.4415 91.4998 39.0755 91.5 39.8047V84.915C91.5 85.9727 90.6426 86.8301 89.585 86.8301C89.5771 86.8301 89.5693 86.8282 89.5615 86.8281C88.984 87.0985 88.2895 87.1046 87.6826 86.7725L47.082 64.5537C46.956 64.4847 46.8401 64.4041 46.7344 64.3145C46.5778 64.481 46.3932 64.6262 46.1797 64.7383L3.76562 86.9971C2.74546 87.5324 1.49242 87.1444 0.946289 86.1426C0.668155 85.8101 0.5 85.3824 0.5 84.915V39.8047C0.500202 38.9303 1.08679 38.1939 1.8877 37.9648C2.49257 37.5158 3.32351 37.4191 4.03906 37.7891L43.6504 58.2656V49.3574C32.8956 48.099 24.5098 38.5563 24.5098 27C24.5098 14.59 34.1803 4.5 46.0703 4.5ZM51.3174 62.1338L87.6699 82.0273V42.9248L51.3174 62.1338ZM4.33008 81.9521L42.1621 62.0859L4.33008 42.5283V81.9521ZM46.0703 9.79004C36.8703 9.79004 29.3896 17.51 29.3896 27C29.3896 36.49 36.8703 44.21 46.0703 44.21C55.2702 44.2098 62.75 36.4899 62.75 27C62.75 17.5101 55.2702 9.79021 46.0703 9.79004Z"/>
<path d="M52.07 28.0402C51.95 25.7802 51.81 23.0702 51.83 21.0602H51.76C51.21 22.9602 50.53 24.9702 49.72 27.2002L46.86 35.0502H45.27L42.65 27.3502C41.88 25.0702 41.23 22.9802 40.78 21.0602H40.73C40.68 23.0802 40.56 25.7902 40.42 28.2102L39.99 35.1502H37.99L39.12 18.9702H41.79L44.55 26.7902C45.22 28.7802 45.78 30.5602 46.18 32.2402H46.25C46.66 30.6102 47.24 28.8302 47.96 26.7902L50.85 18.9702H53.52L54.53 35.1502H52.49L52.08 28.0502L52.07 28.0402Z"/>
</svg>
