<svg viewBox="0 0 92 92" xmlns="http://www.w3.org/2000/svg">
<g clip-path="url(#clip0_1434_3991)">
<path fill-rule="evenodd" clip-rule="evenodd" d="M53.9303 35V37.9766H57.7291V57.7295H34.9996V37.9766H38.7985V35H53.9303ZM41.234 37.4355V40.4121H37.4352V55.2939H38.6149V51.1699H41.5807V55.2939H42.7926V51.1699H45.7584V55.2939H46.9703V51.1699H49.9362V55.2939H51.1481V51.1699H54.1139V55.2939H55.2936V40.4121H51.4948V37.4355H41.234Z"/>
<path d="M73.0588 92H18.9412C8.55059 92 0 83.4494 0 73.0588V18.9412C0 8.55059 8.55059 0 18.9412 0H73.0588C83.4494 0 92 8.55059 92 18.9412V73.0588C92 83.4494 83.4494 92 73.0588 92ZM18.9412 5.41177C11.4729 5.41177 5.41177 11.4729 5.41177 18.9412V73.0588C5.41177 80.5271 11.4729 86.5882 18.9412 86.5882H73.0588C80.5271 86.5882 86.5882 80.5271 86.5882 73.0588V18.9412C86.5882 11.4729 80.5271 5.41177 73.0588 5.41177H18.9412Z"/>
</g>
<defs>
<clipPath id="clip0_1434_3991">
<rect width="92" height="92"/>
</clipPath>
</defs>
</svg>
