<svg viewBox="0 0 92 92" xmlns="http://www.w3.org/2000/svg">
<path d="M77.1812 71H15.8287C7.63779 71 1 64.3683 1 56.1848V35.8152C1 27.6317 7.63779 21 15.8287 21H77.1713C85.3622 21 92 27.6317 92 35.8152V56.1848C92 64.3683 85.3622 71 77.1713 71H77.1812ZM15.8287 24.7853C9.73497 24.7853 4.78878 29.727 4.78878 35.8152V56.1848C4.78878 62.273 9.73497 67.2147 15.8287 67.2147H77.1713C83.265 67.2147 88.2112 62.273 88.2112 56.1848V35.8152C88.2112 29.727 83.265 24.7853 77.1713 24.7853H15.8287Z"/>
<path d="M13.27 33.5302C14.73 33.2202 17.03 32.9902 19.36 32.9902C22.69 32.9902 24.84 33.5602 26.45 34.8702C27.79 35.8702 28.6 37.4002 28.6 39.4302C28.6 41.9202 26.95 44.1102 24.23 45.1002V45.1802C26.68 45.7902 29.56 47.8202 29.56 51.6602C29.56 53.8802 28.68 55.5702 27.37 56.8302C25.57 58.4802 22.66 59.2402 18.44 59.2402C16.14 59.2402 14.38 59.0902 13.27 58.9302V33.5302ZM16.6 44.1102H19.63C23.16 44.1102 25.23 42.2702 25.23 39.7802C25.23 36.7502 22.93 35.5602 19.56 35.5602C18.03 35.5602 17.15 35.6802 16.61 35.7902V44.1102H16.6ZM16.6 56.4902C17.25 56.6102 18.21 56.6402 19.4 56.6402C22.85 56.6402 26.03 55.3702 26.03 51.6202C26.03 48.0902 23 46.6402 19.36 46.6402H16.6V56.4902Z"/>
<path d="M55.82 47.6802C55.63 44.0802 55.4 39.7502 55.44 36.5302H55.32C54.44 39.5602 53.37 42.7802 52.06 46.3402L47.5 58.8702H44.97L40.79 46.5702C39.56 42.9302 38.53 39.5902 37.8 36.5302H37.72C37.64 39.7502 37.45 44.0802 37.22 47.9502L36.53 59.0302H33.35L35.15 33.2002H39.4L43.81 45.6902C44.88 48.8702 45.76 51.7102 46.42 54.3902H46.54C47.19 51.7802 48.11 48.9502 49.26 45.6902L53.86 33.2002H58.11L59.72 59.0302H56.46L55.81 47.6802H55.82Z"/>
<path d="M63.1 57.0702L77.43 36.1102V35.9902H64.32V33.1902H81.76V35.2202L67.5 56.1102V56.2202H81.95V59.0202H63.09V57.0602L63.1 57.0702Z"/>
</svg>
