<svg viewBox="0 0 92 92" xmlns="http://www.w3.org/2000/svg">
<path d="M76.6631 77.94H15.337C7.14697 77.94 0.5 71.23 0.5 62.94V28.5C0.5 20.21 7.13707 13.5 15.337 13.5H76.673C84.863 13.5 91.51 20.21 91.51 28.5V62.95C91.51 71.23 84.8729 77.95 76.673 77.95L76.6631 77.94ZM15.337 17.33C9.24392 17.33 4.29827 22.33 4.29827 28.49V62.94C4.29827 69.1 9.24392 74.1 15.337 74.1H76.673C82.7661 74.1 87.7117 69.1 87.7117 62.94V28.5C87.7117 22.34 82.7661 17.34 76.673 17.34H15.337V17.33Z"/>
<path d="M7.89001 32.2502C9.75001 31.8702 12.41 31.6602 14.94 31.6602C18.87 31.6602 21.4 32.3802 23.18 33.9802C24.62 35.2502 25.42 37.1902 25.42 39.3902C25.42 43.1502 23.05 45.6402 20.06 46.6502V46.7802C22.26 47.5402 23.56 49.5702 24.24 52.5202C25.17 56.4902 25.84 59.2402 26.44 60.3302H22.64C22.18 59.5302 21.54 57.0802 20.74 53.5302C19.89 49.6002 18.38 48.1202 15.04 48.0002H11.58V60.3302H7.91001V32.2402L7.89001 32.2502ZM11.56 45.2202H15.32C19.25 45.2202 21.74 43.0702 21.74 39.8102C21.74 36.1402 19.08 34.5302 15.19 34.4902C13.42 34.4902 12.15 34.6602 11.56 34.8302V45.2202Z"/>
<path d="M35.93 60.3401L28.71 31.8701H32.6L35.98 46.2701C36.82 49.8201 37.58 53.3701 38.09 56.1101H38.17C38.63 53.2801 39.52 49.9001 40.49 46.2301L44.29 31.8701H48.13L51.59 46.3101C52.39 49.6901 53.15 53.0701 53.58 56.0701H53.66C54.25 52.9401 55.05 49.7801 55.94 46.2301L59.7 31.8701H63.46L55.39 60.3401H51.55L47.96 45.5201C47.07 41.8901 46.48 39.1001 46.1 36.2301H46.02C45.51 39.0601 44.88 41.8501 43.82 45.5201L39.77 60.3401H35.93Z"/>
<path d="M69.21 51.3801L66.25 60.3301H62.45L72.12 31.8601H76.55L86.26 60.3301H82.33L79.29 51.3801H69.2H69.21ZM78.55 48.5101L75.76 40.3201C75.13 38.4601 74.7 36.7701 74.28 35.1301H74.2C73.78 36.8201 73.31 38.5501 72.76 40.2801L69.97 48.5201H78.54L78.55 48.5101Z"/>
</svg>
