<svg viewBox="0 0 92 92" xmlns="http://www.w3.org/2000/svg">
<path fill-rule="evenodd" clip-rule="evenodd" d="M33.0454 75.9072C33.0454 77.363 34.1927 78.5427 35.5944 78.5427H56.8951C58.2913 78.5427 59.4386 77.3576 59.4386 75.9072V46.8027L33.0508 57.978L33.0454 75.9072Z"/>
<path fill-rule="evenodd" clip-rule="evenodd" d="M61.1325 8.41176H54.3569V3H38.2461V8.41176H31.1675C26.1021 8.41176 22 11.0744 22 16.0802V81.6979C22 86.6983 26.1075 89.5882 31.1675 89.5882H61.1271C66.1925 89.5882 70.5868 86.6929 70.5868 81.6979V16.0802C70.5922 11.0744 66.1979 8.41176 61.1325 8.41176ZM65.1805 78.7647C65.1805 81.5572 62.5612 84.1765 59.7687 84.1765H32.7099C29.9228 84.1765 27.2981 81.5572 27.2981 78.7647V19.2353C27.2981 16.4536 29.9228 13.8235 32.7099 13.8235H59.7687C62.5612 13.8235 65.1805 16.4482 65.1805 19.2353V78.7647Z"/>
</svg>
