<svg viewBox="0 0 92 92" xmlns="http://www.w3.org/2000/svg">
<g clip-path="url(#clip0_1023_2051)">
<path d="M78.4598 92H13.5402C6.09365 92 0 85.9064 0 78.4598V13.5402C0 6.09365 6.09365 0 13.5402 0H78.449C85.8955 0 91.9892 6.09365 91.9892 13.5402V78.449C91.9892 85.8955 85.8955 91.9892 78.449 91.9892L78.4598 92ZM13.5402 5.41177C9.04847 5.41177 5.41177 9.04847 5.41177 13.5402V78.449C5.41177 82.9407 9.04847 86.5774 13.5402 86.5774H78.449C82.9407 86.5774 86.5774 82.9407 86.5774 78.449V13.5402C86.5774 9.04847 82.9407 5.41177 78.449 5.41177H13.5402Z"/>
<path d="M46 74.6826C30.1976 74.6826 17.3176 61.8026 17.3176 46.0002C17.3176 30.1979 30.1976 17.3179 46 17.3179C61.8023 17.3179 74.6823 30.1979 74.6823 46.0002C74.6823 61.8026 61.8023 74.6826 46 74.6826ZM46 20.5649C31.9294 20.5649 20.5647 31.9296 20.5647 46.0002C20.5647 60.0708 31.9294 71.4355 46 71.4355C60.0706 71.4355 71.4353 60.0708 71.4353 46.0002C71.4353 31.9296 60.0706 20.5649 46 20.5649Z"/>
<path d="M35.1765 53.0354C31.28 53.0354 28.1412 49.8966 28.1412 46.0001C28.1412 42.1037 31.28 38.9648 35.1765 38.9648C39.0729 38.9648 42.2118 42.1037 42.2118 46.0001C42.2118 49.8966 39.0729 53.0354 35.1765 53.0354ZM35.1765 42.2119C33.12 42.2119 31.3882 43.9437 31.3882 46.0001C31.3882 48.0566 33.12 49.7884 35.1765 49.7884C37.2329 49.7884 38.9647 48.0566 38.9647 46.0001C38.9647 43.9437 37.2329 42.2119 35.1765 42.2119Z"/>
<path d="M56.8235 53.0354C52.927 53.0354 49.7882 49.8966 49.7882 46.0001C49.7882 42.1037 52.927 38.9648 56.8235 38.9648C60.72 38.9648 63.8588 42.1037 63.8588 46.0001C63.8588 49.8966 60.72 53.0354 56.8235 53.0354ZM56.8235 42.2119C54.767 42.2119 53.0353 43.9437 53.0353 46.0001C53.0353 48.0566 54.767 49.7884 56.8235 49.7884C58.88 49.7884 60.6117 48.0566 60.6117 46.0001C60.6117 43.9437 58.88 42.2119 56.8235 42.2119Z"/>
<path d="M47.6235 28.1414V20.5649C47.6235 19.6683 46.8966 18.9414 46 18.9414C45.1033 18.9414 44.3765 19.6683 44.3765 20.5649V28.1414C44.3765 29.0381 45.1033 29.7649 46 29.7649C46.8966 29.7649 47.6235 29.0381 47.6235 28.1414Z"/>
<path d="M47.6235 71.4353V63.8589C47.6235 62.9622 46.8966 62.2354 46 62.2354C45.1033 62.2354 44.3765 62.9622 44.3765 63.8589V71.4354C44.3765 72.332 45.1033 73.0589 46 73.0589C46.8966 73.0589 47.6235 72.332 47.6235 71.4353Z"/>
<path d="M23.1191 19.3741H15.5426C12.2631 19.3741 9.58966 16.7007 9.58966 13.4212C9.58966 10.1417 12.2631 7.46826 15.5426 7.46826H23.1191C26.3986 7.46826 29.072 10.1417 29.072 13.4212C29.072 16.7007 26.3986 19.3741 23.1191 19.3741ZM15.5426 9.63297C13.4537 9.63297 11.7544 11.3323 11.7544 13.4212C11.7544 15.5101 13.4537 17.2094 15.5426 17.2094H23.1191C25.208 17.2094 26.9073 15.5101 26.9073 13.4212C26.9073 11.3323 25.208 9.63297 23.1191 9.63297H15.5426Z"/>
<path d="M15.9106 17.2093C13.8217 17.2093 12.1224 15.51 12.1224 13.421C12.1224 11.3321 13.8217 9.63281 15.9106 9.63281C17.9996 9.63281 19.6988 11.3321 19.6988 13.421C19.6988 15.51 17.9996 17.2093 15.9106 17.2093ZM15.9106 10.7152C14.417 10.7152 13.2047 11.9274 13.2047 13.421C13.2047 14.9147 14.417 16.1269 15.9106 16.1269C17.4043 16.1269 18.6165 14.9147 18.6165 13.421C18.6165 11.9274 17.4043 10.7152 15.9106 10.7152Z"/>
</g>
<defs>
<clipPath id="clip0_1023_2051">
<rect width="92" height="92"/>
</clipPath>
</defs>
</svg>
