<svg viewBox="0 0 92 92" xmlns="http://www.w3.org/2000/svg">
<path d="M91.6011 23.6297C91.2152 23.0169 90.59 22.5947 89.8784 22.4653L27.4025 11.1281C23.4149 10.404 19.6089 12.8142 18.5484 16.7338L15.2828 28.7982C14.7412 30.7991 15.0092 32.8918 16.0379 34.6911C17.0666 36.4903 18.7325 37.7797 20.7293 38.3226L23.6637 39.1204V49.2563H2.58141C1.15601 49.2563 0 50.4152 0 51.8437V78.4126C0 79.8412 1.15601 81 2.58141 81H6.02329C6.53275 81 7.03003 80.849 7.45395 80.5662L36.7107 61.0409C37.4295 60.5617 37.8616 59.7531 37.8616 58.8876V42.9813L74.4622 52.934C74.6845 52.9944 74.9114 53.0242 75.1381 53.0242C75.5913 53.0242 76.0408 52.9048 76.4387 52.6718C77.036 52.3225 77.4687 51.7477 77.6395 51.0763L81.18 37.1562L85.9679 38.2205C87.3159 38.5215 88.6574 37.7056 89.0183 36.3717L91.91 25.689C92.0993 24.9896 91.987 24.2427 91.6011 23.6297ZM32.6988 57.5017L5.24264 75.8251H5.16297V54.4312H32.6988V57.5017ZM32.6988 49.2563H28.8265V40.5244L32.6988 41.5775V49.2563ZM84.6807 32.6337L79.8558 31.5612C78.4929 31.2581 77.1397 32.0943 76.7956 33.448L73.2842 47.252L22.0806 33.3285C21.4154 33.1474 20.8599 32.7174 20.5172 32.118C20.1743 31.5181 20.0848 30.8208 20.2655 30.1536L23.5311 18.0888C23.8426 16.9383 24.864 16.1775 26.0115 16.1775C26.1663 16.1775 26.3243 16.1914 26.4826 16.2203L86.1908 27.0552L84.6807 32.6337ZM26.122 24.4975L27.223 19.1961L31.89 20.1699L30.789 25.4713L26.122 24.4975ZM87.0646 42.8058L85.1805 50.2137C84.8829 51.3837 83.8325 52.1625 82.6809 52.1625C82.4697 52.1625 82.2553 52.1362 82.0411 52.0815C80.6596 51.7287 79.8248 50.3199 80.1773 48.9351L82.0612 41.5272C82.4133 40.1425 83.8184 39.3055 85.2003 39.6591C86.5819 40.0123 87.4166 41.4206 87.0646 42.8058Z"/>
</svg>
