<svg viewBox="0 0 92 92" xmlns="http://www.w3.org/2000/svg">
<g clip-path="url(#clip0_1434_3656)">
<path d="M82.18 0H73.43C71.82 0 70.51 1.3 70.51 2.92V11.67H55.93C45.61 11.67 37.08 19.38 35.73 29.33C24.14 30.68 15.11 40.54 15.11 52.48V55.4C15.11 57.01 16.41 58.32 18.03 58.32H24.16C25.52 64.96 31.4 69.98 38.44 69.98C45.48 69.98 51.37 64.96 52.72 58.32H58.85C60.46 58.32 61.77 57.02 61.77 55.4V52.48C61.77 40.7 52.99 30.96 41.63 29.4C42.89 22.64 48.81 17.49 55.94 17.49H70.52V32.07C70.52 33.68 71.82 34.99 73.44 34.99H82.19C83.8 34.99 85.11 33.69 85.11 32.07V2.92C85.11 1.31 83.81 0 82.19 0H82.18ZM46.69 58.31C45.49 61.7 42.24 64.14 38.44 64.14C34.64 64.14 31.4 61.7 30.19 58.31H46.69Z"/>
<path d="M18.4799 75.5299L7.97994 86.0299C6.63994 87.4199 6.67994 89.6299 8.06994 90.9799C9.42994 92.2899 11.5799 92.2899 12.9299 90.9799L23.4299 80.4799C24.7699 79.0899 24.7299 76.8799 23.3399 75.5299C21.9799 74.2199 19.8299 74.2199 18.4799 75.5299Z"/>
<path d="M68.91 86.0301L58.41 75.5301C57.02 74.1901 54.81 74.2301 53.46 75.6201C52.15 76.9801 52.15 79.1301 53.46 80.4801L63.96 90.9801C65.35 92.3201 67.56 92.2801 68.91 90.8901C70.22 89.5301 70.22 87.3801 68.91 86.0301Z"/>
<path d="M38.4399 74.5098C36.5099 74.5098 34.9399 76.0798 34.9399 78.0098V88.5098C34.9399 90.4398 36.5099 92.0098 38.4399 92.0098C40.3699 92.0098 41.9399 90.4398 41.9399 88.5098V78.0098C41.9399 76.0798 40.3699 74.5098 38.4399 74.5098Z"/>
</g>
<defs>
<clipPath id="clip0_1434_3656">
<rect width="92" height="92"/>
</clipPath>
</defs>
</svg>
