<svg viewBox="0 0 92 92" xmlns="http://www.w3.org/2000/svg">
<path d="M69.391 59.74H22.5988C18.8375 59.74 15.4236 58.2375 12.9195 55.7947H2.04422C0.919898 55.7947 0 54.8748 0 53.7505C0 52.6262 0.919898 51.7063 2.04422 51.7063H10.0269C9.19898 49.9278 8.73903 47.9551 8.73903 45.87C8.73903 43.9893 9.11721 42.1904 9.80202 40.555H2.04422C0.919898 40.555 0 39.6352 0 38.5108C0 37.3865 0.919898 36.4666 2.04422 36.4666H12.4186C14.9534 33.7171 18.5819 32 22.5988 32H69.3807C73.4078 32 77.0363 33.7171 79.5712 36.4666H89.9456C91.0699 36.4666 91.9898 37.3865 91.9898 38.5108C91.9898 39.6352 91.0699 40.555 89.9456 40.555H82.198C82.8828 42.1904 83.261 43.9893 83.261 45.87C83.261 47.9551 82.801 49.938 81.9731 51.7063H89.9558C91.0801 51.7063 92 52.6262 92 53.7505C92 54.8748 91.0801 55.7947 89.9558 55.7947H79.0703C76.5662 58.2375 73.1523 59.74 69.391 59.74ZM18.817 54.885C19.9822 55.3756 21.2599 55.6516 22.609 55.6516H69.391C70.7299 55.6516 72.0178 55.3756 73.183 54.885C69.8918 53.3416 67.6125 49.9993 67.6125 46.1255C67.6125 42.0269 70.1678 38.5211 73.7758 37.1208C72.4573 36.4564 70.9752 36.0884 69.4012 36.0884H22.5988C21.0248 36.0884 19.5427 36.4666 18.2242 37.1208C21.822 38.5313 24.3875 42.0371 24.3875 46.1255C24.3875 49.9891 22.1082 53.3416 18.817 54.885ZM77.4861 40.555C74.8081 40.555 72.3551 42.3335 71.8134 44.9501C71.0774 48.5275 73.786 51.6858 77.2305 51.7063C78.4468 50.0709 79.1725 48.0573 79.1725 45.87C79.1725 43.9178 78.6002 42.1087 77.6189 40.5755C77.6189 40.555 77.5883 40.555 77.5678 40.555H77.4861ZM14.422 40.555C14.422 40.555 14.3811 40.555 14.3708 40.5755C13.3896 42.0984 12.8172 43.9178 12.8172 45.87C12.8172 48.0573 13.5429 50.0811 14.7592 51.7063C18.2038 51.6858 20.9123 48.5275 20.1764 44.9501C19.6347 42.3335 17.1816 40.555 14.5037 40.555H14.422Z"/>
<path d="M60.5399 37.8501C58.8899 37.9701 57.6399 39.4101 57.7599 41.0601C57.8799 42.7101 59.3199 43.9601 60.9699 43.8401C62.6199 43.7201 63.8699 42.2801 63.7499 40.6301C63.6399 39.1401 62.4599 37.9601 60.9699 37.8501"/>
</svg>
