<svg viewBox="0 0 92 92" xmlns="http://www.w3.org/2000/svg">
<g clip-path="url(#clip0_1451_4984)">
<path d="M74.1111 92H17.8889C8.07556 92 0 83.9244 0 74.1111V17.8889C0 8.07556 8.07556 0 17.8889 0H74.1111C83.9244 0 92 8.07556 92 17.8889V74.1111C92 83.9244 83.9244 92 74.1111 92ZM17.8889 5.11111C10.8356 5.11111 5.11111 10.8356 5.11111 17.8889V74.1111C5.11111 81.1645 10.8356 86.8889 17.8889 86.8889H74.1111C81.1645 86.8889 86.8889 81.1645 86.8889 74.1111V17.8889C86.8889 10.8356 81.1645 5.11111 74.1111 5.11111H17.8889Z"/>
<path d="M80.7556 80.7555H11.2444V11.2444H80.7556V80.7555ZM14.3111 77.6888H77.6889V14.3111H14.3111V77.6888Z"/>
<path d="M68.959 65.1357C69.6439 65.1357 70.1753 65.4738 71.2588 66.1484L72.2812 66.7822C73.2727 67.4057 73.8252 67.743 74.1318 68.3154C74.4485 68.8877 74.4482 69.501 74.4482 70.7373V71.5146C74.4482 73.6101 74.4484 74.6629 73.7432 75.3887C73.0276 76.1247 72.0156 76.125 69.9814 76.125L69.9707 76.1143V75.3477C71.7903 75.3477 72.7002 75.3476 73.1807 74.8467C73.6712 74.3356 73.6719 73.3956 73.6719 71.5049V70.7275C73.6719 69.6236 73.6717 69.0715 73.457 68.6729C73.2424 68.2742 72.7824 67.9978 71.8828 67.4355L70.8506 66.8018C68.9289 65.6058 68.9692 65.606 67.0479 66.8018L66.0254 67.4355C65.1158 68.0079 64.6551 68.284 64.4404 68.6826C64.3178 68.9075 64.2568 69.1738 64.2363 69.6338L63.4697 69.5928C63.5004 69.0204 63.5826 68.6425 63.7666 68.3154C64.0835 67.743 64.6248 67.4053 65.6162 66.792L66.6484 66.1484C67.7319 65.4738 68.2742 65.1358 68.959 65.1357Z"/>
<path d="M63.8477 73.8145C64.9005 73.8145 65.7695 74.6733 65.7695 75.7363L65.7598 75.7266H64.9932C64.9932 75.0928 64.4814 74.5811 63.8477 74.5811V73.8145Z"/>
<path d="M63.8477 72.2812C65.749 72.2812 67.3027 73.8248 67.3027 75.7363L67.293 75.7266H66.5264C66.5264 74.2443 65.3197 73.0479 63.8477 73.0479V72.2812Z"/>
<path d="M63.8477 70.748C66.5974 70.748 68.8368 72.9866 68.8369 75.7363L68.8262 75.7266H68.0596C68.0596 73.4061 66.1681 71.5146 63.8477 71.5146V70.748Z"/>
<path d="M52.1333 35.093H49.404C49.404 31.3312 46.3578 28.2748 42.5858 28.2748C38.8138 28.2748 35.7676 31.321 35.7676 35.093H33.0382C33.0382 29.8286 37.3111 25.5557 42.5756 25.5557C47.84 25.5557 52.1129 29.8286 52.1129 35.093H52.1333Z"/>
<path d="M59.2071 44.2213C58.4916 44.2213 57.7862 44.4155 57.1627 44.7733C56.4062 43.5671 55.0773 42.8311 53.6462 42.8311C52.9307 42.8311 52.2253 43.0253 51.6018 43.3831C50.5591 41.7475 48.5249 41.0422 46.6951 41.6862V34.4898C46.6951 32.1898 44.8244 30.3191 42.5244 30.3191C40.2244 30.3191 38.3538 32.1898 38.3538 34.4898V49.9049L35.2564 47.7889C34.5511 47.2573 33.6822 46.9813 32.7929 46.9813C30.4929 46.9813 28.6222 48.8418 28.612 51.1418C28.612 52.256 29.0516 53.3293 29.8489 54.1062L40.9604 64.2466C42.5347 65.6573 44.5689 66.4342 46.6849 66.424H53.6258C58.9924 66.424 63.3471 62.0693 63.3471 56.7027V48.3715C63.3471 46.0715 61.4764 44.2009 59.1764 44.2009L59.2071 44.2213ZM60.5871 56.7231C60.5871 60.5564 57.4796 63.664 53.6462 63.664H46.7053C45.3049 63.6844 43.9351 63.1835 42.872 62.2738L31.832 52.1333C31.5764 51.8778 31.4333 51.5302 31.4333 51.1622C31.4333 50.3955 32.0569 49.772 32.8236 49.772C33.12 49.772 33.4164 49.8742 33.6618 50.048L41.1649 55.1898V34.4898C41.1649 33.7231 41.7884 33.0995 42.5551 33.0995C43.3218 33.0995 43.9453 33.7231 43.9453 34.4898V49.772H46.7258V45.6013C46.7258 44.8346 47.3493 44.2111 48.116 44.2111C48.8827 44.2111 49.5062 44.8346 49.5062 45.6013V49.772H52.2867V46.9915C52.2867 46.2249 52.9102 45.6013 53.6769 45.6013C54.4436 45.6013 55.0671 46.2249 55.0671 46.9915V49.772H57.8476V48.3818C57.8476 47.6151 58.4711 46.9915 59.2378 46.9915C60.0044 46.9915 60.628 47.6151 60.628 48.3818V56.7129L60.5871 56.7231Z"/>
</g>
<defs>
<clipPath id="clip0_1451_4984">
<rect width="92" height="92"/>
</clipPath>
</defs>
</svg>
