<svg viewBox="0 0 92 92" xmlns="http://www.w3.org/2000/svg">
<g clip-path="url(#clip0_2652_3787)">
<path fill-rule="evenodd" clip-rule="evenodd" d="M80.7688 44.553L80.7734 44.552V44.5674L80.7688 44.553ZM76.4236 34.778L76.4191 34.7701H76.4344L76.4236 34.778ZM32.2185 20.8393L32.2164 20.8331H32.2317L32.2185 20.8393ZM11.2312 63.793L11.2266 63.794V63.7786L11.2312 63.793ZM15.5764 73.5681L15.5809 73.5759H15.5656L15.5764 73.5681ZM38.4199 25.4307L38.4259 25.4481L38.4106 25.4328L38.4199 25.4307ZM76.4083 73.5681L76.4191 73.5759H76.4037L76.4083 73.5681Z"/>
<path d="M40.1124 60.4209H28.7819V58.949L30.6678 57.1244C35.2061 52.8161 37.2453 50.5163 37.276 47.8331C37.276 46.0239 36.402 44.3681 33.7496 44.3681C32.1397 44.3681 30.8058 45.1807 29.9779 45.8706L29.2112 44.1687C30.4378 43.1262 32.1857 42.3749 34.2402 42.3749C38.0579 42.3749 39.6831 44.9967 39.6831 47.5418C39.6831 50.8229 37.3066 53.4754 33.5656 57.0785L32.1397 58.3817V58.443H40.1124V60.4209Z"/>
<path d="M54.1107 60.4209H42.7802V58.949L44.6661 57.1244C49.2044 52.8161 51.2436 50.5163 51.2743 47.8331C51.2743 46.0239 50.4003 44.3681 47.7479 44.3681C46.138 44.3681 44.8041 45.1807 43.9762 45.8706L43.2095 44.1687C44.4361 43.1262 46.184 42.3749 48.2385 42.3749C52.0562 42.3749 53.6814 44.9967 53.6814 47.5418C53.6814 50.8229 51.3049 53.4754 47.5639 57.0785L46.138 58.3817V58.443H54.1107V60.4209Z"/>
<path d="M19.8126 68.225L13.9864 70.8161L15.5764 73.5681L20.7325 69.8195L19.8126 68.225Z"/>
<path d="M18.0341 64.2233L17.4668 62.4601L11.2312 63.793L12.2078 66.8144L18.0341 64.2233Z"/>
<path d="M10 56.3578H16.3782L16.5622 58.1977L10.322 59.5316L10 56.3732V56.3578Z"/>
<path d="M10.322 48.8297L16.5622 50.1636L16.3782 52.0035H10L10.322 48.8451V48.8297Z"/>
<path d="M12.2078 41.5163L18.0341 44.1074L17.4668 45.8706L11.2266 44.5367L12.2078 41.5009V41.5163Z"/>
<path d="M19.8279 40.121L14.0017 37.5299L15.5963 34.7701L20.7632 38.5265L19.8433 40.121H19.8279Z"/>
<path d="M23.3237 35.0001L18.1567 31.2437L19.8433 29.3272L24.1976 33.9882L23.3083 34.9848L23.3237 35.0001Z"/>
<path d="M23.0477 26.3527L25.5928 24.4362L28.8739 29.9098L27.402 31.029L23.0477 26.3681V26.3527Z"/>
<path d="M32.6303 27.656L34.3015 26.874L32.2185 20.8393L29.3492 22.1824L32.6303 27.656Z"/>
<path d="M39.4378 18.6866L36.3407 19.4072L38.4199 25.4307L40.2198 25.0188L39.4378 18.6866Z"/>
<path d="M46.0153 18.104H46.9659L46.414 24.4669H46.0153L44.5741 24.4975L43.7922 18.1653L46.0153 18.104Z"/>
<path d="M50.063 24.7428L50.937 18.4413C59.8296 19.6526 67.7411 24.1449 73.368 30.6764L68.5383 34.8161C63.908 29.4345 57.3918 25.7394 50.063 24.7428Z"/>
<path d="M72.1874 40.121L78.0136 37.5299L76.4236 34.778L71.2675 38.5265L72.1874 40.121Z"/>
<path d="M82 51.9882H75.6218L75.4378 50.1483L81.678 48.8144L82 51.9728V51.9882Z"/>
<path d="M73.9659 44.1227L74.5332 45.8859L80.7688 44.553L79.7922 41.5316L73.9659 44.1227Z"/>
<path d="M81.678 59.5163L75.4378 58.1824L75.6218 56.3425H82L81.678 59.5009V59.5163Z"/>
<path d="M79.7922 66.8297L73.9659 64.2386L74.5332 62.4754L80.7734 63.8093L79.7922 66.8451V66.8297Z"/>
<path d="M72.1721 68.225L71.2521 69.8195L76.4083 73.5681L77.9983 70.8161L72.1721 68.225Z"/>
<path d="M59.9216 48.9217C57.7905 48.9217 56.3492 47.3118 56.3492 45.3953C56.3186 43.2948 57.9591 41.7156 59.983 41.7156C62.2215 41.7156 63.586 43.4021 63.586 45.2727C63.586 47.4805 61.8075 48.9371 59.9216 48.9371V48.9217Z"/>
<path fill-rule="evenodd" clip-rule="evenodd" d="M74.29 0C84.06 2.06939e-05 92 7.94999 92 17.71V74.2803C91.9998 84.0501 84.0499 91.9902 74.29 91.9902V92H17.71C7.93999 92 2.06903e-05 84.05 0 74.29V17.7197C0.000147958 7.94994 7.94994 0.000147967 17.7197 0H74.29ZM17.71 4.9502C10.67 4.95022 4.95022 10.68 4.9502 17.71V74.2803C4.95034 81.3201 10.6801 87.04 17.71 87.04H74.2803C81.3201 87.0399 87.0399 81.3201 87.04 74.2803V17.71C87.04 10.6701 81.3201 4.95034 74.2803 4.9502H17.71Z"/>
</g>
<defs>
<clipPath id="clip0_2652_3787">
<rect width="92" height="92"/>
</clipPath>
</defs>
</svg>
