<svg viewBox="0 0 92 92" xmlns="http://www.w3.org/2000/svg">
<g clip-path="url(#clip0_2652_3601)">
<path d="M15.8271 92C9.29511 92 4 86.7049 4 80.1729V11.8271C4 5.29511 9.29511 0 15.8271 0H76.4551C82.9871 0 88.2822 5.29511 88.2822 11.8271V80.1831C88.2822 86.7151 82.9871 92.0102 76.4551 92.0102H15.8271V92ZM8.54889 80.1729C8.54889 84.1902 11.8098 87.4511 15.8271 87.4511H76.4551C80.4724 87.4511 83.7333 84.1902 83.7333 80.1729V21.5178H8.54889V80.1729ZM83.7231 16.9791V11.8271C83.7231 7.80978 80.4622 4.54889 76.4449 4.54889H15.8271C11.8098 4.54889 8.54889 7.80978 8.54889 11.8271V16.9791H83.7231Z"/>
<path d="M50.3169 29.9717V75.9717H54.4978V71.5966C59.2409 70.6152 62.8596 66.3628 62.8596 61.3335V44.6099C62.8596 39.5908 59.2409 35.3281 54.4978 34.3468V29.9717H50.3169ZM67.0405 29.9717V75.9717H71.2214V71.5966C75.9645 70.6152 79.5831 66.3628 79.5831 61.3335V44.6099C79.5831 39.5908 75.9645 35.3281 71.2214 34.3468V29.9717H67.0405ZM54.4978 39.1819C56.8182 40.1019 58.6787 41.9623 58.6787 44.6099V61.3335C58.6787 63.981 56.8182 65.8312 54.4978 66.7615V39.1921V39.1819ZM71.2214 39.1819C73.5418 40.1019 75.4022 41.9623 75.4022 44.6099V61.3335C75.4022 63.981 73.5418 65.8312 71.2214 66.7615V39.1921V39.1819ZM12.6787 40.429V50.8863C12.6787 58.2259 18.1578 64.3081 25.2213 65.3303V71.801H18.9449V75.9819H35.6685V71.801H29.392V65.3303C36.4556 64.3081 41.9347 58.2259 41.9347 50.8863V40.429H12.6787ZM16.8596 44.6099H37.764V50.5899C37.764 55.7317 34.1658 60.3317 29.0956 61.1801C22.5533 62.2739 16.8596 57.2139 16.8596 50.8761V44.5997V44.6099Z"/>
<path d="M17.524 6.93045C14.6618 6.4909 12.2493 8.95445 12.7502 11.8167C13.0467 13.5033 14.4165 14.8731 16.1031 15.1696C18.9756 15.6705 21.4289 13.258 20.9893 10.3958C20.7236 8.63756 19.2822 7.19623 17.5138 6.92023"/>
<path d="M30.0667 6.93045C27.2045 6.4909 24.792 8.95445 25.2929 11.8167C25.5893 13.5033 26.9591 14.8731 28.6458 15.1696C31.5182 15.6705 33.9716 13.258 33.532 10.3958C33.2662 8.63756 31.8249 7.19623 30.0565 6.92023"/>
<path d="M42.84 7.05106C39.9778 6.6115 37.5654 9.07506 38.0662 11.9373C38.3627 13.6239 39.7325 14.9937 41.4191 15.2902C44.2916 15.7911 46.7449 13.3786 46.3054 10.5164C46.0396 8.75817 44.5982 7.31684 42.8298 7.04084"/>
</g>
<defs>
<clipPath id="clip0_2652_3601">
<rect width="92" height="92"/>
</clipPath>
</defs>
</svg>
