<svg viewBox="0 0 92 92" xmlns="http://www.w3.org/2000/svg">
<g clip-path="url(#clip0_1451_4698)">
<path d="M37.5566 54.3613C38.5789 58.3889 40.6641 62.0899 43.6797 65.1055L41.4717 67.3135C38.4529 64.2947 36.2424 60.6649 34.9756 56.7021L37.5566 54.3613Z"/>
<path d="M49.1992 37.5566C46.2656 40.5006 44.6406 44.4159 44.6406 48.5762C44.6407 52.7365 46.2553 56.6518 49.1992 59.5957L46.9912 61.8037C43.4544 58.2771 41.5127 53.5744 41.5127 48.5859V48.5654C41.5128 43.5772 43.4648 38.8752 46.9912 35.3486L49.1992 37.5566Z"/>
<path d="M54.6992 43.0762C51.6632 46.1224 51.6633 51.0597 54.6992 54.0957L52.4912 56.3037V56.2939C48.2388 52.0415 48.2388 45.1206 52.4912 40.8682L54.6992 43.0762Z"/>
<path d="M43.6797 32.0674C40.4513 35.2859 38.2877 39.2813 37.3564 43.6357L34.3467 42.79C35.4303 37.9346 37.8633 33.4678 41.4717 29.8594L43.6797 32.0674Z"/>
<path d="M71.9697 30.248C73.8241 30.2482 75.327 31.7532 75.3271 33.6104V62.6621C75.3271 64.5194 73.8242 66.0253 71.9697 66.0254C70.1152 66.0254 68.6113 64.5195 68.6113 62.6621V60.79C62.1668 60.419 57.0498 55.0722 57.0498 48.5352C57.0498 41.9981 62.1668 36.6503 68.6113 36.2793V33.6104C68.6115 31.7531 70.1153 30.248 71.9697 30.248Z"/>
<path d="M28.0804 36.933C29.8489 36.933 31.2902 35.369 31.2902 33.4472C31.2902 31.5254 29.8489 29.9614 28.0804 29.9614C26.312 29.9614 24.8707 31.5254 24.8707 33.4472C24.8707 35.369 26.312 36.933 28.0804 36.933ZM34.3978 47.7481L32.844 46.8894L32.2 44.753C31.2187 41.5125 28.4791 39.2534 25.3613 39.2432C22.9591 39.2432 21.62 39.9792 19.1258 41.073C17.6844 41.7068 16.4987 42.9028 15.8035 44.4259L15.3538 45.4174C14.8324 46.5623 15.2515 47.9525 16.3044 48.525C17.3471 49.0974 18.6147 48.6374 19.1462 47.4925L19.596 46.501C19.8311 45.9899 20.2195 45.5912 20.7 45.3868L22.4889 44.5997L21.4769 49.0054C21.1293 50.5183 21.5075 52.113 22.4684 53.2681L26.4755 58.0112C26.956 58.5837 27.2933 59.2685 27.4671 60.025L28.6938 65.3405C28.98 66.5774 30.1453 67.3441 31.2902 67.0272C32.4351 66.7103 33.1404 65.453 32.844 64.2161L31.3618 57.7556C31.188 57.0094 30.8506 56.3143 30.3702 55.7419L27.324 52.1334L28.4791 47.145L28.8471 48.341C29.2049 49.5063 29.9613 50.4774 30.9631 51.0294L32.5169 51.8881C33.5595 52.4605 34.8271 52.0005 35.3587 50.8556C35.8698 49.721 35.4507 48.3103 34.3978 47.7379V47.7481ZM19.0951 57.9601C18.8804 58.5428 18.5635 59.0743 18.1444 59.5241L14.8018 63.1632C13.9635 64.073 13.9635 65.545 14.8018 66.4445C15.64 67.3543 16.9893 67.3543 17.8275 66.4445L21.804 62.1308C22.2129 61.6912 22.5298 61.1597 22.7547 60.5668L23.6542 58.1134C19.9538 53.7383 21.068 55.0774 20.4853 54.2188L19.1053 57.9499L19.0951 57.9601Z"/>
<path d="M74.1111 92H17.8889C8.07556 92 0 83.9244 0 74.1111V17.8889C0 8.07556 8.07556 0 17.8889 0H74.1111C83.9244 0 92 8.07556 92 17.8889V74.1111C92 83.9244 83.9244 92 74.1111 92ZM17.8889 5.11111C10.8356 5.11111 5.11111 10.8356 5.11111 17.8889V74.1111C5.11111 81.1645 10.8356 86.8889 17.8889 86.8889H74.1111C81.1645 86.8889 86.8889 81.1645 86.8889 74.1111V17.8889C86.8889 10.8356 81.1645 5.11111 74.1111 5.11111H17.8889Z"/>
<path d="M74.0908 73.5586C74.7756 73.5586 75.3071 73.8967 76.3906 74.5713L77.4131 75.2051C78.4044 75.8183 78.956 76.1557 79.2627 76.7383C79.5796 77.3107 79.5801 77.9242 79.5801 79.1611V79.9375C79.5801 82.0327 79.58 83.0858 78.875 83.8115C78.1595 84.5475 77.1473 84.5479 75.1133 84.5479V83.7812C76.9324 83.7812 77.8418 83.781 78.3223 83.2803C78.8129 82.7692 78.8135 81.8286 78.8135 79.9375V79.1611C78.8135 78.0573 78.8132 77.5051 78.5986 77.1064C78.384 76.7078 77.9241 76.4214 77.0146 75.8594L75.9922 75.2256C74.0704 74.0296 74.1112 74.0296 72.1895 75.2256L71.167 75.8594C70.2574 76.4215 69.7977 76.7078 69.583 77.1064C69.4604 77.3313 69.3984 77.5968 69.3779 78.0566L68.6113 78.0156C68.642 77.4434 68.7242 77.0653 68.9082 76.7383C69.225 76.1659 69.7665 75.8285 70.7578 75.2051L71.7803 74.5713C72.8332 73.9171 73.4059 73.5586 74.0908 73.5586Z"/>
<path d="M68.9795 82.248C70.0324 82.248 70.9014 83.1068 70.9014 84.1699L70.8916 84.1592H70.124C70.1238 83.5256 69.6131 83.0146 68.9795 83.0146V82.248Z"/>
<path d="M68.9795 80.7148C70.8808 80.7148 72.4346 82.2584 72.4346 84.1699L72.4248 84.1592H71.6582C71.658 82.6771 70.4514 81.4814 68.9795 81.4814V80.7148Z"/>
<path d="M68.9795 79.1816C71.7293 79.1816 73.9678 81.4201 73.9678 84.1699L73.958 84.1592H73.1914C73.1912 81.8389 71.2998 79.9482 68.9795 79.9482V79.1816Z"/>
</g>
<defs>
<clipPath id="clip0_1451_4698">
<rect width="92" height="92"/>
</clipPath>
</defs>
</svg>
