<svg viewBox="0 0 92 92" xmlns="http://www.w3.org/2000/svg">
<g clip-path="url(#clip0_1045_3688)">
<path d="M74.11 92H17.89C8.08 92 0 83.92 0 74.11V17.89C0 8.08 8.08 0 17.89 0H74.11C83.92 0 92 8.08 92 17.89V74.11C92 83.92 83.92 92 74.11 92ZM17.89 5.11C10.84 5.11 5.11 10.83 5.11 17.89V74.11C5.11 81.16 10.83 86.89 17.89 86.89H74.11C81.16 86.89 86.89 81.17 86.89 74.11V17.89C86.89 10.84 81.17 5.11 74.11 5.11H17.89Z"/>
<path d="M19.08 34.7397V44.8897H30.81V34.7397H33.9799V58.9997H30.81V47.6197H19.08V58.9997H15.95V34.7397H19.08Z"/>
<path d="M39.4199 34.7397H42.5499V46.4397H42.6599C43.3099 45.4997 43.9599 44.6397 44.5699 43.8497L51.9899 34.7397H55.8799L47.0999 45.0297L56.5699 58.9997H52.8599L44.8699 47.0897L42.5699 49.7497V58.9997H39.4399V34.7397H39.4199Z"/>
<path d="M64.79 59L56.87 34.74H60.25L64.03 46.69C65.07 49.97 65.97 52.92 66.62 55.76H66.69C67.37 52.95 68.38 49.89 69.46 46.72L73.56 34.73H76.91L68.24 58.99H64.78L64.79 59Z"/>
</g>
<defs>
<clipPath id="clip0_1045_3688">
<rect width="92" height="92"/>
</clipPath>
</defs>
</svg>
