<svg viewBox="0 0 92 92" xmlns="http://www.w3.org/2000/svg">
<g clip-path="url(#clip0_1435_4354)">
<path d="M43.9883 41.1064L57.043 35.3408L57.2441 35.7979L57.7246 35.9385L48.7949 66.5273L53.5029 65.8105L43.7256 77.3223L39.834 63.2188L43.6035 65.3184L47.3613 47.127L34.0459 52.751L41.0488 22.7783L52.5264 17.1553L43.9883 41.1064Z"/>
<path d="M57.7246 35.9385L57.2441 35.7979L57.043 35.3408L58.0264 34.9062L57.7246 35.9385Z"/>
<path d="M74.1111 92H17.8889C8.07556 92 0 83.9244 0 74.1111V17.8889C0 8.07556 8.07556 0 17.8889 0H74.1111C83.9244 0 92 8.07556 92 17.8889V74.1111C92 83.9244 83.9244 92 74.1111 92ZM17.8889 5.11111C10.8356 5.11111 5.11111 10.8356 5.11111 17.8889V74.1111C5.11111 81.1645 10.8356 86.8889 17.8889 86.8889H74.1111C81.1645 86.8889 86.8889 81.1645 86.8889 74.1111V17.8889C86.8889 10.8356 81.1645 5.11111 74.1111 5.11111H17.8889Z"/>
</g>
<defs>
<clipPath id="clip0_1435_4354">
<rect width="92" height="92"/>
</clipPath>
</defs>
</svg>
