<svg viewBox="0 0 92 92" xmlns="http://www.w3.org/2000/svg">
<g clip-path="url(#clip0_1023_2041)">
<path d="M73.1129 92H18.8871C8.49647 92 0 83.5035 0 73.1129V18.8871C0 8.49647 8.49647 0 18.8871 0H73.1129C83.5035 0 92 8.49647 92 18.8871V73.1129C92 83.5035 83.5035 92 73.1129 92ZM18.8871 5.41177C11.4405 5.41177 5.41177 11.4405 5.41177 18.8871V73.1129C5.41177 80.5595 11.4405 86.5882 18.8871 86.5882H73.1129C80.5595 86.5882 86.5882 80.5595 86.5882 73.1129V18.8871C86.5882 11.4405 80.5595 5.41177 73.1129 5.41177H18.8871Z"/>
<path d="M46 74.6826C30.1976 74.6826 17.3176 61.8026 17.3176 46.0002C17.3176 30.1979 30.1976 17.3179 46 17.3179C61.8023 17.3179 74.6823 30.1979 74.6823 46.0002C74.6823 61.8026 61.8023 74.6826 46 74.6826ZM46 20.5649C31.9294 20.5649 20.5647 31.9296 20.5647 46.0002C20.5647 60.0708 31.9294 71.4355 46 71.4355C60.0706 71.4355 71.4353 60.0708 71.4353 46.0002C71.4353 31.9296 60.0706 20.5649 46 20.5649Z"/>
<path d="M35.1765 53.0354C31.28 53.0354 28.1412 49.8966 28.1412 46.0001C28.1412 42.1037 31.28 38.9648 35.1765 38.9648C39.0729 38.9648 42.2118 42.1037 42.2118 46.0001C42.2118 49.8966 39.0729 53.0354 35.1765 53.0354ZM35.1765 42.2119C33.12 42.2119 31.3882 43.9437 31.3882 46.0001C31.3882 48.0566 33.12 49.7884 35.1765 49.7884C37.2329 49.7884 38.9647 48.0566 38.9647 46.0001C38.9647 43.9437 37.2329 42.2119 35.1765 42.2119Z"/>
<path d="M56.8235 53.0354C52.927 53.0354 49.7882 49.8966 49.7882 46.0001C49.7882 42.1037 52.927 38.9648 56.8235 38.9648C60.72 38.9648 63.8588 42.1037 63.8588 46.0001C63.8588 49.8966 60.72 53.0354 56.8235 53.0354ZM56.8235 42.2119C54.767 42.2119 53.0353 43.9437 53.0353 46.0001C53.0353 48.0566 54.767 49.7884 56.8235 49.7884C58.88 49.7884 60.6117 48.0566 60.6117 46.0001C60.6117 43.9437 58.88 42.2119 56.8235 42.2119Z"/>
<path d="M23.1191 19.3741H15.5426C12.2631 19.3741 9.58966 16.7007 9.58966 13.4212C9.58966 10.1417 12.2631 7.46826 15.5426 7.46826H23.1191C26.3986 7.46826 29.072 10.1417 29.072 13.4212C29.072 16.7007 26.3986 19.3741 23.1191 19.3741ZM15.5426 9.63297C13.4537 9.63297 11.7544 11.3323 11.7544 13.4212C11.7544 15.5101 13.4537 17.2094 15.5426 17.2094H23.1191C25.208 17.2094 26.9073 15.5101 26.9073 13.4212C26.9073 11.3323 25.208 9.63297 23.1191 9.63297H15.5426Z"/>
<path d="M15.9106 17.2093C13.8217 17.2093 12.1224 15.51 12.1224 13.421C12.1224 11.3321 13.8217 9.63281 15.9106 9.63281C17.9996 9.63281 19.6988 11.3321 19.6988 13.421C19.6988 15.51 17.9996 17.2093 15.9106 17.2093ZM15.9106 10.7152C14.417 10.7152 13.2047 11.9274 13.2047 13.421C13.2047 14.9147 14.417 16.1269 15.9106 16.1269C17.4043 16.1269 18.6165 14.9147 18.6165 13.421C18.6165 11.9274 17.4043 10.7152 15.9106 10.7152Z"/>
</g>
<defs>
<clipPath id="clip0_1023_2041">
<rect width="92" height="92"/>
</clipPath>
</defs>
</svg>
