<svg viewBox="0 0 92 92" xmlns="http://www.w3.org/2000/svg">
<g clip-path="url(#clip0_1451_5316)">
<path d="M74.11 92H17.89C8.08 92 0 83.92 0 74.11V17.89C0 8.08 8.08 0 17.89 0H74.11C83.92 0 92 8.08 92 17.89V74.11C92 83.92 83.92 92 74.11 92ZM17.89 5.11C10.84 5.11 5.11 10.83 5.11 17.89V74.11C5.11 81.16 10.83 86.89 17.89 86.89H74.11C81.16 86.89 86.89 81.17 86.89 74.11V17.89C86.89 10.84 81.17 5.11 74.11 5.11H17.89Z"/>
<path d="M36.36 58.0501L49.82 38.3601V38.2501H37.51V35.6201H53.89V37.5301L40.5 57.1501V57.2601H54.07V59.8901H36.36V58.0501Z"/>
</g>
<defs>
<clipPath id="clip0_1451_5316">
<rect width="92" height="92"/>
</clipPath>
</defs>
</svg>
