<svg viewBox="0 0 92 92" xmlns="http://www.w3.org/2000/svg">
<g clip-path="url(#clip0_1045_3685)">
<path d="M74.11 92H17.89C8.08 92 0 83.92 0 74.11V17.89C0 8.08 8.08 0 17.89 0H74.11C83.92 0 92 8.08 92 17.89V74.11C92 83.92 83.92 92 74.11 92ZM17.89 5.11C10.84 5.11 5.11 10.83 5.11 17.89V74.11C5.11 81.16 10.83 86.89 17.89 86.89H74.11C81.16 86.89 86.89 81.17 86.89 74.11V17.89C86.89 10.84 81.17 5.11 74.11 5.11H17.89Z"/>
<path fill-rule="evenodd" clip-rule="evenodd" d="M46 12.3896C46.5523 12.3896 47 12.8383 47 13.3906V22.3906H61.2803C66.6102 22.3908 71 26.7804 71 32.1104V62.6699C71 67.9998 66.6102 72.3905 61.2803 72.3906H47V81.3906C46.9997 81.9427 46.5521 82.3906 46 82.3906C45.4479 82.3906 45.0003 81.9427 45 81.3906V72.3906H30.7197C25.3898 72.3905 21 67.9998 21 62.6699V32.1104C21 26.7804 25.3898 22.3908 30.7197 22.3906H45V13.3906C45 12.8383 45.4477 12.3896 46 12.3896ZM47 28.8906H49.8701C52.4201 28.8907 54.5 30.9705 54.5 33.5205V61.2598C54.5 63.8097 52.4201 65.8906 49.8701 65.8906H47V69.6104H61.2803C65.1101 69.6102 68.2197 66.4998 68.2197 62.6699V32.1104C68.2197 28.2804 65.1101 25.1701 61.2803 25.1699H47V28.8906ZM30.7197 25.1699C26.8899 25.1701 23.7803 28.2804 23.7803 32.1104V62.6699C23.7803 66.4998 26.8899 69.6102 30.7197 69.6104H45V65.8906H42.1299C39.5799 65.8906 37.5 63.8097 37.5 61.2598V33.5205C37.5 30.9705 39.5799 28.8907 42.1299 28.8906H45V25.1699H30.7197ZM47 63.8906H49.8701C51.3201 63.8906 52.5 62.7097 52.5 61.2598V33.5205C52.5 32.0705 51.3201 30.8907 49.8701 30.8906H47V63.8906ZM42.1299 30.8906C40.6799 30.8907 39.5 32.0705 39.5 33.5205V61.2598C39.5 62.7097 40.6799 63.8906 42.1299 63.8906H45V30.8906H42.1299Z"/>
</g>
<defs>
<clipPath id="clip0_1045_3685">
<rect width="92" height="92"/>
</clipPath>
</defs>
</svg>
