<svg viewBox="0 0 92 92" xmlns="http://www.w3.org/2000/svg">
<g clip-path="url(#clip0_1451_3575)">
<path d="M74.1111 92H17.8889C8.07556 92 0 83.9244 0 74.1111V17.8889C0 8.07556 8.07556 0 17.8889 0H74.1111C83.9244 0 92 8.07556 92 17.8889V74.1111C92 83.9244 83.9244 92 74.1111 92ZM17.8889 5.11111C10.8356 5.11111 5.11111 10.8356 5.11111 17.8889V74.1111C5.11111 81.1645 10.8356 86.8889 17.8889 86.8889H74.1111C81.1645 86.8889 86.8889 81.1645 86.8889 74.1111V17.8889C86.8889 10.8356 81.1645 5.11111 74.1111 5.11111H17.8889Z"/>
<path d="M80.7552 80.7552H11.2441V11.2441H80.7552V80.7552ZM14.3108 77.6886H77.6886V14.3108H14.3108V77.6886Z"/>
<path d="M46.8173 23.2041H45.1818V34.0397H46.8173V23.2041Z"/>
<path d="M50.1907 28.7241L49.4751 30.2575C52.5418 31.5863 54.5862 34.7552 54.5862 38.1286C54.5862 41.5019 50.7018 46.7152 45.9996 46.7152C41.2973 46.7152 37.4129 42.8308 37.4129 38.1286C37.4129 33.4263 39.4573 31.6886 42.524 30.2575L41.8085 28.7241C38.1285 30.3597 35.7773 34.0397 35.7773 38.0263C35.7773 42.013 40.3773 48.2486 45.9996 48.2486C51.6218 48.2486 56.2218 43.6486 56.2218 38.0263C56.2218 32.4041 53.8707 30.3597 50.1907 28.7241Z"/>
</g>
<defs>
<clipPath id="clip0_1451_3575">
<rect width="92" height="92"/>
</clipPath>
</defs>
</svg>
