<svg viewBox="0 0 92 92" xmlns="http://www.w3.org/2000/svg">
<g clip-path="url(#clip0_1451_3550)">
<path d="M74.1111 92H17.8889C8.07556 92 0 83.9244 0 74.1111V17.8889C0 8.07556 8.07556 0 17.8889 0H74.1111C83.9244 0 92 8.07556 92 17.8889V74.1111C92 83.9244 83.9244 92 74.1111 92ZM17.8889 5.11111C10.8356 5.11111 5.11111 10.8356 5.11111 17.8889V74.1111C5.11111 81.1645 10.8356 86.8889 17.8889 86.8889H74.1111C81.1645 86.8889 86.8889 81.1645 86.8889 74.1111V17.8889C86.8889 10.8356 81.1645 5.11111 74.1111 5.11111H17.8889Z"/>
<path d="M80.7552 80.7552H11.2441V11.2441H80.7552V80.7552ZM14.3108 77.6886H77.6886V14.3108H14.3108V77.6886Z"/>
<path d="M56.2218 70.8398H35.7773V72.3732H56.2218V70.8398Z"/>
<path d="M55.5067 73.8044H36.5956C35.3689 73.8044 34.3467 72.7822 34.3467 71.5555C34.3467 70.3289 35.3689 69.3066 36.5956 69.3066H55.5067C56.7333 69.3066 57.7556 70.3289 57.7556 71.5555C57.7556 72.7822 56.7333 73.8044 55.5067 73.8044Z"/>
</g>
<defs>
<clipPath id="clip0_1451_3550">
<rect width="92" height="92"/>
</clipPath>
</defs>
</svg>
