<svg viewBox="0 0 92 92" xmlns="http://www.w3.org/2000/svg">
<path fill-rule="evenodd" clip-rule="evenodd" d="M34 19C45.598 19 55 28.402 55 40C55 51.598 45.598 61 34 61C22.402 61 13 51.598 13 40C13 28.402 22.402 19 34 19ZM34 22C24.0589 22 16 30.0589 16 40C16 49.9411 24.0589 58 34 58C43.9411 58 52 49.9411 52 40C52 30.0589 43.9411 22 34 22Z"/>
<path fill-rule="evenodd" clip-rule="evenodd" d="M33.7498 29.75C35.4631 29.75 36.7581 30.3785 37.5067 30.8672C38.216 31.3304 38.4997 32.1167 38.4998 32.8291V33.001C38.4997 33.9744 38.1415 35.0599 37.6707 36.0713C37.2834 36.9032 36.7956 37.733 36.2957 38.4834C36.72 39.0183 36.9802 39.6884 36.9979 40.4199C38.5701 40.2947 40.0238 39.3786 41.0086 38.4541C41.6345 37.8665 42.6262 37.6417 43.4598 38.123C43.9004 38.3776 44.2541 38.8159 44.3494 39.374L44.4207 39.8633C44.5789 41.1719 44.6257 43.5897 43.326 45.8408C42.4695 47.324 41.2787 48.1312 40.4813 48.5352C39.7255 48.918 38.9021 48.771 38.285 48.415L38.1365 48.3291C37.284 47.8369 36.5148 46.9696 35.869 46.043C35.3485 45.2961 34.879 44.4658 34.4832 43.665C34.2474 43.7194 34.0021 43.75 33.7498 43.75C33.1991 43.75 32.6809 43.6119 32.2264 43.3701C31.6059 44.7711 31.6778 46.4322 31.9774 47.71C32.1729 48.5455 31.8713 49.5169 31.0379 49.998C30.5974 50.2523 30.0408 50.3401 29.5096 50.1436C28.4594 49.7549 25.9073 48.5962 24.4217 46.0234C23.5652 44.5399 23.4608 43.1046 23.5096 42.2119C23.5502 41.4718 23.9683 40.8901 24.4852 40.5176L24.7127 40.3701L24.8612 40.2852C25.704 39.7985 26.8223 39.5658 27.9334 39.4678C28.8354 39.3882 29.785 39.3928 30.6746 39.4482C30.9221 38.7244 31.4169 38.1146 32.0594 37.7227C31.1503 36.551 29.7275 35.8185 28.5115 35.4512C27.6899 35.203 27.0001 34.4555 26.9998 33.4932C26.9999 32.9845 27.2022 32.4593 27.6375 32.0977C28.4992 31.3825 30.7788 29.7501 33.7498 29.75ZM30.5301 40.9434C29.7154 40.8945 28.8617 40.8917 28.0653 40.9619C27.0319 41.0531 26.1721 41.2601 25.6112 41.584L25.4627 41.6699C25.1615 41.8439 25.0194 42.081 25.0076 42.2939C24.9695 42.9924 25.0514 44.1145 25.7205 45.2734C26.9426 47.3899 29.0908 48.3888 30.0301 48.7363L30.0809 48.749C30.1369 48.7558 30.2088 48.7438 30.2879 48.6982C30.4608 48.5982 30.5856 48.3475 30.5164 48.0518C30.1563 46.5153 30.0228 44.2541 31.0643 42.3301C31.0628 42.3278 31.0609 42.3255 31.0594 42.3232C30.8217 41.9731 30.6507 41.5742 30.5643 41.1445C30.556 41.1035 30.5495 41.0621 30.5428 41.0205C30.5399 41.0023 30.5366 40.9841 30.534 40.9658C30.5329 40.9583 30.5311 40.9509 30.5301 40.9434ZM42.7098 39.4229C42.5366 39.3229 42.2567 39.3389 42.035 39.5469C40.8613 40.6487 38.9127 41.9246 36.6658 41.9336C36.5925 42.0826 36.5074 42.2244 36.4129 42.3594C36.3709 42.4195 36.327 42.4781 36.2811 42.5352C36.2608 42.5604 36.2396 42.5848 36.2186 42.6094C36.1702 42.666 36.1203 42.7213 36.0682 42.7744C36.0503 42.7927 36.0318 42.8103 36.0135 42.8281C35.9534 42.8866 35.8924 42.9443 35.8279 42.998C36.1973 43.7459 36.6292 44.5108 37.0994 45.1855C37.7011 46.0489 38.3185 46.7024 38.8865 47.0303L39.035 47.1162C39.336 47.2897 39.6124 47.2934 39.8026 47.1973C40.4264 46.8813 41.3579 46.2498 42.0272 45.0908C43.2488 42.9748 43.0394 40.6148 42.8709 39.627C42.8601 39.5637 42.8148 39.4837 42.7098 39.4229ZM33.7498 38.751C33.614 38.751 33.4827 38.7662 33.3572 38.7949C32.6363 38.9603 32.0848 39.5703 32.0086 40.3213C32.0027 40.3798 31.9998 40.4396 31.9998 40.5C31.9998 40.5602 32.0027 40.6201 32.0086 40.6787C32.0981 41.5613 32.8437 42.2499 33.7498 42.25C34.0459 42.25 34.3247 42.1757 34.5692 42.0459C34.6948 41.979 34.8097 41.896 34.9149 41.8018C35.056 41.6754 35.1771 41.5281 35.2713 41.3623C35.3368 41.247 35.3905 41.1245 35.4285 40.9951C35.4748 40.8381 35.4998 40.672 35.4998 40.5C35.4998 39.9573 35.2528 39.4724 34.8651 39.1514L34.7401 39.0576C34.4585 38.864 34.118 38.751 33.7498 38.751ZM33.7498 31.251C31.3057 31.251 29.3662 32.6123 28.5955 33.252C28.5463 33.2932 28.4999 33.3721 28.4998 33.4932C28.5001 33.6931 28.6542 33.9277 28.9451 34.0156C30.4314 34.4646 32.4101 35.4521 33.5653 37.2549C33.6263 37.2515 33.6879 37.25 33.7498 37.25C33.9276 37.25 34.1022 37.2645 34.2723 37.292C34.2919 37.2952 34.3114 37.2992 34.3309 37.3027C34.3672 37.3093 34.4034 37.3165 34.4393 37.3242C34.4576 37.3282 34.4758 37.3327 34.494 37.3369C34.527 37.3447 34.5599 37.3526 34.5926 37.3613C34.6046 37.3645 34.6168 37.3668 34.6287 37.3701L34.7166 37.3965L34.7947 37.4219C34.8056 37.4255 34.8162 37.4298 34.827 37.4336C34.8545 37.4433 34.8818 37.4535 34.909 37.4639C34.9355 37.474 34.9619 37.4843 34.9881 37.4951C35.0223 37.5092 35.0561 37.5239 35.0897 37.5391C35.0978 37.5427 35.106 37.5461 35.1141 37.5498C35.5561 36.8776 35.9791 36.1521 36.3113 35.4385C36.7492 34.4979 36.9997 33.6489 36.9998 33.001V32.8291C36.9997 32.4811 36.8649 32.2397 36.6863 32.123C36.1007 31.7408 35.0883 31.251 33.7498 31.251Z"/>
<path d="M81.5 54C82.3284 54 83 54.6716 83 55.5C83 56.3284 82.3284 57 81.5 57H68.5C67.6716 57 67 56.3284 67 55.5C67 54.6716 67.6716 54 68.5 54H81.5Z"/>
<path d="M81.5 45C82.3284 45 83 45.6716 83 46.5C83 47.3284 82.3284 48 81.5 48H68.5C67.6716 48 67 47.3284 67 46.5C67 45.6716 67.6716 45 68.5 45H81.5Z"/>
<path d="M81.5 36C82.3284 36 83 36.6716 83 37.5C83 38.3284 82.3284 39 81.5 39H68.5C67.6716 39 67 38.3284 67 37.5C67 36.6716 67.6716 36 68.5 36H81.5Z"/>
<path d="M81.5 28C82.3284 28 83 28.6716 83 29.5C83 30.3284 82.3284 31 81.5 31H68.5C67.6716 31 67 30.3284 67 29.5C67 28.6716 67.6716 28 68.5 28H81.5Z"/>
<path d="M81.5 20C82.3284 20 83 20.6716 83 21.5C83 22.3284 82.3284 23 81.5 23H68.5C67.6716 23 67 22.3284 67 21.5C67 20.6716 67.6716 20 68.5 20H81.5Z"/>
<path fill-rule="evenodd" clip-rule="evenodd" d="M78 6C85.732 6 92 12.268 92 20V60C92 67.732 85.732 74 78 74H77.7305C77.9009 74.2944 78 74.6354 78 75V83C78 84.1046 77.1046 85 76 85C74.8954 85 74 84.1046 74 83V75C74 74.6354 74.0991 74.2944 74.2695 74H17.7305C17.9009 74.2944 18 74.6354 18 75V83C18 84.1046 17.1046 85 16 85C14.8954 85 14 84.1046 14 83V75C14 74.6354 14.0991 74.2944 14.2695 74H14C6.26801 74 0 67.732 0 60V20C5.07353e-07 12.3888 6.07368 6.19654 13.6387 6.00488L14 6H78ZM14 9C7.92487 9 3 13.9249 3 20V60C3 66.0751 7.92487 71 14 71H78C84.0751 71 89 66.0751 89 60V20C89 13.9249 84.0751 9 78 9H14Z"/>
</svg>
