<svg viewBox="0 0 92 92" xmlns="http://www.w3.org/2000/svg">
<path d="M76.6629 77.94H15.3369C7.13706 77.94 0.5 71.22 0.5 62.94V28.5C0.5 20.22 7.14695 13.5 15.3369 13.5H76.6531C84.8529 13.5 91.49 20.22 91.49 28.5V62.94C91.49 71.23 84.843 77.94 76.6531 77.94H76.6629ZM15.3369 17.33C9.23401 17.33 4.28836 22.33 4.28836 28.5V62.94C4.28836 69.11 9.23401 74.11 15.3369 74.11H76.6531C82.756 74.11 87.7016 69.11 87.7016 62.94V28.5C87.7016 22.33 82.756 17.33 76.6531 17.33H15.3369Z"/>
<path d="M12.63 30.4399H30.02V33.9399H16.79V44.6699H29.01V48.1199H16.79V62.7399H12.62V30.4399H12.63Z"/>
<path d="M35.96 30.88C37.78 30.5 40.66 30.21 43.58 30.21C47.75 30.21 50.43 30.93 52.45 32.56C54.13 33.81 55.13 35.72 55.13 38.26C55.13 41.38 53.07 44.11 49.67 45.35V45.45C52.74 46.22 56.33 48.76 56.33 53.55C56.33 56.33 55.23 58.44 53.6 60.02C51.35 62.08 47.71 63.04 42.44 63.04C39.56 63.04 37.36 62.85 35.97 62.66V30.89L35.96 30.88ZM40.13 44.1H43.92C48.33 44.1 50.92 41.8 50.92 38.69C50.92 34.9 48.04 33.42 43.83 33.42C41.91 33.42 40.81 33.56 40.14 33.71V44.11L40.13 44.1ZM40.13 59.58C40.94 59.72 42.14 59.77 43.63 59.77C47.94 59.77 51.92 58.19 51.92 53.49C51.92 49.08 48.13 47.26 43.58 47.26H40.13V59.58Z"/>
<path d="M61.93 30.4399H79.33V33.9399H66.1V44.6699H78.32V48.1199H66.1V62.7399H61.93V30.4399Z"/>
</svg>
