<svg viewBox="0 0 92 92" xmlns="http://www.w3.org/2000/svg">
<path d="M92 42.0889H0V47.2H92V42.0889Z"/>
<path d="M92 72.1016H0V77.2127H92V72.1016Z"/>
<path d="M21.0164 50.3301L2.89935 68.4408C2.44418 68.8958 2.44405 69.6336 2.89907 70.0888L2.90629 70.096C3.36131 70.5512 4.09915 70.5513 4.55432 70.0963L22.6714 51.9856C23.1265 51.5306 23.1267 50.7928 22.6716 50.3376L22.6644 50.3304C22.2094 49.8752 21.4716 49.8751 21.0164 50.3301Z"/>
<path d="M2.90951 50.3203L2.90228 50.3275C2.44711 50.7825 2.44699 51.5204 2.902 51.9755L21.0127 70.0926C21.4677 70.5477 22.2056 70.5479 22.6607 70.0929L22.668 70.0856C23.1231 69.6306 23.1233 68.8928 22.6683 68.4376L4.55754 50.3206C4.10253 49.8654 3.36468 49.8653 2.90951 50.3203Z"/>
<path d="M44.0017 50.3301L25.8847 68.4408C25.4295 68.8958 25.4294 69.6336 25.8844 70.0888L25.8916 70.096C26.3467 70.5512 27.0845 70.5513 27.5397 70.0963L45.6567 51.9856C46.1119 51.5306 46.112 50.7928 45.657 50.3376L45.6498 50.3304C45.1948 49.8752 44.4569 49.8751 44.0017 50.3301Z"/>
<path d="M25.8949 50.3198L25.8876 50.327C25.4325 50.782 25.4323 51.5199 25.8873 51.975L43.9981 70.0921C44.4531 70.5472 45.1909 70.5474 45.6461 70.0924L45.6533 70.0851C46.1085 69.6301 46.1086 68.8923 45.6536 68.4371L27.5429 50.3201C27.0879 49.8649 26.35 49.8648 25.8949 50.3198Z"/>
<path d="M66.4646 50.331L48.3476 68.4418C47.8924 68.8968 47.8923 69.6346 48.3473 70.0898L48.3545 70.097C48.8095 70.5522 49.5474 70.5523 50.0026 70.0973L68.1196 51.9866C68.5748 51.5316 68.5749 50.7937 68.1199 50.3386L68.1127 50.3313C67.6577 49.8762 66.9198 49.876 66.4646 50.331Z"/>
<path d="M48.3509 50.3276L48.3437 50.3348C47.8885 50.7898 47.8884 51.5277 48.3434 51.9829L66.4541 70.0999C66.9091 70.5551 67.647 70.5552 68.1021 70.1002L68.1094 70.0929C68.5645 69.6379 68.5647 68.9001 68.1097 68.4449L49.999 50.3279C49.5439 49.8727 48.8061 49.8726 48.3509 50.3276Z"/>
<path d="M88.6931 50.331L70.5761 68.4418C70.1209 68.8968 70.1208 69.6346 70.5758 70.0898L70.5831 70.097C71.0381 70.5522 71.7759 70.5523 72.2311 70.0973L90.3481 51.9866C90.8033 51.5316 90.8034 50.7937 90.3484 50.3386L90.3412 50.3313C89.8862 49.8762 89.1483 49.876 88.6931 50.331Z"/>
<path d="M70.5868 50.3203L70.5795 50.3275C70.1244 50.7825 70.1242 51.5204 70.5792 51.9755L88.69 70.0926C89.145 70.5477 89.8828 70.5479 90.338 70.0929L90.3452 70.0856C90.8004 69.6306 90.8005 68.8928 90.3455 68.4376L72.2348 50.3206C71.7798 49.8654 71.0419 49.8653 70.5868 50.3203Z"/>
<path d="M3.39355 15.1636H7.278V34.8209H20.1478V37.2129H3.39355V15.1636Z" stroke="black" stroke-miterlimit="10"/>
<path d="M49.0051 26.8782H37.3007V34.8311H50.3443V37.2231H33.4163V15.1636H49.6798V17.5556H37.3007V24.5271H49.0051V26.8782Z" stroke="black" stroke-miterlimit="10"/>
<path d="M64.3282 15.46C66.6998 15.1942 69.5109 15 72.5878 15C78.1691 15 82.1456 15.9507 84.7829 17.7498C87.4611 19.5489 89.0251 22.1044 89.0251 25.6618C89.0251 29.2191 87.502 32.204 84.6909 34.228C81.8798 36.2929 77.2287 37.3969 71.3816 37.3969C68.6114 37.3969 66.2909 37.2947 64.3282 37.1311V15.46ZM68.2127 34.9538C69.194 35.0867 70.6251 35.1173 72.1482 35.1173C80.4589 35.1173 84.9669 31.7133 84.9669 25.764C85.0078 20.5609 80.9905 17.2591 72.7718 17.2591C70.758 17.2591 69.2451 17.392 68.2127 17.5556V34.9538Z" stroke="black" stroke-miterlimit="10"/>
</svg>
