<svg viewBox="0 0 92 92" xmlns="http://www.w3.org/2000/svg">
<g clip-path="url(#clip0_2652_3773)">
<path fill-rule="evenodd" clip-rule="evenodd" d="M19.35 22.1699V32.8299C19.35 35.7699 21.74 38.1599 24.68 38.1599H25.48L27.56 52.2599C27.95 54.8999 30.22 56.8499 32.89 56.8199H59.22C61.89 56.8499 64.16 54.8999 64.55 52.2599L66.52 38.1599H67.32C70.26 38.1599 72.65 35.7699 72.65 32.8299V22.1699H19.35ZM59.17 51.4899H32.84L30.87 38.1599H61.15L59.18 51.4899H59.17ZM67.32 32.8299H24.68V27.4999H67.33V32.8299H67.32ZM38 48.8199L36.67 40.8199H40.67L42 48.8199H38ZM38.46 68.3099C39.52 69.5699 40.12 71.1599 40.14 72.8099C40.14 74.5699 39.46 76.2499 38.25 77.5299C37.87 77.9299 37.46 78.2899 37.02 78.6199L36.59 78.9099C36.54 78.9299 36.48 78.9299 36.43 78.9099L35.34 77.1199L34.33 75.2499H34.52C34.74 75.0999 34.93 74.9199 35.11 74.7199C35.62 74.2099 35.89 73.5199 35.88 72.7999C35.88 72.1099 35.64 71.7099 34.97 70.7999C33.93 69.5499 33.34 67.9799 33.29 66.3499C33.34 64.5699 33.96 62.8499 35.05 61.4499C35.38 60.9799 35.75 60.5399 36.17 60.1399L36.54 59.7699H36.67L38.03 61.4199L39.39 63.0699L39.18 63.2799C38.93 63.5299 38.69 63.8099 38.49 64.1099C37.93 64.7799 37.6 65.6099 37.56 66.4799C37.56 67.1699 37.8 67.5699 38.49 68.4799L38.46 68.2899V68.3099ZM49.12 68.3099C50.18 69.5699 50.78 71.1599 50.8 72.8099C50.8 74.5699 50.12 76.2499 48.91 77.5299C48.53 77.9299 48.12 78.2899 47.68 78.6199L47.25 78.9099C47.2 78.9299 47.14 78.9299 47.09 78.9099L46.08 77.0399L45.07 75.1699H45.26C45.48 75.0199 45.67 74.8399 45.85 74.6399C46.31 74.1399 46.55 73.4799 46.54 72.7999C46.54 72.1099 46.3 71.7099 45.63 70.7999C44.59 69.5499 44 67.9799 43.95 66.3499C44 64.5699 44.62 62.8499 45.71 61.4499C46.04 60.9799 46.41 60.5399 46.83 60.1399L47.2 59.7699H47.33L48.69 61.4199L50.05 63.0699L49.84 63.2799C49.59 63.5299 49.35 63.8099 49.15 64.1099C48.59 64.7799 48.26 65.6099 48.22 66.4799C48.22 67.1699 48.46 67.5699 49.15 68.4799L49.12 68.2899V68.3099ZM59.78 68.3099C60.84 69.5699 61.44 71.1599 61.46 72.8099C61.46 74.5699 60.78 76.2499 59.57 77.5299C59.19 77.9299 58.78 78.2899 58.34 78.6199L57.91 78.9099C57.86 78.9299 57.8 78.9299 57.75 78.9099L56.74 77.0399L55.73 75.1699H55.92C56.14 75.0199 56.33 74.8399 56.51 74.6399C56.97 74.1399 57.21 73.4799 57.2 72.7999C57.2 72.1099 56.96 71.7099 56.29 70.7999C55.25 69.5499 54.66 67.9799 54.61 66.3499C54.66 64.5699 55.28 62.8499 56.37 61.4499C56.7 60.9799 57.07 60.5399 57.49 60.1399L57.86 59.7699L59.22 61.4199L60.58 63.0699L60.37 63.2799C60.12 63.5299 59.88 63.8099 59.68 64.1099C59.12 64.7799 58.79 65.6099 58.75 66.4799C58.75 67.1699 58.99 67.5699 59.68 68.4799L59.79 68.2899L59.78 68.3099Z"/>
<path d="M74.59 5C81.43 5 87 10.57 87 17.41V74.59C87 81.43 81.43 87 74.59 87H17.41C10.57 87 5 81.43 5 74.59V17.41C5 10.57 10.57 5 17.41 5H74.59ZM74.59 0H17.41C7.79 0 0 7.79 0 17.41V74.59C0 84.2 7.79 92 17.41 92H74.59C84.2 92 92 84.21 92 74.59V17.41C92 7.8 84.21 0 74.59 0Z"/>
</g>
<defs>
<clipPath id="clip0_2652_3773">
<rect width="92" height="92"/>
</clipPath>
</defs>
</svg>
