<svg viewBox="0 0 92 92" xmlns="http://www.w3.org/2000/svg">
<g clip-path="url(#clip0_2652_3765)">
<path d="M74.59 5C81.43 5 87 10.57 87 17.41V74.59C87 81.43 81.43 87 74.59 87H17.41C10.57 87 5 81.43 5 74.59V17.41C5 10.57 10.57 5 17.41 5H74.59ZM74.59 0H17.41C7.79 0 0 7.79 0 17.41V74.59C0 84.2 7.79 92 17.41 92H74.59C84.2 92 92 84.21 92 74.59V17.41C92 7.8 84.21 0 74.59 0Z"/>
<path d="M49.3052 3.34653L47.3052 3.35596L47.707 88.605L49.7069 88.5956L49.3052 3.34653Z"/>
<path d="M73.4857 3.50278L71.4857 3.51221L71.8874 88.7613L73.8874 88.7518L73.4857 3.50278Z"/>
<path d="M59.34 68.4301H61.38C64.82 68.4301 67.62 65.0701 67.62 60.9301V37.8901C67.62 33.7501 64.82 30.3901 61.38 30.3901H59.34C55.9 30.3901 53.1 33.7501 53.1 37.8901V38.9701H57.98C59.67 38.9701 61.04 40.3401 61.04 42.0301C61.04 43.7201 59.67 45.0901 57.98 45.0901H53.1V60.9201C53.1 65.0601 55.9 68.4201 59.34 68.4201V68.4301Z"/>
<path d="M24.16 53.3599L11.5 74.9299H36.81L24.15 53.3599H24.16ZM23.37 59.3599H25.06C25.11 59.3599 25.15 59.3999 25.15 59.4499L24.88 68.6299C24.88 68.6299 24.84 68.7199 24.79 68.7199H23.64C23.64 68.7199 23.55 68.6799 23.55 68.6299L23.28 59.4499C23.28 59.3999 23.32 59.3599 23.37 59.3599ZM24.11 72.7199C23.63 72.6899 23.15 72.2299 23.08 71.7599C22.96 70.9699 23.43 70.3599 24.12 70.3099C24.82 70.2599 25.4 70.9099 25.36 71.6099C25.32 72.2799 24.84 72.7799 24.11 72.7299V72.7199Z"/>
<path d="M58.19 39.71H29.13C28.0972 39.71 27.26 40.5472 27.26 41.58V42.29C27.26 43.3227 28.0972 44.16 29.13 44.16H58.19C59.2228 44.16 60.06 43.3227 60.06 42.29V41.58C60.06 40.5472 59.2228 39.71 58.19 39.71Z"/>
</g>
<defs>
<clipPath id="clip0_2652_3765">
<rect width="92" height="92"/>
</clipPath>
</defs>
</svg>
