<svg viewBox="0 0 92 92" xmlns="http://www.w3.org/2000/svg">
<g clip-path="url(#clip0_1023_2067)">
<path d="M34.46 24.4102C38.25 24.4102 41.3496 27.5203 41.3496 31.3203C41.3495 35.1202 38.2499 38.2305 34.46 38.2305C30.67 38.2304 27.5704 35.1202 27.5703 31.3203C27.5703 27.5203 30.67 24.4102 34.46 24.4102Z" fill-opacity="0.5"/>
<path d="M57.4297 24.4102C61.2197 24.4102 64.3203 27.5203 64.3203 31.3203C64.3202 35.1202 61.2196 38.2305 57.4297 38.2305C53.6399 38.2303 50.5401 35.1201 50.54 31.3203C50.54 27.5204 53.6398 24.4103 57.4297 24.4102Z" fill-opacity="0.5"/>
<path d="M45.9397 53.8799C49.7297 53.8799 52.8303 56.99 52.8303 60.79C52.8302 64.59 49.7296 67.7002 45.9397 67.7002C42.1499 67.7 39.0501 64.5899 39.05 60.79C39.05 56.9902 42.1498 53.8801 45.9397 53.8799Z" fill-opacity="0.5"/>
<path d="M28.7097 43.6401C32.4997 43.6401 35.6003 46.7503 35.6003 50.5503C35.6002 54.3502 32.4996 57.4604 28.7097 57.4604C24.9199 57.4603 21.8201 54.3501 21.82 50.5503C21.82 46.7504 24.9198 43.6403 28.7097 43.6401Z" fill-opacity="0.5"/>
<path d="M63.1696 43.6401C66.9596 43.6401 70.0603 46.7503 70.0603 50.5503C70.0602 54.3502 66.9596 57.4604 63.1696 57.4604C59.3799 57.4603 56.2801 54.3501 56.28 50.5503C56.28 46.7504 59.3798 43.6403 63.1696 43.6401Z" fill-opacity="0.5"/>
<path d="M72.93 6.1H64.32V3.57C64.32 1.61 62.48 0 60.3 0H31.59C29.41 0 27.57 1.61 27.57 3.57V6.1H18.96C8.5 6.1 0 13.7 0 22.91V71.04C0 75.65 2.07 79.91 5.51 82.9C10.91 87.74 17.57 87.85 18.83 87.85H39.39C40.31 90.27 42.84 92 45.94 92C49.04 92 51.45 90.27 52.49 87.85H73.05C83.5 87.85 92 80.37 92 71.04V22.91C92 13.58 83.5 6.1 73.05 6.1H72.94H72.93ZM64.32 10.94H72.93C80.4 10.94 86.48 16.35 86.48 23.03V35.12C82.8 25.22 74.76 17.16 64.31 12.78V10.94H64.32ZM58.58 2.07H60.3C61.22 2.07 62.02 2.76 62.02 3.57V11.86C60.87 11.4 59.72 11.05 58.57 10.71V2.07H58.58ZM29.86 3.57C29.86 2.76 30.66 2.07 31.58 2.07H33.3V10.71C32.15 11.06 31 11.4 29.85 11.86V3.57H29.86ZM5.4 23.03C5.4 16.35 11.49 10.94 18.95 10.94H27.56V12.67C17.11 17.05 9.07 25.22 5.39 35.01V22.92V23.04L5.4 23.03ZM18.95 83.13C11.48 83.13 5.4 77.72 5.4 71.04V58.95C9.76 70.58 20.33 79.79 33.42 83.36L18.83 83.13H18.94H18.95ZM50.54 81.75V85.9C50.54 86.94 50.31 87.28 49.97 87.97C49.17 89.24 47.67 90.04 45.95 90.04C44.23 90.04 42.73 89.23 41.93 87.97C41.59 87.39 41.36 86.7 41.36 85.9V81.75C32.17 80.83 23.79 76.91 17.58 71.16C11.38 65.4 7.36 57.8 6.78 49.4C5.63 32.82 17.35 18.54 33.89 13.82C34.46 13.7 35.04 13.47 35.61 13.36V2.07H56.28V13.35C56.85 13.47 57.43 13.58 58 13.81C73.74 18.3 85.22 31.54 85.22 47.09C85.22 62.64 70.63 79.22 51.57 81.75H50.54ZM86.49 71.16C86.49 77.84 80.4 83.25 72.94 83.25H59.39C72.14 79.45 82.25 70.47 86.5 59.07V71.16H86.49Z"/>
</g>
<defs>
<clipPath id="clip0_1023_2067">
<rect width="92" height="92"/>
</clipPath>
</defs>
</svg>
