<svg viewBox="0 0 92 92" xmlns="http://www.w3.org/2000/svg">
<path fill-rule="evenodd" clip-rule="evenodd" d="M85.2383 0.91014C85.8775 0.106465 86.9623 -0.2032 87.9307 0.135726C88.8989 0.474684 89.5477 1.39452 89.5479 2.42088V84.1367C89.5478 85.1631 88.8989 86.0829 87.9307 86.4219C87.6693 86.5187 87.398 86.5576 87.127 86.5576L87.1367 86.5478C86.4104 86.5478 85.7129 86.2284 85.248 85.6377C71.2738 68.1674 59.0813 59.3067 49.0098 59.3066H46.8955L56.7275 88.7851C57.2504 90.3636 56.0787 92 54.4131 92H32.6729C31.6173 92 30.6867 91.3314 30.3574 90.334L20.0088 59.3066H19.0469C10.1957 59.3163 3.00024 52.1208 3 43.2793C3 34.4376 10.1954 27.2422 19.0371 27.2422H41.1367V27.2324H45.9785V27.2422H49C59.0716 27.2422 71.264 18.3805 85.2383 0.91014ZM28.5176 59.3252C26.8521 59.3254 25.6705 60.9626 26.2031 62.541L33.8535 85.4922C34.1827 86.4895 35.1223 87.158 36.168 87.1582H47.7021C49.3678 87.1582 50.5492 85.5209 50.0166 83.9424L42.3662 60.9912C42.0369 59.9937 41.0976 59.3252 40.0518 59.3252H28.5176ZM84.7158 9.12303C71.371 24.5597 59.6526 32.0742 49 32.0742H45.9785V54.4639H49C59.6526 54.4639 71.371 61.9891 84.7158 77.416V9.12303ZM19.0371 32.0742C12.8586 32.0742 7.8418 37.1007 7.8418 43.2695C7.84199 49.4382 12.8684 54.4639 19.0371 54.4639H41.1367V32.0742H19.0371Z"/>
</svg>
