<svg viewBox="0 0 92 92" xmlns="http://www.w3.org/2000/svg">
<g clip-path="url(#clip0_1451_4721)">
<path d="M61.6299 12.9922C63.4872 12.9923 64.9932 14.4961 64.9932 16.3506C64.9931 18.205 63.4872 19.7079 61.6299 19.708H59.748C59.3825 26.1577 54.0329 31.2803 47.4922 31.2803C40.9516 31.2801 35.6019 26.1576 35.2363 19.708H32.5781C30.7208 19.708 29.2149 18.2051 29.2148 16.3506C29.2148 14.496 30.7208 12.9922 32.5781 12.9922H61.6299Z"/>
<path d="M74.1111 92H17.8889C8.07556 92 0 83.9244 0 74.1111V17.8889C0 8.07556 8.07556 0 17.8889 0H74.1111C83.9244 0 92 8.07556 92 17.8889V74.1111C92 83.9244 83.9244 92 74.1111 92ZM17.8889 5.11111C10.8356 5.11111 5.11111 10.8356 5.11111 17.8889V74.1111C5.11111 81.1645 10.8356 86.8889 17.8889 86.8889H74.1111C81.1645 86.8889 86.8889 81.1645 86.8889 74.1111V17.8889C86.8889 10.8356 81.1645 5.11111 74.1111 5.11111H17.8889Z"/>
<path d="M74.0391 73.4053C74.724 73.4053 75.2563 73.7433 76.3398 74.418L77.3613 75.0518C78.3529 75.6651 78.9052 76.0125 79.2119 76.585C79.5288 77.1574 79.5293 77.771 79.5293 79.0078V79.7842C79.5293 81.8797 79.5285 82.9324 78.8232 83.6582C78.1077 84.3942 77.0957 84.3945 75.0615 84.3945V83.6279C76.8811 83.6279 77.791 83.6278 78.2715 83.127C78.7621 82.6158 78.7617 81.6752 78.7617 79.7842V79.0078C78.7617 77.9041 78.7623 77.3518 78.5479 76.9531C78.3332 76.5545 77.8727 76.2683 76.9629 75.7061L75.9404 75.0723C74.0189 73.8764 74.0602 73.8764 72.1387 75.0723L71.1162 75.7061C70.2064 76.2683 69.7459 76.5545 69.5312 76.9531C69.4087 77.1779 69.3476 77.4437 69.3271 77.9033L68.5605 77.8623C68.5912 77.2902 68.6726 76.9119 68.8564 76.585C69.1733 76.0125 69.7156 75.6753 70.707 75.0518L71.7295 74.418C72.8128 73.7435 73.3544 73.4054 74.0391 73.4053Z"/>
<path d="M68.9287 82.1055C69.9814 82.1056 70.8504 82.9635 70.8506 84.0264L70.8398 84.0166H70.0732C70.0732 83.3829 69.5624 82.8722 68.9287 82.8721V82.1055Z"/>
<path d="M68.9287 80.5713C70.8298 80.5714 72.3836 82.115 72.3838 84.0264L72.373 84.0166H71.6064C71.6064 82.5345 70.4006 81.338 68.9287 81.3379V80.5713Z"/>
<path d="M68.9287 79.0381C71.6782 79.0382 73.9168 81.2769 73.917 84.0264L73.9062 84.0166H73.1396C73.1396 81.6962 71.249 79.8048 68.9287 79.8047V79.0381Z"/>
<path fill-rule="evenodd" clip-rule="evenodd" d="M46.3066 79.7334C39.8155 79.7334 34.5511 74.2542 34.5511 68.1005C34.5511 66.6694 34.5817 65.5142 35.5733 64.4C35.4608 65.044 37.0044 70.5845 42.0133 70.2982C41.7986 66.0867 40.6537 55.7725 45.9488 52.2049C45.4786 57.8067 46.8586 65.3405 52.9817 66.4445C52.6342 64.1956 52.6751 60.4542 54.2493 59.7694C54.4231 63.2142 56.9684 65.3405 56.9684 68.6422C56.9684 74.6325 51.1724 79.7334 46.3168 79.7334H46.3066ZM55.9257 56.1813C51.4382 57.4591 50.6204 61.0778 50.9168 63.388C47.7173 59.6262 47.8502 55.3022 47.8502 49.0769C37.5973 52.9409 39.9791 64.0934 39.6724 67.4769C37.0964 65.3609 36.6057 60.3213 36.6057 60.3213C33.8866 61.7218 32.5168 65.4631 32.5168 68.4991C32.5168 75.8387 38.4662 81.788 45.8057 81.788C53.1453 81.788 59.0946 75.8387 59.0946 68.4991C59.0946 64.1342 55.8951 62.1307 55.9257 56.1813Z"/>
<path fill-rule="evenodd" clip-rule="evenodd" d="M38.7729 40.5925C39.6315 41.6148 40.112 42.9028 40.1324 44.2419C40.1324 45.6628 39.5804 47.0325 38.5991 48.065C38.2924 48.3921 37.9653 48.6885 37.6075 48.9543L37.26 49.1894C37.26 49.1894 37.168 49.1996 37.1271 49.1894L36.2378 47.7379L35.42 46.225H35.5733C35.7471 46.1023 35.9106 45.9592 36.0435 45.7956C36.4524 45.3868 36.6773 44.8245 36.6671 44.2419C36.6671 43.6796 36.4729 43.3525 35.9311 42.6165C35.0826 41.6045 34.6124 40.3268 34.5715 39.0081C34.6124 37.5668 35.1133 36.1765 35.9924 35.0316C36.2582 34.6534 36.5649 34.2956 36.9022 33.9685L37.2089 33.6619H37.3213L38.4253 35.001L39.5293 36.3401L39.3555 36.5139C39.1511 36.7183 38.9569 36.9432 38.7933 37.1885C38.3333 37.7303 38.0675 38.405 38.0369 39.1103C38.0369 39.6725 38.2311 39.9996 38.7933 40.7356L38.7729 40.5823V40.5925ZM47.4106 40.5925C48.2693 41.6148 48.7498 42.9028 48.7702 44.2419C48.7702 45.6628 48.2182 47.0325 47.2369 48.065C46.9302 48.3921 46.6031 48.6885 46.2453 48.9543L45.8978 49.1894C45.8978 49.1894 45.8058 49.1996 45.7649 49.1894L44.9471 47.6765L44.1293 46.1636H44.2826C44.4564 46.041 44.62 45.8979 44.7529 45.7343C45.1209 45.3254 45.3253 44.7939 45.3151 44.2419C45.3151 43.6796 45.1209 43.3525 44.5791 42.6165C43.7306 41.6045 43.2604 40.3268 43.2195 39.0081C43.2604 37.5668 43.7613 36.1765 44.6404 35.0316C44.9062 34.6534 45.2129 34.2956 45.5502 33.9685L45.8569 33.6619H45.9693L47.0733 35.001L48.1773 36.3401L48.0035 36.5139C47.7991 36.7183 47.6049 36.9432 47.4413 37.1885C46.9813 37.7303 46.7155 38.405 46.6849 39.1103C46.6849 39.6725 46.8791 39.9996 47.4413 40.7356L47.4209 40.5823L47.4106 40.5925ZM56.0586 40.5925C56.9173 41.6148 57.3978 42.9028 57.4182 44.2419C57.4182 45.6628 56.8662 47.0325 55.8849 48.065C55.5782 48.3921 55.2511 48.6885 54.8933 48.9543L54.5458 49.1894C54.5458 49.1894 54.4538 49.1996 54.4129 49.1894L53.5951 47.6765L52.7773 46.1636H52.9306C53.1044 46.041 53.268 45.8979 53.4009 45.7343C53.7689 45.3254 53.9733 44.7939 53.9631 44.2419C53.9631 43.6796 53.7689 43.3525 53.2271 42.6165C52.3786 41.6045 51.9084 40.3268 51.8675 39.0081C51.9084 37.5668 52.4093 36.1765 53.2884 35.0316C53.5542 34.6534 53.8609 34.2956 54.1982 33.9685L54.5049 33.6619L55.6089 35.001L56.7129 36.3401L56.5391 36.5139C56.3346 36.7183 56.1404 36.9432 55.9769 37.1885C55.5169 37.7303 55.2511 38.405 55.2204 39.1103C55.2204 39.6725 55.4146 39.9996 55.9769 40.7356L56.0586 40.5823V40.5925Z"/>
</g>
<defs>
<clipPath id="clip0_1451_4721">
<rect width="92" height="92"/>
</clipPath>
</defs>
</svg>
