<svg viewBox="0 0 92 92" xmlns="http://www.w3.org/2000/svg">
<path d="M66.5102 43.1276V80.5102C66.5102 86.8582 61.3582 92 55.0102 92H20.5C14.152 92 9 86.8582 9 80.4898V11.5102C9 5.152 14.152 0 20.5 0H55C61.348 0 66.5 5.17244 66.5 11.4898V25.8724H75.1173C79.8911 25.8724 83.7347 29.716 83.7347 34.4898C83.7347 39.2636 79.8809 43.1071 75.1173 43.1071H66.5L66.5102 43.1276ZM34.8827 34.5C34.8827 36.1049 36.1604 37.3724 37.7653 37.3724H75.1378C76.7427 37.3724 78.0204 36.0947 78.0204 34.5C78.0204 32.9053 76.7427 31.6276 75.1378 31.6276H37.7653C36.1502 31.6173 34.8827 32.8951 34.8827 34.5ZM49.2551 25.8724C46.5973 22.3458 42.3858 20.1173 37.7551 20.1173C29.8124 20.1173 23.3827 26.5471 23.3827 34.4898C23.3827 42.4324 29.8124 48.8724 37.7551 48.8724C42.3858 48.8724 46.6076 46.6542 49.2551 43.1173H37.7551C32.9813 43.1173 29.1378 39.2738 29.1378 34.5C29.1378 29.7262 32.9916 25.8827 37.7551 25.8827H49.2551V25.8724ZM60.7551 25.8724V11.4898C60.7551 8.33111 58.1791 5.74489 55 5.74489H20.5C17.3311 5.74489 14.7449 8.32089 14.7449 11.5102V80.4898C14.7449 83.6791 17.3107 86.2551 20.5 86.2551H55C58.1689 86.2551 60.7551 83.6893 60.7551 80.5102V43.1276H52.7C49.7151 48.2796 44.144 51.7449 37.7653 51.7449C28.2382 51.7449 20.5102 44.0271 20.5102 34.4898C20.5102 24.9524 28.228 17.2347 37.7653 17.2347C44.144 17.2347 49.7253 20.7 52.7 25.852H60.7551V25.8724Z"/>
<path d="M32.1635 62.3453V69.8177H30.4973V62.3453C30.4973 59.1355 33.1039 56.5288 36.3137 56.5288C39.5235 56.5288 42.1302 59.1355 42.1302 62.3453V64.8395C42.1302 64.8395 42.1302 65.6675 41.3022 65.6675C40.4742 65.6675 40.4742 64.8395 40.4742 64.8395V62.3453C40.4742 60.0555 38.6137 58.195 36.3239 58.195C34.0444 58.195 32.1737 60.0555 32.1737 62.3453H32.1635ZM28.0133 72.3119C28.0133 70.9319 29.1275 69.8177 30.4973 69.8177H42.1302C43.4999 69.8177 44.6142 70.9319 44.6142 72.3119V76.4621C44.6142 80.1319 41.6395 83.1066 37.9697 83.1066H34.6475C30.9777 83.1066 28.0031 80.1319 28.0031 76.4621V72.3119H28.0133ZM29.6693 72.3119V76.4621C29.6693 79.2119 31.9079 81.4506 34.6475 81.4506H37.9697C40.7195 81.4506 42.9479 79.2221 42.9479 76.4621V72.3119C42.9479 71.8519 42.5799 71.4737 42.1199 71.4737H30.4871C30.0271 71.4737 29.6591 71.8519 29.6591 72.3119H29.6693Z"/>
<path d="M36.3241 78.9562C34.9441 78.9562 33.8298 77.842 33.8298 76.462C33.8298 75.082 34.9441 73.9678 36.3241 73.9678C37.7041 73.9678 38.8183 75.082 38.8183 76.462C38.8183 77.842 37.7041 78.9562 36.3241 78.9562ZM36.3241 78.1282C37.2441 78.1282 37.9903 77.382 37.9903 76.462C37.9903 75.542 37.2441 74.7958 36.3241 74.7958C35.4041 74.7958 34.6578 75.542 34.6578 76.462C34.6578 77.382 35.4041 78.1282 36.3241 78.1282Z"/>
</svg>
