<svg viewBox="0 0 92 92" xmlns="http://www.w3.org/2000/svg">
<g clip-path="url(#clip0_2652_3758)">
<path d="M64.07 83.4698C69.27 83.4698 73.5 79.2398 73.5 74.0398C73.5 71.2998 72.36 68.8898 70.21 66.9398C69.81 66.5798 69.72 66.3798 69.72 65.8398L69.76 49.6198C69.76 45.8498 67.47 43.3398 64.07 43.3398C60.67 43.3398 58.36 45.8498 58.36 49.6198L58.38 65.8398C58.38 66.3798 58.29 66.5798 57.91 66.9398C55.74 68.8898 54.62 71.2898 54.62 74.0398C54.62 79.2398 58.83 83.4698 64.06 83.4698H64.07ZM64.07 80.8498C60.31 80.8498 57.26 77.7798 57.26 74.0398C57.26 71.7798 58.33 69.7398 60.24 68.4598C60.8 68.0798 61.02 67.7398 61.02 66.9998V49.7398C61.02 47.4598 62.27 45.9998 64.07 45.9998C65.87 45.9998 67.09 47.4598 67.09 49.7398V66.9998C67.09 67.7398 67.31 68.0798 67.87 68.4598C69.78 69.7398 70.85 71.7798 70.85 74.0398C70.85 77.7798 67.82 80.8498 64.08 80.8498H64.07ZM73.12 49.9698H77.06C77.69 49.9698 78.13 49.4798 78.13 48.9198C78.13 48.3598 77.7 47.8698 77.06 47.8698H73.12C72.49 47.8698 72.05 48.3598 72.05 48.9198C72.05 49.4798 72.48 49.9698 73.12 49.9698ZM73.12 55.0498H77.06C77.69 55.0498 78.13 54.5598 78.13 53.9998C78.13 53.4398 77.7 52.9498 77.06 52.9498H73.12C72.49 52.9498 72.05 53.4398 72.05 53.9998C72.05 54.5598 72.48 55.0498 73.12 55.0498ZM64.05 78.4098C66.47 78.4098 68.42 76.4598 68.42 74.0198C68.42 72.3198 67.46 70.9298 66.07 70.1698C65.49 69.8598 65.29 69.6498 65.29 68.7598V59.1698C65.29 58.2298 64.75 57.6698 64.04 57.6698C63.33 57.6698 62.79 58.2298 62.79 59.1698V68.7598C62.79 69.6398 62.59 69.8598 62.01 70.1698C60.62 70.9298 59.66 72.3198 59.66 74.0198C59.66 76.4598 61.61 78.4098 64.03 78.4098H64.05ZM73.12 60.1198H77.06C77.69 60.1198 78.13 59.6298 78.13 59.0698C78.13 58.5098 77.7 57.9998 77.06 57.9998H73.12C72.49 57.9998 72.05 58.5098 72.05 59.0698C72.05 59.6298 72.48 60.1198 73.12 60.1198ZM73.12 65.1898H77.06C77.69 65.1898 78.13 64.6798 78.13 64.1198C78.13 63.5598 77.7 63.0698 77.06 63.0698H73.12C72.49 63.0698 72.05 63.5598 72.05 64.1198C72.05 64.6798 72.48 65.1898 73.12 65.1898Z"/>
<path d="M51.99 45.5102H50.62C50.19 44.0802 48.92 43.0402 47.42 42.9702C46.69 41.3002 45.09 40.2302 43.25 40.2302C42.55 40.2302 41.92 40.4002 41.32 40.6602V39.2302H49.39C49.62 39.2302 49.86 39.1002 49.96 38.9002C50.06 38.7002 50.06 38.4302 49.89 38.2302L44.42 30.8902H48.36C48.59 30.8902 48.83 30.7602 48.93 30.5202C49.03 30.3202 49 30.0502 48.86 29.8502L43.72 23.3802H45.85C46.08 23.3802 46.32 23.2502 46.42 23.0502C46.52 22.8502 46.49 22.5802 46.35 22.3802L40.35 14.4102L40.32 14.3802L40.29 14.3502L40.22 14.2802H40.19C40.19 14.2802 40.16 14.2502 40.12 14.2502C40.12 14.2502 40.09 14.2502 40.09 14.2202C40.06 14.2202 40.06 14.1902 40.02 14.1902H39.62C39.62 14.1902 39.59 14.1902 39.55 14.2202C39.55 14.2202 39.52 14.2202 39.52 14.2502C39.49 14.2502 39.49 14.2802 39.45 14.2802H39.42L39.35 14.3502L39.32 14.3802L39.29 14.4102L38.36 15.6402L33.86 9.6702L33.83 9.6402L33.8 9.6102L33.73 9.5402H33.7C33.7 9.5402 33.67 9.5102 33.63 9.5102C33.63 9.5102 33.6 9.5102 33.6 9.4802C33.57 9.4802 33.57 9.4502 33.53 9.4502H33.2C33.2 9.4502 33.17 9.4502 33.13 9.4802H33.1L33.03 9.5102H33L32.93 9.5802L32.9 9.6102L32.87 9.6402L28.07 16.0102L26.84 14.4102L26.81 14.3802L26.78 14.3502C26.78 14.3502 26.75 14.3202 26.71 14.2802H26.68C26.68 14.2802 26.65 14.2502 26.61 14.2502C26.61 14.2502 26.58 14.2502 26.58 14.2202C26.55 14.2202 26.55 14.1902 26.51 14.1902H26.11C26.11 14.1902 26.08 14.1902 26.04 14.2202C26.04 14.2202 26.01 14.2202 26.01 14.2502C25.98 14.2502 25.98 14.2802 25.94 14.2802H25.91C25.91 14.2802 25.88 14.3102 25.84 14.3502L25.81 14.3802L25.78 14.4102L19.84 22.3802C19.71 22.5802 19.67 22.8102 19.77 23.0502C19.87 23.2502 20.1 23.3802 20.34 23.3802H22.47L17.33 29.9202C17.2 30.1202 17.16 30.3502 17.26 30.5902C17.36 30.7902 17.59 30.9602 17.83 30.9602H21.77L16.3 38.3002C16.17 38.5002 16.13 38.7302 16.23 38.9702C16.33 39.1702 16.56 39.3002 16.8 39.3002H24.87V40.6702C24.3 40.4402 23.7 40.3002 23.07 40.3002C20.94 40.3002 19.1 41.8002 18.63 43.8402C17.83 44.1702 17.16 44.7702 16.8 45.5702H14.77C14.44 45.5702 14.14 45.8402 14.14 46.2002C14.14 46.5302 14.41 46.8302 14.77 46.8302H52.06C52.39 46.8302 52.69 46.5602 52.69 46.2002C52.66 45.8002 52.39 45.5002 52.02 45.5002L51.99 45.5102ZM40.08 45.5102H38.45C38.72 45.2102 39.08 44.9802 39.52 44.8802C39.75 44.8102 39.92 44.6102 39.99 44.3802C40.22 42.7502 41.62 41.5402 43.26 41.5402C44.73 41.5402 46 42.4702 46.43 43.8402C46.53 44.1102 46.8 44.3102 47.06 44.2702H47.26C48.16 44.2702 48.93 44.8002 49.29 45.5702H40.08V45.5002V45.5102ZM35.01 45.5102V39.2702H38.38V44.0102C37.78 44.3402 37.28 44.8802 36.98 45.5102H35.01ZM32.98 45.5102V39.1702H33.78V45.5102H32.98ZM30.41 45.5102C30.04 44.2802 29.04 43.3402 27.81 43.0702V39.2702H31.71V45.5102H30.41ZM26.54 45.5102H18.23C18.5 45.2102 18.86 44.9802 19.3 44.8802C19.53 44.8102 19.7 44.6102 19.77 44.3802C20 42.7502 21.4 41.5402 23.04 41.5402C24.51 41.5402 25.78 42.4702 26.21 43.8402C26.31 44.1102 26.58 44.3102 26.84 44.2702H27.04C27.94 44.2702 28.71 44.8002 29.07 45.5702H26.53V45.5002L26.54 45.5102ZM23.47 30.7002C23.6 30.5002 23.64 30.2702 23.54 30.0302C23.44 29.8302 23.21 29.7002 22.97 29.7002H19.07L24.21 23.1602C24.34 22.9602 24.38 22.7302 24.28 22.4902C24.18 22.2902 23.95 22.1202 23.71 22.1202H21.54L26.31 15.8202L27.24 17.0502L25.64 19.1502C25.51 19.3502 25.47 19.5802 25.57 19.8202C25.67 20.0202 25.9 20.1502 26.14 20.1502H28.94L22.67 28.1902C22.54 28.3902 22.5 28.6202 22.6 28.8602C22.7 29.0602 22.93 29.2302 23.17 29.2302H28.11L21.54 38.0402H18L23.47 30.7002ZM33.35 11.0902L39.29 18.9302H36.45C36.22 18.9302 35.98 19.0602 35.88 19.3002C35.78 19.5002 35.81 19.7702 35.95 19.9702L42.25 28.0102H37.38C37.15 28.0102 36.91 28.1402 36.81 28.3402C36.71 28.5402 36.71 28.8102 36.88 29.0102L43.55 37.9502H23.17L29.84 29.0102C29.97 28.8102 30.01 28.5802 29.91 28.3402C29.81 28.1402 29.58 28.0102 29.34 28.0102H24.44L30.74 19.9702C30.87 19.7702 30.91 19.5402 30.81 19.3002C30.71 19.1002 30.48 18.9302 30.24 18.9302H27.4L33.34 11.0902H33.35ZM39.85 15.8602L44.62 22.1602H42.45C42.22 22.1602 41.98 22.2902 41.88 22.5302C41.78 22.7302 41.81 23.0002 41.95 23.2002L47.09 29.7402H43.22C42.99 29.7402 42.75 29.8702 42.65 30.0702C42.55 30.2702 42.55 30.5402 42.72 30.7402L48.19 38.0802H45.19L38.62 29.2402H43.56C43.79 29.2402 44.03 29.1102 44.13 28.8702C44.23 28.6702 44.2 28.4002 44.06 28.2002L37.76 20.1902H40.56C40.79 20.1902 41.03 20.0602 41.13 19.8602C41.23 19.6602 41.2 19.3902 41.06 19.1902L39.19 16.7202L39.86 15.8502L39.85 15.8602ZM40.08 41.5702C39.91 41.7402 39.78 41.9002 39.61 42.0702V39.2702H40.08V41.5702ZM26.11 39.2702H26.58V41.9102C26.45 41.7402 26.28 41.5802 26.11 41.4402V39.2702Z"/>
<path fill-rule="evenodd" clip-rule="evenodd" d="M74.2803 0C84.0501 0.000148994 92 7.95007 92 17.71V74.2803C91.9998 84.0501 84.0501 91.9998 74.2803 92H17.71C7.94007 92 0.000148816 84.0501 0 74.2803V17.7197C0.000147959 7.94986 7.95007 2.07162e-05 17.71 0H74.2803ZM17.71 4.9502C10.67 4.95022 4.95022 10.68 4.9502 17.71V74.2803C4.95034 81.3201 10.6801 87.04 17.71 87.04H74.2803C81.3201 87.0399 87.0399 81.3101 87.04 74.2803V17.71C87.04 10.6701 81.3101 4.95034 74.2803 4.9502H17.71Z"/>
</g>
<defs>
<clipPath id="clip0_2652_3758">
<rect width="92" height="92"/>
</clipPath>
</defs>
</svg>
