<svg viewBox="0 0 92 92" xmlns="http://www.w3.org/2000/svg">
<path fill-rule="evenodd" clip-rule="evenodd" d="M77 16C85.2843 16 92 22.7157 92 31V61C92 69.2843 85.2843 76 77 76H15C6.71573 76 0 69.2843 0 61V31C0 22.7157 6.71573 16 15 16H77ZM15 19C8.37258 19 3 24.3726 3 31V61C3 67.6274 8.37258 73 15 73H77C83.6274 73 89 67.6274 89 61V31C89 24.3726 83.6274 19 77 19H15Z"/>
<path d="M61 25V67H9V25H61ZM11 65H59V27H11V65Z"/>
<path fill-rule="evenodd" clip-rule="evenodd" d="M71 60C72.1046 60 73 60.8954 73 62C73 63.1046 72.1046 64 71 64C69.8954 64 69 63.1046 69 62C69 60.8954 69.8954 60 71 60ZM71 61C70.4477 61 70 61.4477 70 62C70 62.5523 70.4477 63 71 63C71.5523 63 72 62.5523 72 62C72 61.4477 71.5523 61 71 61Z"/>
<path fill-rule="evenodd" clip-rule="evenodd" d="M76 60C77.1046 60 78 60.8954 78 62C78 63.1046 77.1046 64 76 64C74.8954 64 74 63.1046 74 62C74 60.8954 74.8954 60 76 60ZM76 61C75.4477 61 75 61.4477 75 62C75 62.5523 75.4477 63 76 63C76.5523 63 77 62.5523 77 62C77 61.4477 76.5523 61 76 61Z"/>
<path fill-rule="evenodd" clip-rule="evenodd" d="M81 60C82.1046 60 83 60.8954 83 62C83 63.1046 82.1046 64 81 64C79.8954 64 79 63.1046 79 62C79 60.8954 79.8954 60 81 60ZM81 61C80.4477 61 80 61.4477 80 62C80 62.5523 80.4477 63 81 63C81.5523 63 82 62.5523 82 62C82 61.4477 81.5523 61 81 61Z"/>
<path fill-rule="evenodd" clip-rule="evenodd" d="M71 55C72.1046 55 73 55.8954 73 57C73 58.1046 72.1046 59 71 59C69.8954 59 69 58.1046 69 57C69 55.8954 69.8954 55 71 55ZM71 56C70.4477 56 70 56.4477 70 57C70 57.5523 70.4477 58 71 58C71.5523 58 72 57.5523 72 57C72 56.4477 71.5523 56 71 56Z"/>
<path fill-rule="evenodd" clip-rule="evenodd" d="M76 55C77.1046 55 78 55.8954 78 57C78 58.1046 77.1046 59 76 59C74.8954 59 74 58.1046 74 57C74 55.8954 74.8954 55 76 55ZM76 56C75.4477 56 75 56.4477 75 57C75 57.5523 75.4477 58 76 58C76.5523 58 77 57.5523 77 57C77 56.4477 76.5523 56 76 56Z"/>
<path fill-rule="evenodd" clip-rule="evenodd" d="M81 55C82.1046 55 83 55.8954 83 57C83 58.1046 82.1046 59 81 59C79.8954 59 79 58.1046 79 57C79 55.8954 79.8954 55 81 55ZM81 56C80.4477 56 80 56.4477 80 57C80 57.5523 80.4477 58 81 58C81.5523 58 82 57.5523 82 57C82 56.4477 81.5523 56 81 56Z"/>
<path fill-rule="evenodd" clip-rule="evenodd" d="M71 50C72.1046 50 73 50.8954 73 52C73 53.1046 72.1046 54 71 54C69.8954 54 69 53.1046 69 52C69 50.8954 69.8954 50 71 50ZM71 51C70.4477 51 70 51.4477 70 52C70 52.5523 70.4477 53 71 53C71.5523 53 72 52.5523 72 52C72 51.4477 71.5523 51 71 51Z"/>
<path fill-rule="evenodd" clip-rule="evenodd" d="M76 50C77.1046 50 78 50.8954 78 52C78 53.1046 77.1046 54 76 54C74.8954 54 74 53.1046 74 52C74 50.8954 74.8954 50 76 50ZM76 51C75.4477 51 75 51.4477 75 52C75 52.5523 75.4477 53 76 53C76.5523 53 77 52.5523 77 52C77 51.4477 76.5523 51 76 51Z"/>
<path fill-rule="evenodd" clip-rule="evenodd" d="M81 50C82.1046 50 83 50.8954 83 52C83 53.1046 82.1046 54 81 54C79.8954 54 79 53.1046 79 52C79 50.8954 79.8954 50 81 50ZM81 51C80.4477 51 80 51.4477 80 52C80 52.5523 80.4477 53 81 53C81.5523 53 82 52.5523 82 52C82 51.4477 81.5523 51 81 51Z"/>
<path fill-rule="evenodd" clip-rule="evenodd" d="M34.5 32.6455C39.1711 32.6457 42.9588 36.4333 42.959 41.1045C42.9588 44.4304 41.0372 47.3057 38.2451 48.6875C42.7804 50.2432 46.0409 54.5417 46.041 59.6045C46.0408 60.0186 45.7051 60.3545 45.291 60.3545C44.8772 60.3541 44.5412 60.0183 44.541 59.6045C44.5409 54.0589 40.0455 49.5638 34.5 49.5635C28.9542 49.5635 24.4581 54.0587 24.458 59.6045C24.4578 60.0186 24.1221 60.3545 23.708 60.3545C23.2941 60.3543 22.9582 60.0184 22.958 59.6045C22.9581 54.5418 26.2189 50.2432 30.7539 48.6875C27.9624 47.3056 26.0422 44.4301 26.042 41.1045C26.0422 36.4333 29.8289 32.6457 34.5 32.6455ZM34.5 34.1465C30.6573 34.1467 27.5422 37.2618 27.542 41.1045C27.5423 44.9471 30.6573 48.0633 34.5 48.0635C38.3427 48.0633 41.4587 44.9471 41.459 41.1045C41.4588 37.2618 38.3427 34.1466 34.5 34.1465Z"/>
<path d="M79.5 28C79.7761 28 80 28.2239 80 28.5C80 28.7761 79.7761 29 79.5 29H73.5C73.2239 29 73 28.7761 73 28.5C73 28.2239 73.2239 28 73.5 28H79.5Z"/>
<path d="M79.5 36C79.7761 36 80 36.2239 80 36.5C80 36.7761 79.7761 37 79.5 37H73.5C73.2239 37 73 36.7761 73 36.5C73 36.2239 73.2239 36 73.5 36H79.5Z"/>
<path d="M82.5 31C82.7761 31 83 31.2239 83 31.5C83 31.7761 82.7761 32 82.5 32H70.5C70.2239 32 70 31.7761 70 31.5C70 31.2239 70.2239 31 70.5 31H82.5Z"/>
<path d="M82.5 33C82.7761 33 83 33.2239 83 33.5C83 33.7761 82.7761 34 82.5 34H70.5C70.2239 34 70 33.7761 70 33.5C70 33.2239 70.2239 33 70.5 33H82.5Z"/>
</svg>
