<svg viewBox="0 0 92 92" xmlns="http://www.w3.org/2000/svg">
<path d="M69.26 1H25.39C21.87 1 19 3.87 19 7.4V84.61C19 88.14 21.87 91.01 25.4 91.01H69.26C72.79 91.01 75.66 88.14 75.66 84.61V7.4C75.66 3.87 72.79 1 69.26 1ZM72.41 84.61C72.41 86.35 70.99 87.77 69.25 87.77H25.39C23.65 87.77 22.23 86.35 22.23 84.61V7.4C22.23 5.66 23.65 4.24 25.39 4.24H69.25C70.99 4.24 72.41 5.66 72.41 7.4V84.61Z"/>
<path d="M69.26 0H25.39C21.31 0 18 3.32 18 7.4V84.61C18 88.69 21.31 92 25.39 92H69.26C73.33 92 76.65 88.69 76.65 84.61V7.4C76.65 3.32 73.33 0 69.26 0ZM71.41 84.61C71.41 85.8 70.45 86.77 69.26 86.77H25.39C24.2 86.77 23.23 85.8 23.23 84.61V7.4C23.23 6.21 24.2 5.24 25.39 5.24H69.26C70.45 5.24 71.41 6.21 71.41 7.4V84.61Z"/>
<path d="M64.48 39.04H30.17C29.28 39.04 28.55 39.76 28.55 40.66V50.05C28.55 50.94 29.27 51.67 30.17 51.67H64.4901C65.3801 51.67 66.1101 50.95 66.1101 50.05V40.66C66.1101 39.77 65.3901 39.04 64.4901 39.04H64.48ZM47.3 42.27H56.5801L54.8801 48.42H45.6L47.3 42.27ZM42.24 48.43H39.07L40.77 42.28H43.94L42.24 48.43ZM31.78 42.27H37.4L35.7 48.42H31.77V42.27H31.78ZM62.8601 48.43H58.23L59.93 42.28H62.8601V48.43Z"/>
<path d="M47.32 35.1502C54.82 35.1502 60.92 29.0502 60.92 21.5502C60.92 14.0502 54.82 7.9502 47.32 7.9502C39.82 7.9502 33.72 14.0502 33.72 21.5502C33.72 29.0502 39.82 35.1502 47.32 35.1502ZM47.32 11.1902C53.03 11.1902 57.68 15.8402 57.68 21.5502C57.68 27.2602 53.03 31.9102 47.32 31.9102C41.61 31.9102 36.96 27.2602 36.96 21.5502C36.96 15.8402 41.61 11.1902 47.32 11.1902Z"/>
<path d="M47.32 29.4801C51.69 29.4801 55.25 25.9201 55.25 21.5501C55.25 17.1801 51.69 13.6201 47.32 13.6201C42.95 13.6201 39.39 17.1801 39.39 21.5501C39.39 25.9201 42.95 29.4801 47.32 29.4801ZM47.32 16.8601C49.91 16.8601 52.01 18.9701 52.01 21.5501C52.01 24.1301 49.9 26.2401 47.32 26.2401C44.74 26.2401 42.63 24.1301 42.63 21.5501C42.63 18.9701 44.74 16.8601 47.32 16.8601Z"/>
<path d="M31.4897 75.3699C31.9997 74.0302 33.9395 74.0103 34.4897 75.3298L34.4994 75.3406C34.8093 76.0804 34.5 76.97 33.8002 77.3601C33.2102 77.7001 32.4599 77.6203 31.9399 77.1804C31.4299 76.7404 31.2497 75.9999 31.4897 75.3699Z"/>
<path d="M38.1401 75.3298C38.6801 74.0199 40.5803 74.0298 41.1303 75.3298H41.1401C41.4401 76.0798 41.1399 76.9601 40.4399 77.3601C39.8399 77.6999 39.1004 77.6193 38.5805 77.1794C38.0505 76.7294 37.8801 75.9698 38.1401 75.3298Z"/>
<path d="M45.1703 74.7605C45.7103 74.2605 46.5604 74.1903 47.1703 74.6003C47.7701 74.9904 48.0299 75.7703 47.81 76.4402C47.6 77.0902 46.99 77.5403 46.31 77.5603C45.6 77.5803 44.9499 77.1202 44.7299 76.4402C44.5399 75.8502 44.7103 75.1805 45.1703 74.7605Z"/>
<path d="M31.85 68.9695C32.66 68.1898 34.0496 68.4401 34.4897 69.4997V69.49C34.9796 70.6599 33.92 71.9498 32.6801 71.6999C31.4301 71.4399 30.96 69.8795 31.85 68.9695Z"/>
<path d="M38.4897 68.9695C39.1195 68.3397 40.1497 68.3598 40.7797 68.9695C40.9297 69.1294 41.0503 69.2998 41.1303 69.4997C41.4503 70.2497 41.1296 71.1498 40.4096 71.5398C39.7096 71.9196 38.7995 71.72 38.3295 71.0701C37.8696 70.4301 37.9297 69.5294 38.4897 68.9695Z"/>
<path d="M46.31 68.4997C46.9498 68.5197 47.5298 68.91 47.7699 69.4997V69.49C48.0499 70.18 47.8299 70.9906 47.2299 71.4206C46.6399 71.8405 45.8496 71.8303 45.2797 71.3904C44.7298 70.9704 44.5204 70.22 44.7504 69.5701C44.9805 68.9202 45.6201 68.4797 46.31 68.4997Z"/>
<path d="M46.2299 62.6804C46.8999 62.6604 47.5099 63.0704 47.7699 63.6804H47.7602C48.0399 64.3803 47.7994 65.2205 47.1596 65.6404C46.5797 66.03 45.81 65.9998 45.2602 65.5701C44.7302 65.1601 44.5199 64.4198 44.7299 63.7898C44.9499 63.1499 45.55 62.7004 46.2299 62.6804Z"/>
<path d="M38.4897 63.1501C39.1196 62.5202 40.1497 62.5403 40.7797 63.1501C40.9297 63.3101 41.0503 63.4804 41.1303 63.6804H41.1195C41.4494 64.4503 41.09 65.3796 40.3402 65.7497C39.6703 66.0797 38.8198 65.8904 38.3598 65.3005C37.8698 64.6606 37.9198 63.7201 38.4897 63.1501Z"/>
<path d="M31.85 63.1501C32.67 62.3602 34.0397 62.6304 34.4897 63.6804V63.6706C34.9994 64.8706 33.8599 66.1801 32.6 65.8601C31.4 65.5601 30.99 64.0401 31.85 63.1501Z"/>
<path d="M31.85 57.3201C32.67 56.5301 34.0497 56.8003 34.4897 57.8503C34.9996 59.0503 33.86 60.3598 32.6 60.0398C31.4001 59.7297 30.99 58.21 31.85 57.3201Z"/>
<path d="M45.1303 57.3201C45.6703 56.7802 46.5404 56.6899 47.1703 57.1199H47.1801C47.78 57.5098 48.0396 58.2898 47.8197 58.9597C47.6097 59.5997 46.9997 60.0598 46.3197 60.0798C45.6299 60.0997 45.0002 59.66 44.7602 59.0202C44.5402 58.4402 44.6903 57.7601 45.1303 57.3201Z"/>
<path d="M38.1098 57.9197C38.6099 56.5499 40.5703 56.5204 41.1303 57.8503V57.8396C41.4403 58.5895 41.13 59.4798 40.4301 59.8699C39.1601 60.5899 37.6098 59.3097 38.1098 57.9197Z"/>
<path d="M60.6 66.5601C57.57 66.5601 55.1 69.0301 55.1 72.0601C55.1 75.0901 57.57 77.5601 60.6 77.5601C63.63 77.5601 66.1 75.0901 66.1 72.0601C66.1 69.0301 63.63 66.5601 60.6 66.5601ZM60.6 74.3301C59.35 74.3301 58.33 73.3101 58.33 72.0601C58.33 70.8101 59.35 69.7901 60.6 69.7901C61.85 69.7901 62.87 70.8101 62.87 72.0601C62.87 73.3101 61.85 74.3301 60.6 74.3301Z"/>
</svg>
