<svg viewBox="0 0 92 92" xmlns="http://www.w3.org/2000/svg">
<g clip-path="url(#clip0_1435_4516)">
<path d="M43.9883 41.1064L58.0264 34.9062L48.7949 66.5273L53.5029 65.8105L43.7256 77.3223L39.834 63.2188L43.6035 65.3184L47.3613 47.127L34.0459 52.751L41.0488 22.7783L52.5264 17.1553L43.9883 41.1064Z"/>
<path d="M74.1111 92H17.8889C8.07556 92 0 83.9244 0 74.1111V17.8889C0 8.07556 8.07556 0 17.8889 0H74.1111C83.9244 0 92 8.07556 92 17.8889V74.1111C92 83.9244 83.9244 92 74.1111 92ZM17.8889 5.11111C10.8356 5.11111 5.11111 10.8356 5.11111 17.8889V74.1111C5.11111 81.1645 10.8356 86.8889 17.8889 86.8889H74.1111C81.1645 86.8889 86.8889 81.1645 86.8889 74.1111V17.8889C86.8889 10.8356 81.1645 5.11111 74.1111 5.11111H17.8889Z"/>
<path d="M22.7138 20.1888H15.5583C12.4609 20.1888 9.93604 17.6639 9.93604 14.5666C9.93604 11.4692 12.4609 8.94434 15.5583 8.94434H22.7138C25.8111 8.94434 28.336 11.4692 28.336 14.5666C28.336 17.6639 25.8111 20.1888 22.7138 20.1888ZM15.5583 10.9888C13.5854 10.9888 11.9805 12.5937 11.9805 14.5666C11.9805 16.5394 13.5854 18.1443 15.5583 18.1443H22.7138C24.6867 18.1443 26.2916 16.5394 26.2916 14.5666C26.2916 12.5937 24.6867 10.9888 22.7138 10.9888H15.5583Z"/>
<path d="M15.9058 18.1443C13.9329 18.1443 12.328 16.5394 12.328 14.5665C12.328 12.5937 13.9329 10.9888 15.9058 10.9888C17.8787 10.9888 19.4836 12.5937 19.4836 14.5665C19.4836 16.5394 17.8787 18.1443 15.9058 18.1443ZM15.9058 12.011C14.4951 12.011 13.3502 13.1559 13.3502 14.5665C13.3502 15.9772 14.4951 17.1221 15.9058 17.1221C17.3164 17.1221 18.4613 15.9772 18.4613 14.5665C18.4613 13.1559 17.3164 12.011 15.9058 12.011Z"/>
</g>
<defs>
<clipPath id="clip0_1435_4516">
<rect width="92" height="92"/>
</clipPath>
</defs>
</svg>
