<svg viewBox="0 0 92 92" xmlns="http://www.w3.org/2000/svg">
<g clip-path="url(#clip0_1045_3683)">
<path fill-rule="evenodd" clip-rule="evenodd" d="M57.8799 19C62.0297 19 65.4392 22.4098 65.4395 26.5596V37.7305H79.9199C80.5163 37.7305 80.9998 38.2133 81 38.8096C81 39.406 80.5164 39.8896 79.9199 39.8896H65.4395V50.3301C65.4394 54.48 62.0298 57.8896 57.8799 57.8896H46.7402V72.3398C46.7402 72.9363 46.2566 73.4199 45.6602 73.4199C45.0637 73.4199 44.5801 72.9363 44.5801 72.3398V57.8896H34.1094C29.9596 57.8894 26.5498 54.4799 26.5498 50.3301V39.8896H12.0801C11.4836 39.8896 11 39.406 11 38.8096C11.0002 38.2133 11.4837 37.7305 12.0801 37.7305H26.5498V26.5596C26.55 22.4099 29.9597 19.0002 34.1094 19H57.8799ZM34.1201 21.1602C31.1403 21.1602 28.72 23.5798 28.7197 26.5596V50.3301C28.7198 53.31 31.1401 55.7305 34.1201 55.7305H45.6416C45.6477 55.7304 45.654 55.7295 45.6602 55.7295C45.6664 55.7295 45.6725 55.7304 45.6787 55.7305H57.8896C60.8696 55.7305 63.29 53.31 63.29 50.3301V26.5596C63.2898 23.5798 60.8695 21.1602 57.8896 21.1602H34.1201Z"/>
<path d="M74.11 92H17.89C8.08 92 0 83.92 0 74.11V17.89C0 8.08 8.08 0 17.89 0H74.11C83.92 0 92 8.08 92 17.89V74.11C92 83.92 83.92 92 74.11 92ZM17.89 5.11C10.84 5.11 5.11 10.83 5.11 17.89V74.11C5.11 81.16 10.83 86.89 17.89 86.89H74.11C81.16 86.89 86.89 81.17 86.89 74.11V17.89C86.89 10.84 81.17 5.11 74.11 5.11H17.89Z"/>
</g>
<defs>
<clipPath id="clip0_1045_3683">
<rect width="92" height="92"/>
</clipPath>
</defs>
</svg>
