<svg viewBox="0 0 92 92" xmlns="http://www.w3.org/2000/svg">
<g clip-path="url(#clip0_1451_4889)">
<path d="M74.1111 92H17.8889C8.07556 92 0 83.9244 0 74.1111V17.8889C0 8.07556 8.07556 0 17.8889 0H74.1111C83.9244 0 92 8.07556 92 17.8889V74.1111C92 83.9244 83.9244 92 74.1111 92ZM17.8889 5.11111C10.8356 5.11111 5.11111 10.8356 5.11111 17.8889V74.1111C5.11111 81.1645 10.8356 86.8889 17.8889 86.8889H74.1111C81.1645 86.8889 86.8889 81.1645 86.8889 74.1111V17.8889C86.8889 10.8356 81.1645 5.11111 74.1111 5.11111H17.8889Z"/>
<path d="M80.7556 80.7555H11.2444V11.2444H80.7556V80.7555ZM14.3111 77.6888H77.6889V14.3111H14.3111V77.6888Z"/>
<path d="M68.9492 65.1357C69.6237 65.1359 70.1656 65.4739 71.249 66.1484L72.2715 66.7822C73.2627 67.3954 73.8145 67.7431 74.1211 68.3154C74.4379 68.8878 74.4385 69.5008 74.4385 70.7373V71.5146C74.4385 73.6102 74.4378 74.6629 73.7324 75.3887C73.0169 76.1245 72.0048 76.125 69.9707 76.125V75.3477C71.7903 75.3477 72.7002 75.3476 73.1807 74.8467C73.6712 74.3356 73.6719 73.3956 73.6719 71.5049V70.7275C73.6719 69.6236 73.6717 69.0715 73.457 68.6729C73.2424 68.2742 72.7818 67.9982 71.8721 67.4258L70.8506 66.792C68.9289 65.596 68.9694 65.5961 67.0479 66.792L66.0254 67.4258C65.1156 67.988 64.6551 68.2742 64.4404 68.6729C64.3178 68.8977 64.2568 69.1641 64.2363 69.624L63.4697 69.583C63.5004 69.0106 63.5826 68.6318 63.7666 68.3047C64.0835 67.7325 64.6251 67.3953 65.6162 66.7822L66.6387 66.1484C67.7222 65.4738 68.2746 65.1357 68.9492 65.1357Z"/>
<path d="M63.8477 73.8145C64.9005 73.8145 65.7695 74.6733 65.7695 75.7363L65.7598 75.7266H64.9932C64.9932 75.0928 64.4814 74.5811 63.8477 74.5811V73.8145Z"/>
<path d="M63.8477 72.2812C65.749 72.2812 67.3027 73.8248 67.3027 75.7363L67.293 75.7266H66.5264C66.5264 74.2443 65.3197 73.0479 63.8477 73.0479V72.2812Z"/>
<path d="M63.8477 70.748C66.5974 70.748 68.8368 72.9866 68.8369 75.7363L68.8262 75.7266H68.0596C68.0596 73.4061 66.1681 71.5146 63.8477 71.5146V70.748Z"/>
</g>
<defs>
<clipPath id="clip0_1451_4889">
<rect width="92" height="92"/>
</clipPath>
</defs>
</svg>
