<svg viewBox="0 0 92 92" xmlns="http://www.w3.org/2000/svg">
<path fill-rule="evenodd" clip-rule="evenodd" d="M85.1302 1C88.9299 1 91.9999 4.06765 92 7.86559V84.1344C91.9999 87.9324 88.93 91 85.1302 91H6.86886C3.06927 90.9997 6.42871e-05 87.9322 0 84.1344V7.86559C0.000145577 4.06782 3.06932 1.00028 6.86886 1H85.1302ZM6.86886 6.90946C6.34512 6.90974 5.91243 7.34207 5.91228 7.86559V84.1344C5.91234 84.658 6.34507 85.0903 6.86886 85.0905H85.1302C85.6542 85.0905 86.0877 84.6582 86.0877 84.1344V7.86559C86.0876 7.34189 85.6541 6.90946 85.1302 6.90946H6.86886Z"/>
<path d="M22.5107 16.6787C22.5107 12.9008 19.4375 9.82764 15.6597 9.82764C11.8818 9.82764 8.80859 12.9008 8.80859 16.6787C8.80859 20.4566 11.8818 23.5298 15.6597 23.5298C19.4375 23.5102 22.5107 20.4566 22.5107 16.6787ZM12.7235 16.6787C12.7235 15.054 14.035 13.7425 15.6597 13.7425C17.2843 13.7425 18.5958 15.054 18.5958 16.6787C18.5958 18.3034 17.2843 19.6149 15.6597 19.6149C14.035 19.6149 12.7235 18.3034 12.7235 16.6787Z"/>
<path d="M76.3404 9.80811C72.5626 9.80811 69.4894 12.8813 69.4894 16.6592C69.4894 20.437 72.5626 23.5102 76.3404 23.5102C80.1183 23.5102 83.1915 20.437 83.1915 16.6592C83.1915 12.8813 80.1183 9.82768 76.3404 9.80811ZM76.3404 19.5953C74.6766 19.5953 73.326 18.2056 73.4043 16.5221C73.4826 15.0345 74.6962 13.8013 76.2034 13.723C77.8868 13.6447 79.2766 14.9953 79.2766 16.6592C79.2766 18.323 77.9651 19.5953 76.3404 19.5953Z"/>
<path d="M73.4042 33.2979H18.5957C15.3464 33.2979 12.7234 35.9208 12.7234 39.1702V74.4042C12.7234 77.6536 15.3464 80.2766 18.5957 80.2766H73.4042C76.6536 80.2766 79.2766 77.6536 79.2766 74.4042V39.1702C79.2766 35.9208 76.6536 33.2979 73.4042 33.2979ZM75.3617 74.4042C75.3617 75.4808 74.4808 76.3617 73.4042 76.3617H18.5957C17.5191 76.3617 16.6383 75.4808 16.6383 74.4042V39.1702C16.6383 38.0936 17.5191 37.2127 18.5957 37.2127H73.4042C74.4808 37.2127 75.3617 38.0936 75.3617 39.1702V74.4042Z"/>
<path d="M32.2979 23.5106H59.7022C60.7788 23.5106 61.6596 22.6297 61.6596 21.5532C61.6596 20.4766 60.7788 19.5957 59.7022 19.5957H32.2979C31.2213 19.5957 30.3405 20.4766 30.3405 21.5532C30.3405 22.6297 31.2213 23.5106 32.2979 23.5106Z"/>
<path d="M41.7132 48.6441C42.5745 47.9981 42.7507 46.7649 42.0851 45.9036C41.4588 45.0619 40.2843 44.8858 39.423 45.473C37.446 46.8824 34.8034 51.267 38.8945 57.8245C39.8928 59.4296 40.2256 60.8585 39.8928 62.033C39.3839 63.7947 37.4851 64.7343 37.4851 64.7343C36.5064 65.1845 36.0758 66.3589 36.526 67.3377C36.9762 68.3164 38.1507 68.747 39.1294 68.2968C39.4817 68.1402 42.6137 66.5938 43.6315 63.1879C44.3166 60.8781 43.8468 58.3726 42.2222 55.7496C39.1881 50.8755 41.4196 48.8594 41.7132 48.6441Z"/>
<path d="M53.4383 48.6638C54.2996 48.0178 54.4954 46.8042 53.8494 45.9234C53.2035 45.0621 51.9898 44.8663 51.109 45.5123C49.1907 46.9021 46.5873 51.2672 50.5805 57.8051C51.5592 59.4297 51.892 60.8391 51.5396 62.0331C51.0307 63.7753 49.2103 64.6953 49.2103 64.6953C48.2315 65.1651 47.84 66.3395 48.3098 67.3183C48.6426 67.9838 49.3081 68.4144 50.052 68.4144C50.3456 68.4144 50.6196 68.3361 50.8937 68.2187C51.246 68.0621 54.28 66.5353 55.2979 63.1685C55.983 60.8587 55.5328 58.3531 53.9277 55.7302C50.972 50.9148 53.1643 48.8987 53.4383 48.6638Z"/>
</svg>
