<svg viewBox="0 0 92 92" xmlns="http://www.w3.org/2000/svg">
<g clip-path="url(#clip0_1451_4849)">
<path d="M74.1111 92H17.8889C8.07556 92 0 83.9244 0 74.1111V17.8889C0 8.07556 8.07556 0 17.8889 0H74.1111C83.9244 0 92 8.07556 92 17.8889V74.1111C92 83.9244 83.9244 92 74.1111 92ZM17.8889 5.11111C10.8356 5.11111 5.11111 10.8356 5.11111 17.8889V74.1111C5.11111 81.1645 10.8356 86.8889 17.8889 86.8889H74.1111C81.1645 86.8889 86.8889 81.1645 86.8889 74.1111V17.8889C86.8889 10.8356 81.1645 5.11111 74.1111 5.11111H17.8889Z"/>
<path d="M80.7556 80.7555H11.2444V11.2444H80.7556V80.7555ZM14.3111 77.6888H77.6889V14.3111H14.3111V77.6888Z"/>
<path d="M68.959 65.1357C69.6439 65.1357 70.1753 65.4738 71.2588 66.1484L72.2812 66.7822C73.2727 67.4057 73.8252 67.743 74.1318 68.3154C74.4485 68.8877 74.4482 69.501 74.4482 70.7373V71.5146C74.4482 73.6101 74.4484 74.6629 73.7432 75.3887C73.0276 76.1247 72.0156 76.125 69.9814 76.125L69.9707 76.1143V75.3477C71.7903 75.3477 72.7002 75.3476 73.1807 74.8467C73.6712 74.3356 73.6719 73.3956 73.6719 71.5049V70.7275C73.6719 69.6236 73.6717 69.0715 73.457 68.6729C73.2424 68.2742 72.7824 67.9978 71.8828 67.4355L70.8506 66.8018C68.9289 65.6058 68.9692 65.606 67.0479 66.8018L66.0254 67.4355C65.1157 68.0079 64.6551 68.284 64.4404 68.6826C64.3178 68.9075 64.2568 69.1738 64.2363 69.6338L63.4697 69.5928C63.5004 69.0204 63.5827 68.6527 63.7666 68.3154C64.0835 67.743 64.6248 67.4053 65.6162 66.792L66.6484 66.1484C67.7319 65.4738 68.2742 65.1358 68.959 65.1357Z"/>
<path d="M63.8477 73.8145C64.9005 73.8145 65.7695 74.6733 65.7695 75.7363L65.7598 75.7266H64.9932C64.9932 75.0928 64.4814 74.5811 63.8477 74.5811V73.8145Z"/>
<path d="M63.8477 72.2812C65.749 72.2812 67.3027 73.8248 67.3027 75.7363L67.293 75.7266H66.5264C66.5264 74.2443 65.3197 73.0479 63.8477 73.0479V72.2812Z"/>
<path d="M63.8477 70.748C66.5974 70.748 68.8368 72.9866 68.8369 75.7363L68.8262 75.7266H68.0596C68.0596 73.4061 66.1681 71.5146 63.8477 71.5146V70.748Z"/>
<path d="M35.5631 12.553H33.5187V78.6499H35.5631V12.553Z"/>
<path d="M34.3262 45.6729H13.1458V47.7173H34.3262V45.6729Z"/>
<path d="M34.3262 61.5173H14.0555V63.5618H34.3262V61.5173Z"/>
<path d="M34.3262 28.4382H13.5649V30.4827H34.3262V28.4382Z"/>
<path d="M60.5871 12.9517H58.5427V79.0486H60.5871V12.9517Z"/>
<path d="M79.9991 45.2639H58.8187V47.3084H79.9991V45.2639Z"/>
<path d="M80.0093 61.1084H59.7386V63.1528H80.0093V61.1084Z"/>
<path d="M80.0093 28.0396H59.248V30.084H80.0093V28.0396Z"/>
<path d="M46.1191 44.019L50.9062 46.8588C50.9369 46.869 50.958 46.92 50.958 46.9506C50.958 46.9813 50.9062 47.0424 50.9062 47.0424L46.1631 49.8745C46.1324 49.8946 46.0813 49.8948 46.0508 49.8745C46.01 49.864 45.9902 49.7817 45.9902 49.7817V44.1186C45.9904 44.088 46.0102 44.0472 46.0508 44.0268C46.0662 44.0165 46.0948 44.0164 46.1191 44.019Z"/>
</g>
<defs>
<clipPath id="clip0_1451_4849">
<rect width="92" height="92"/>
</clipPath>
</defs>
</svg>
