<svg viewBox="0 0 92 92" xmlns="http://www.w3.org/2000/svg">
<g clip-path="url(#clip0_1023_1951)">
<path d="M71.9765 92C70.4828 92 69.2706 90.7878 69.2706 89.2941C69.2706 87.8005 70.4828 86.5882 71.9765 86.5882H73.2645C73.2645 86.5882 73.2861 86.5882 73.2969 86.5882C74.7798 86.5882 75.9812 87.7788 76.0028 89.2617C76.0245 90.7553 74.8231 91.9784 73.3294 92H71.9656H71.9765ZM65.4824 92H64.4C62.9064 92 61.6941 90.7878 61.6941 89.2941C61.6941 87.8005 62.9064 86.5882 64.4 86.5882H65.4824C66.976 86.5882 68.1882 87.8005 68.1882 89.2941C68.1882 90.7878 66.976 92 65.4824 92ZM57.9059 92H56.8235C55.3299 92 54.1176 90.7878 54.1176 89.2941C54.1176 87.8005 55.3299 86.5882 56.8235 86.5882H57.9059C59.3995 86.5882 60.6118 87.8005 60.6118 89.2941C60.6118 90.7878 59.3995 92 57.9059 92ZM50.3294 92H49.2471C47.7534 92 46.5412 90.7878 46.5412 89.2941C46.5412 87.8005 47.7534 86.5882 49.2471 86.5882H50.3294C51.8231 86.5882 53.0353 87.8005 53.0353 89.2941C53.0353 90.7878 51.8231 92 50.3294 92ZM42.7529 92H41.6706C40.1769 92 38.9647 90.7878 38.9647 89.2941C38.9647 87.8005 40.1769 86.5882 41.6706 86.5882H42.7529C44.2466 86.5882 45.4588 87.8005 45.4588 89.2941C45.4588 90.7878 44.2466 92 42.7529 92ZM35.1765 92H34.0941C32.6005 92 31.3882 90.7878 31.3882 89.2941C31.3882 87.8005 32.6005 86.5882 34.0941 86.5882H35.1765C36.6701 86.5882 37.8824 87.8005 37.8824 89.2941C37.8824 90.7878 36.6701 92 35.1765 92ZM27.6 92H26.5176C25.024 92 23.8118 90.7878 23.8118 89.2941C23.8118 87.8005 25.024 86.5882 26.5176 86.5882H27.6C29.0936 86.5882 30.3059 87.8005 30.3059 89.2941C30.3059 90.7878 29.0936 92 27.6 92ZM20.0235 92H18.9412C17.4475 92 16.2353 90.7878 16.2353 89.2941C16.2353 87.8005 17.4475 86.5882 18.9412 86.5882H20.0235C21.5172 86.5882 22.7294 87.8005 22.7294 89.2941C22.7294 90.7878 21.5172 92 20.0235 92ZM12.6202 90.712C12.2631 90.712 11.9059 90.6471 11.5595 90.4955C11.1699 90.3332 10.7802 90.1492 10.4014 89.9544C9.07012 89.2725 8.55059 87.6381 9.23247 86.3068C9.91435 84.9755 11.5487 84.456 12.88 85.1379C13.1398 85.2678 13.4104 85.3977 13.6809 85.5167C15.0555 86.1012 15.6941 87.6922 15.1096 89.0668C14.6659 90.0951 13.6701 90.712 12.6202 90.712ZM79.5962 90.6146C78.5572 90.6146 77.5722 90.0193 77.1285 89.0127C76.5224 87.6489 77.1285 86.0471 78.5031 85.4409C78.7845 85.3219 79.0551 85.1812 79.3148 85.0405C80.6353 84.3478 82.2697 84.8565 82.9732 86.1769C83.6659 87.4974 83.1572 89.1318 81.8367 89.8353C81.4687 90.0301 81.0899 90.2141 80.7111 90.3765C80.3539 90.5388 79.9751 90.6146 79.6071 90.6146H79.5962ZM6.58071 86.2635C5.81224 86.2635 5.05459 85.9388 4.51341 85.3111C4.24282 84.9972 3.98306 84.6617 3.73412 84.3261C2.83576 83.1247 3.08471 81.4362 4.28612 80.5379C5.48753 79.6395 7.176 79.8885 8.07435 81.0899C8.25835 81.328 8.44235 81.5661 8.63718 81.8042C9.60047 82.9407 9.47059 84.6508 8.32329 85.6141C7.81459 86.0471 7.18682 86.2527 6.56988 86.2527L6.58071 86.2635ZM85.5708 86.0687C84.9647 86.0687 84.3586 85.8631 83.8499 85.4518C82.6918 84.4993 82.5294 82.8 83.4819 81.6419C83.6767 81.4038 83.8607 81.1657 84.0447 80.9167C84.9214 79.7045 86.6099 79.4339 87.8221 80.3106C89.0344 81.1873 89.3049 82.8758 88.4282 84.088C88.1793 84.4235 87.9304 84.7591 87.6598 85.0838C87.1294 85.7332 86.3501 86.0687 85.5708 86.0687ZM3.16047 79.5746C1.93741 79.5746 0.833412 78.7412 0.530353 77.5073C0.432941 77.1068 0.346353 76.6955 0.270588 76.2842C0.0108235 74.8122 0.995765 73.4052 2.46776 73.1454C3.93976 72.8965 5.34682 73.8706 5.60659 75.3426C5.66071 75.6457 5.72565 75.9379 5.79059 76.2409C6.14777 77.6913 5.24941 79.1525 3.79906 79.5097C3.58259 79.5638 3.36612 79.5854 3.16047 79.5854V79.5746ZM88.8936 79.3365C88.688 79.3365 88.4824 79.3148 88.2767 79.2607C86.8264 78.9252 85.9172 77.464 86.2527 76.0137C86.3177 75.7322 86.3718 75.44 86.4151 75.1478C86.6424 73.6758 88.0278 72.6584 89.5106 72.8965C90.9826 73.1238 92 74.5092 91.7619 75.992C91.6969 76.4141 91.6212 76.8362 91.5238 77.2475C91.2315 78.4922 90.1167 79.3365 88.8936 79.3365ZM2.70588 72.0414C1.21224 72.0414 0 70.8292 0 69.3355V68.2532C0 66.7595 1.21224 65.5473 2.70588 65.5473C4.19953 65.5473 5.41177 66.7595 5.41177 68.2532V69.3355C5.41177 70.8292 4.19953 72.0414 2.70588 72.0414ZM89.2941 71.7925C87.8005 71.7925 86.5882 70.5802 86.5882 69.0866V68.0042C86.5882 66.5106 87.8005 65.2984 89.2941 65.2984C90.7878 65.2984 92 66.5106 92 68.0042V69.0866C92 70.5802 90.7878 71.7925 89.2941 71.7925ZM2.70588 64.4649C1.21224 64.4649 0 63.2527 0 61.7591V60.6767C0 59.1831 1.21224 57.9708 2.70588 57.9708C4.19953 57.9708 5.41177 59.1831 5.41177 60.6767V61.7591C5.41177 63.2527 4.19953 64.4649 2.70588 64.4649ZM89.2941 64.216C87.8005 64.216 86.5882 63.0038 86.5882 61.5101V60.4278C86.5882 58.9341 87.8005 57.7219 89.2941 57.7219C90.7878 57.7219 92 58.9341 92 60.4278V61.5101C92 63.0038 90.7878 64.216 89.2941 64.216ZM2.70588 56.8885C1.21224 56.8885 0 55.6762 0 54.1826V53.1002C0 51.6066 1.21224 50.3944 2.70588 50.3944C4.19953 50.3944 5.41177 51.6066 5.41177 53.1002V54.1826C5.41177 55.6762 4.19953 56.8885 2.70588 56.8885ZM89.2941 56.6395C87.8005 56.6395 86.5882 55.4273 86.5882 53.9337V52.8513C86.5882 51.3577 87.8005 50.1454 89.2941 50.1454C90.7878 50.1454 92 51.3577 92 52.8513V53.9337C92 55.4273 90.7878 56.6395 89.2941 56.6395ZM2.70588 49.312C1.21224 49.312 0 48.0998 0 46.6061V45.5238C0 44.0301 1.21224 42.8179 2.70588 42.8179C4.19953 42.8179 5.41177 44.0301 5.41177 45.5238V46.6061C5.41177 48.0998 4.19953 49.312 2.70588 49.312ZM89.2941 49.0631C87.8005 49.0631 86.5882 47.8508 86.5882 46.3572V45.2748C86.5882 43.7812 87.8005 42.5689 89.2941 42.5689C90.7878 42.5689 92 43.7812 92 45.2748V46.3572C92 47.8508 90.7878 49.0631 89.2941 49.0631ZM2.70588 41.7355C1.21224 41.7355 0 40.5233 0 39.0297V37.9473C0 36.4537 1.21224 35.2414 2.70588 35.2414C4.19953 35.2414 5.41177 36.4537 5.41177 37.9473V39.0297C5.41177 40.5233 4.19953 41.7355 2.70588 41.7355ZM89.2941 41.4866C87.8005 41.4866 86.5882 40.2744 86.5882 38.7807V37.6984C86.5882 36.2047 87.8005 34.9925 89.2941 34.9925C90.7878 34.9925 92 36.2047 92 37.6984V38.7807C92 40.2744 90.7878 41.4866 89.2941 41.4866ZM2.70588 34.1591C1.21224 34.1591 0 32.9468 0 31.4532V30.3708C0 28.8772 1.21224 27.6649 2.70588 27.6649C4.19953 27.6649 5.41177 28.8772 5.41177 30.3708V31.4532C5.41177 32.9468 4.19953 34.1591 2.70588 34.1591ZM89.2941 33.9101C87.8005 33.9101 86.5882 32.6979 86.5882 31.2042V30.1219C86.5882 28.6282 87.8005 27.416 89.2941 27.416C90.7878 27.416 92 28.6282 92 30.1219V31.2042C92 32.6979 90.7878 33.9101 89.2941 33.9101ZM2.70588 26.5826C1.21224 26.5826 0 25.3704 0 23.8767V22.7944C0 21.3007 1.21224 20.0885 2.70588 20.0885C4.19953 20.0885 5.41177 21.3007 5.41177 22.7944V23.8767C5.41177 25.3704 4.19953 26.5826 2.70588 26.5826ZM89.2941 26.3336C87.8005 26.3336 86.5882 25.1214 86.5882 23.6278V22.5454C86.5882 21.0518 87.8005 19.8395 89.2941 19.8395C90.7878 19.8395 92 21.0518 92 22.5454V23.6278C92 25.1214 90.7878 26.3336 89.2941 26.3336ZM2.92235 19.0169C2.77082 19.0169 2.63012 19.0061 2.47859 18.9845C1.00659 18.7355 0 17.3393 0.248941 15.8673C0.313882 15.456 0.400471 15.0447 0.497882 14.6334C0.833412 13.1831 2.29459 12.2739 3.74494 12.6094C5.19529 12.9449 6.10447 14.4061 5.76894 15.8565C5.704 16.1487 5.63906 16.4518 5.59577 16.744C5.37929 18.0645 4.232 19.0061 2.93318 19.0061L2.92235 19.0169ZM89.0344 18.7788C87.7464 18.7788 86.6099 17.8588 86.3718 16.56C86.3177 16.2678 86.2527 15.9755 86.1878 15.6833C85.8198 14.2329 86.6965 12.7609 88.1468 12.3929C89.5972 12.0249 91.0692 12.9016 91.4372 14.352C91.5346 14.7633 91.632 15.1746 91.7078 15.5859C91.9784 17.0579 90.9934 18.4649 89.5322 18.7355C89.3699 18.768 89.2075 18.7788 89.0452 18.7788H89.0344ZM5.83388 12.1007C5.28188 12.1007 4.71906 11.9275 4.232 11.5812C3.03059 10.6936 2.77082 9.00518 3.64753 7.80377C3.89647 7.46824 4.15624 7.13271 4.42682 6.81882C5.39012 5.67153 7.08941 5.52 8.23671 6.48329C9.384 7.44659 9.53553 9.14588 8.57224 10.2932C8.37741 10.5205 8.19341 10.7586 8.00941 11.0075C7.47906 11.7327 6.65647 12.1115 5.82306 12.1115L5.83388 12.1007ZM86.0254 11.9059C85.2137 11.9059 84.4019 11.5379 83.8715 10.8344C83.6875 10.5962 83.4927 10.3581 83.2979 10.1308C82.3238 9.00518 82.4428 7.29506 83.5793 6.31012C84.7049 5.336 86.4151 5.45506 87.4 6.59153C87.6706 6.90541 87.9304 7.23012 88.1901 7.56565C89.0885 8.75624 88.8612 10.4555 87.6706 11.3539C87.1835 11.7219 86.6099 11.9059 86.0362 11.9059H86.0254ZM11.5379 7.20847C10.5529 7.20847 9.61129 6.67812 9.13506 5.74729C8.45318 4.416 8.97271 2.79247 10.2932 2.09976C10.6612 1.90494 11.0508 1.73176 11.4296 1.55859C12.8042 0.963294 14.3953 1.59106 14.9906 2.96565C15.5859 4.34024 14.9581 5.93129 13.5835 6.52659C13.3021 6.64565 13.0315 6.77553 12.7718 6.91624C12.3713 7.12188 11.9492 7.21929 11.5271 7.21929L11.5379 7.20847ZM80.2457 7.10024C79.8344 7.10024 79.4339 7.01365 79.0442 6.81882C78.7737 6.68894 78.5031 6.55906 78.2216 6.44C76.8471 5.86635 76.1868 4.27529 76.7713 2.90071C77.3449 1.52612 78.9252 0.865882 80.3106 1.45035C80.7002 1.61271 81.0791 1.78588 81.4579 1.98071C82.8 2.65176 83.3412 4.27529 82.6701 5.60659C82.1939 6.55906 81.2414 7.11106 80.2457 7.11106V7.10024ZM18.9087 5.41177C17.4259 5.41177 16.1812 4.22118 16.1595 2.73835C16.1379 1.24471 17.2852 0.0216471 18.7788 0H19.8936C21.3873 0 22.5995 1.21224 22.5995 2.70588C22.5995 4.19953 21.3873 5.41177 19.8936 5.41177H18.8979H18.9087ZM72.9398 5.41177H71.8574C70.3638 5.41177 69.1515 4.19953 69.1515 2.70588C69.1515 1.21224 70.3638 0 71.8574 0H72.9398C74.4334 0 75.6457 1.21224 75.6457 2.70588C75.6457 4.19953 74.4334 5.41177 72.9398 5.41177ZM65.3633 5.41177H64.2809C62.7873 5.41177 61.5751 4.19953 61.5751 2.70588C61.5751 1.21224 62.7873 0 64.2809 0H65.3633C66.8569 0 68.0692 1.21224 68.0692 2.70588C68.0692 4.19953 66.8569 5.41177 65.3633 5.41177ZM57.7868 5.41177H56.7045C55.2108 5.41177 53.9986 4.19953 53.9986 2.70588C53.9986 1.21224 55.2108 0 56.7045 0H57.7868C59.2805 0 60.4927 1.21224 60.4927 2.70588C60.4927 4.19953 59.2805 5.41177 57.7868 5.41177ZM50.2104 5.41177H49.128C47.6344 5.41177 46.4221 4.19953 46.4221 2.70588C46.4221 1.21224 47.6344 0 49.128 0H50.2104C51.704 0 52.9162 1.21224 52.9162 2.70588C52.9162 4.19953 51.704 5.41177 50.2104 5.41177ZM42.6339 5.41177H41.5515C40.0579 5.41177 38.8456 4.19953 38.8456 2.70588C38.8456 1.21224 40.0579 0 41.5515 0H42.6339C44.1275 0 45.3398 1.21224 45.3398 2.70588C45.3398 4.19953 44.1275 5.41177 42.6339 5.41177ZM35.0574 5.41177H33.9751C32.4814 5.41177 31.2692 4.19953 31.2692 2.70588C31.2692 1.21224 32.4814 0 33.9751 0H35.0574C36.5511 0 37.7633 1.21224 37.7633 2.70588C37.7633 4.19953 36.5511 5.41177 35.0574 5.41177ZM27.4809 5.41177H26.3986C24.9049 5.41177 23.6927 4.19953 23.6927 2.70588C23.6927 1.21224 24.9049 0 26.3986 0H27.4809C28.9746 0 30.1868 1.21224 30.1868 2.70588C30.1868 4.19953 28.9746 5.41177 27.4809 5.41177Z"/>
</g>
<defs>
<clipPath id="clip0_1023_1951">
<rect width="92" height="92"/>
</clipPath>
</defs>
</svg>
