<svg viewBox="0 0 92 92" xmlns="http://www.w3.org/2000/svg">
<g clip-path="url(#clip0_2652_4015)">
<path d="M74.1111 92H17.8889C8.07556 92 0 83.9244 0 74.1111V17.8889C0 8.07556 8.07556 0 17.8889 0H74.1111C83.9244 0 92 8.07556 92 17.8889V74.1111C92 83.9244 83.9244 92 74.1111 92ZM17.8889 5.11111C10.8356 5.11111 5.11111 10.8356 5.11111 17.8889V74.1111C5.11111 81.1645 10.8356 86.8889 17.8889 86.8889H74.1111C81.1645 86.8889 86.8889 81.1645 86.8889 74.1111V17.8889C86.8889 10.8356 81.1645 5.11111 74.1111 5.11111H17.8889Z"/>
<path d="M51.4893 31.5664C51.4893 21.8144 36.6569 21.8144 36.6569 31.5664V52.2256C34.7249 54.1371 33.5391 56.7847 33.5391 59.7082C33.5391 65.5247 38.2516 70.2473 44.0782 70.2473C49.9049 70.2473 54.6173 65.5349 54.6173 59.7082C54.6173 56.7847 53.4213 54.1371 51.4996 52.2256V31.5664H51.4893ZM44.0782 67.8451C39.5498 67.8451 35.88 64.1753 35.88 59.6469C35.88 57.2242 36.9329 55.0469 38.5991 53.5442V53.5238C38.8036 53.3296 38.9365 53.074 38.9569 52.7776C38.9569 52.7776 38.9671 52.7367 38.9671 52.7162V52.6753V31.5664C38.9671 31.4847 38.9671 31.3824 38.9671 31.2904C38.9671 28.6327 41.124 26.4758 43.7818 26.4758C43.8738 26.4758 43.9658 26.4758 44.0578 26.4758H44.0476C44.1293 26.4758 44.2213 26.4758 44.3133 26.4758C46.9711 26.4758 49.128 28.6327 49.128 31.2904C49.128 31.3927 49.128 31.4847 49.128 31.5767V52.6651V52.706L49.1485 52.7571C49.1689 53.0536 49.3018 53.3193 49.5062 53.5136V53.534C51.1929 55.0469 52.2458 57.2242 52.2458 59.6469C52.2458 64.1753 48.576 67.8451 44.0476 67.8451H44.0782ZM45.2538 55.5376V49.6598C45.2538 49.0158 44.7325 48.4842 44.0782 48.4842C43.424 48.4842 42.9027 49.0056 42.9027 49.6598V55.5376C41.0831 56.0691 39.7849 57.7149 39.7849 59.6673C39.7849 62.0389 41.7067 63.9607 44.0782 63.9607C46.4498 63.9607 48.3716 62.0389 48.3716 59.6673C48.3716 57.7149 47.0631 56.0691 45.2742 55.5478H45.2436L45.2538 55.5376ZM60.4645 25.6989C57.6636 25.6989 55.3942 27.9682 55.3942 30.7691C55.3942 33.57 57.6636 35.8393 60.4645 35.8393C63.2653 35.8393 65.5347 33.57 65.5347 30.7691C65.5347 27.9682 63.2653 25.6989 60.4645 25.6989ZM60.4645 33.4984C58.9516 33.4984 57.7351 32.2718 57.7351 30.7691C57.7351 29.2664 58.9618 28.0398 60.4645 28.0398C61.9671 28.0398 63.1938 29.2664 63.1938 30.7691C63.1938 32.282 61.9671 33.4984 60.4645 33.4984Z"/>
</g>
<defs>
<clipPath id="clip0_2652_4015">
<rect width="92" height="92"/>
</clipPath>
</defs>
</svg>
