<svg viewBox="0 0 92 92" xmlns="http://www.w3.org/2000/svg">
<g clip-path="url(#clip0_2652_3570)">
<path d="M27 80C19.2553 80 13 73.7447 13 66C13 58.2553 19.2553 52 27 52C34.7447 52 41 58.2553 41 66C41 73.7447 34.7447 80 27 80ZM27 54.9787C20.9234 54.9787 15.9787 59.9234 15.9787 66C15.9787 72.0766 20.9234 77.0213 27 77.0213C33.0766 77.0213 38.0213 72.0766 38.0213 66C38.0213 59.9234 33.0766 54.9787 27 54.9787Z"/>
<path d="M27 41C19.2553 41 13 34.7447 13 27C13 19.2553 19.2553 13 27 13C34.7447 13 41 19.2553 41 27C41 34.7447 34.7447 41 27 41ZM27 15.9787C20.9234 15.9787 15.9787 20.9234 15.9787 27C15.9787 33.0766 20.9234 38.0213 27 38.0213C33.0766 38.0213 38.0213 33.0766 38.0213 27C38.0213 20.9234 33.0766 15.9787 27 15.9787Z"/>
<path d="M68 41C60.2553 41 54 34.7447 54 27C54 19.2553 60.2553 13 68 13C75.7447 13 82 19.2553 82 27C82 34.7447 75.7447 41 68 41ZM68 15.9787C61.9234 15.9787 56.9787 20.9234 56.9787 27C56.9787 33.0766 61.9234 38.0213 68 38.0213C74.0766 38.0213 79.0213 33.0766 79.0213 27C79.0213 20.9234 74.0766 15.9787 68 15.9787Z"/>
<path d="M61.5 63C62.1538 63 62.5481 63.457 62.7217 63.7607C62.9127 64.095 63 64.4911 63 64.875V77.125C63 77.5089 62.9127 77.905 62.7217 78.2393C62.5481 78.543 62.1538 79 61.5 79C60.8462 79 60.4519 78.543 60.2783 78.2393C60.0873 77.905 60 77.5089 60 77.125V64.875C60 64.4911 60.0873 64.095 60.2783 63.7607C60.4519 63.457 60.8462 63 61.5 63Z"/>
<path d="M69.5 63C70.1538 63 70.5481 63.457 70.7217 63.7607C70.9127 64.095 71 64.4911 71 64.875V77.125C71 77.5089 70.9127 77.905 70.7217 78.2393C70.5481 78.543 70.1538 79 69.5 79C68.8462 79 68.4519 78.543 68.2783 78.2393C68.0873 77.905 68 77.5089 68 77.125V64.875C68 64.4911 68.0873 64.095 68.2783 63.7607C68.4519 63.457 68.8462 63 69.5 63Z"/>
<path d="M77.5 63C78.1538 63 78.5481 63.457 78.7217 63.7607C78.9127 64.095 79 64.4911 79 64.875V77.125C79 77.5089 78.9127 77.905 78.7217 78.2393C78.5481 78.543 78.1538 79 77.5 79C76.8462 79 76.4519 78.543 76.2783 78.2393C76.0873 77.905 76 77.5089 76 77.125V64.875C76 64.4911 76.0873 64.095 76.2783 63.7607C76.4519 63.457 76.8462 63 77.5 63Z"/>
<path fill-rule="evenodd" clip-rule="evenodd" d="M85.1699 1C88.9715 1 92.0428 4.07055 92.043 7.87207V84.2129C92.0429 88.0145 88.9715 91.085 85.1699 91.085H6.87207C3.07059 91.0848 6.57306e-05 88.0144 0 84.2129V7.87207C0.000145584 4.07064 3.07064 1.00015 6.87207 1H85.1699ZM6.87207 6.91504C6.34797 6.91519 5.91519 7.34797 5.91504 7.87207V84.2129C5.91511 84.7371 6.34792 85.1698 6.87207 85.1699H85.1699C85.6942 85.1699 86.1279 84.7372 86.1279 84.2129V7.87207C86.1278 7.34788 85.6941 6.91504 85.1699 6.91504H6.87207Z"/>
</g>
<defs>
<clipPath id="clip0_2652_3570">
<rect width="92" height="92"/>
</clipPath>
</defs>
</svg>
