<svg viewBox="0 0 92 92" xmlns="http://www.w3.org/2000/svg">
<g clip-path="url(#clip0_2652_3549)">
<path d="M46.2893 29.3989C31.5182 29.3989 19.6809 42.238 21.3573 57.3464C22.6351 68.8567 31.8964 78.1282 43.4067 79.4162C58.5151 81.1131 71.3849 69.2758 71.3849 54.4842C71.3849 40.9193 60.5084 29.9611 47.0356 29.542C46.8004 29.45 46.5449 29.3989 46.2893 29.3887V29.3989ZM44.1427 33.682C57.3907 32.3736 68.3898 43.3522 67.0916 56.6105C66.1307 66.4033 58.2084 74.3358 48.4053 75.2865C35.1676 76.5745 24.1889 65.606 25.4769 52.3682C26.4276 42.5753 34.3498 34.6429 44.1427 33.6718V33.682Z"/>
<path d="M37.8866 44.0068C36.7315 44.0273 35.8115 44.9779 35.832 46.1228C35.832 50.9784 35.1164 51.7962 34.0738 53.4215C33.0311 55.0468 31.6511 57.5002 31.6511 62.8566C31.6306 64.0117 32.5609 64.9624 33.716 64.9726C34.8711 64.9931 35.8218 64.0628 35.832 62.9077C35.832 62.8873 35.832 62.8668 35.832 62.8464C35.832 58.0726 36.5475 57.3059 37.5902 55.6704C38.6431 54.0348 40.0129 51.5406 40.0129 46.1228C40.0333 44.9677 39.1031 44.0171 37.948 44.0068C37.9275 44.0068 37.9071 44.0068 37.8866 44.0068Z"/>
<path d="M48.344 44.0068C47.1889 44.0273 46.2689 44.9779 46.2893 46.1228C46.2893 50.9784 45.5738 51.7962 44.5311 53.4215C43.4884 55.0468 42.1084 57.5002 42.1084 62.8566C42.088 64.0117 43.0182 64.9624 44.1733 64.9726C45.3284 64.9931 46.2791 64.0628 46.2893 62.9077C46.2893 62.8873 46.2893 62.8668 46.2893 62.8464C46.2893 58.0726 47.0049 57.3059 48.0475 55.6704C49.1004 54.0348 50.4702 51.5406 50.4702 46.1228C50.4906 44.9677 49.5604 44.0171 48.4053 44.0068C48.3849 44.0068 48.3644 44.0068 48.344 44.0068Z"/>
<path d="M58.8013 44.0068C57.6462 44.0273 56.7262 44.9779 56.7466 46.1228C56.7466 50.9784 56.0311 51.7962 54.9884 53.4215C53.9458 55.0468 52.5658 57.5002 52.5658 62.8566C52.5453 64.0117 53.4755 64.9624 54.6306 64.9726C55.7858 64.9931 56.7364 64.0628 56.7466 62.9077C56.7466 62.8873 56.7466 62.8668 56.7466 62.8464C56.7466 58.0726 57.4622 57.3059 58.5049 55.6704C59.5578 54.0348 60.9275 51.5406 60.9275 46.1228C60.948 44.9677 60.0178 44.0171 58.8626 44.0068C58.8422 44.0068 58.8218 44.0068 58.8013 44.0068Z"/>
<path d="M15.8271 92C9.29511 92 4 86.7049 4 80.1729V11.8271C4 5.29511 9.29511 0 15.8271 0H76.4551C82.9871 0 88.2822 5.29511 88.2822 11.8271V80.1831C88.2822 86.7151 82.9871 92.0102 76.4551 92.0102H15.8271V92ZM8.54889 80.1729C8.54889 84.1902 11.8098 87.4511 15.8271 87.4511H76.4551C80.4724 87.4511 83.7333 84.1902 83.7333 80.1729V21.5178H8.54889V80.1729ZM83.7231 16.9791V11.8271C83.7231 7.80978 80.4622 4.54889 76.4449 4.54889H15.8271C11.8098 4.54889 8.54889 7.80978 8.54889 11.8271V16.9791H83.7231Z"/>
<path d="M19.6911 14.4032C17.8715 14.4032 16.3586 12.8903 16.3586 11.0707C16.3586 9.25117 17.8715 7.73828 19.6911 7.73828C21.5106 7.73828 23.0235 9.25117 23.0235 11.0707C23.0235 12.8903 21.5822 14.4032 19.6911 14.4032ZM30.2915 14.4032C28.472 14.4032 26.9591 12.8903 26.9591 11.0707C26.9591 9.25117 28.472 7.73828 30.2915 7.73828C32.1111 7.73828 33.624 9.25117 33.624 11.0707C33.624 12.8903 32.1826 14.4032 30.2915 14.4032Z"/>
</g>
<defs>
<clipPath id="clip0_2652_3549">
<rect width="92" height="92"/>
</clipPath>
</defs>
</svg>
