<svg viewBox="0 0 92 92" xmlns="http://www.w3.org/2000/svg">
<g clip-path="url(#clip0_1451_4675)">
<path d="M30.5742 44.7324C33.7926 47.9607 37.7883 50.1243 42.1426 51.0557L41.2979 54.0654C36.4423 52.9819 31.9747 50.5489 28.3662 46.9404L30.5742 44.7324Z"/>
<path d="M65.8213 46.9297C62.8026 49.9484 59.1726 52.159 55.21 53.4258L52.8691 50.8457C56.8967 49.8235 60.5977 47.7382 63.6133 44.7227L65.8213 46.9297Z"/>
<path d="M60.3213 41.4199C56.7946 44.9568 52.092 46.8994 47.1035 46.8994H47.084C42.0955 46.8994 37.3929 44.9466 33.8662 41.4199L36.0742 39.2129C39.0182 42.1465 42.9334 43.7715 47.0938 43.7715C51.2541 43.7715 55.1693 42.1567 58.1133 39.2129L60.3213 41.4199Z"/>
<path d="M54.8115 35.9209H54.8018C50.5493 40.1733 43.6284 40.1733 39.376 35.9209L41.584 33.7129C44.6302 36.7489 49.5675 36.7489 52.6035 33.7129L54.8115 35.9209Z"/>
<path d="M61.1699 13.0742C63.0273 13.0743 64.5332 14.5781 64.5332 16.4326C64.533 18.287 63.0271 19.79 61.1699 19.79H59.2988C58.9281 26.2347 53.58 31.3514 47.043 31.3516C40.5058 31.3516 35.1579 26.2348 34.7871 19.79H32.1182C30.2609 19.79 28.7551 18.287 28.7549 16.4326C28.7549 14.5781 30.2608 13.0743 32.1182 13.0742H61.1699Z"/>
<path d="M47.7889 55.1693C49.5574 55.1693 50.9987 53.6053 50.9987 51.6835C50.9987 49.7618 49.5574 48.1978 47.7889 48.1978C46.0205 48.1978 44.5791 49.7618 44.5791 51.6835C44.5791 53.6053 46.0205 55.1693 47.7889 55.1693ZM54.1063 65.9844L52.5525 65.1258L51.9085 62.9893C50.9271 59.7489 48.1876 57.4898 45.0698 57.4795C42.6676 57.4795 41.3285 58.2155 38.8343 59.3093C37.3929 59.9431 36.2072 61.1391 35.512 62.6622L35.0623 63.6538C34.5409 64.7986 34.96 66.1889 36.0129 66.7613C37.0556 67.3338 38.3231 66.8738 38.8547 65.7289L39.3045 64.7373C39.5396 64.2262 39.928 63.8275 40.4085 63.6231L42.1974 62.836L41.1854 67.2418C40.8378 68.7546 41.216 70.3493 42.1769 71.5044L46.184 76.2475C46.6645 76.82 47.0018 77.5049 47.1756 78.2613L48.4023 83.5769C48.6885 84.8138 49.8538 85.5804 50.9987 85.2635C52.1436 84.9466 52.8489 83.6893 52.5525 82.4524L51.0703 75.992C50.8965 75.2458 50.5591 74.5506 50.0787 73.9782L47.0325 70.3697L48.1876 65.3813L48.5556 66.5773C48.9134 67.7426 49.6698 68.7138 50.6716 69.2658L52.2254 70.1244C53.268 70.6969 54.5356 70.2369 55.0671 69.092C55.5783 67.9573 55.1591 66.5466 54.1063 65.9742V65.9844ZM38.8036 76.1964C38.5889 76.7791 38.272 77.3106 37.8529 77.7604L34.5103 81.3995C33.672 82.3093 33.672 83.7813 34.5103 84.6809C35.3485 85.5906 36.6978 85.5906 37.536 84.6809L41.5125 80.3671C41.9214 79.9275 42.2383 79.396 42.4631 78.8031L43.3627 76.3498C39.6623 71.9746 40.7765 73.3138 40.1938 72.4551L38.8138 76.1862L38.8036 76.1964Z"/>
<path d="M74.1111 92H17.8889C8.07556 92 0 83.9244 0 74.1111V17.8889C0 8.07556 8.07556 0 17.8889 0H74.1111C83.9244 0 92 8.07556 92 17.8889V74.1111C92 83.9244 83.9244 92 74.1111 92ZM17.8889 5.11111C10.8356 5.11111 5.11111 10.8356 5.11111 17.8889V74.1111C5.11111 81.1645 10.8356 86.8889 17.8889 86.8889H74.1111C81.1645 86.8889 86.8889 81.1645 86.8889 74.1111V17.8889C86.8889 10.8356 81.1645 5.11111 74.1111 5.11111H17.8889Z"/>
<path d="M74.0391 73.4053C74.7239 73.4053 75.2967 73.7638 76.3496 74.418L77.3721 75.0518C78.3635 75.665 78.916 76.0023 79.2227 76.585C79.5394 77.1573 79.5391 77.7711 79.5391 79.0078V79.7842C79.5391 81.8794 79.539 82.9324 78.834 83.6582C78.1185 84.3942 77.1063 84.3945 75.0723 84.3945H75.0615V83.6279C76.8811 83.6279 77.791 83.6278 78.2715 83.127C78.7621 82.6158 78.7617 81.6752 78.7617 79.7842V79.0078C78.7617 77.9041 78.7623 77.3518 78.5479 76.9531C78.3332 76.5545 77.8727 76.2683 76.9629 75.7061L75.9404 75.0723C74.0189 73.8764 74.0602 73.8764 72.1387 75.0723L71.1162 75.7061C70.2064 76.2683 69.7459 76.5545 69.5312 76.9531C69.4087 77.1779 69.3476 77.4437 69.3271 77.9033L68.5605 77.8623C68.5912 77.2902 68.6726 76.9119 68.8564 76.585C69.1733 76.0125 69.7156 75.6753 70.707 75.0518L71.7295 74.418C72.7821 73.7639 73.3544 73.4054 74.0391 73.4053Z"/>
<path d="M68.9287 82.1055C69.9814 82.1056 70.8504 82.9635 70.8506 84.0264L70.8398 84.0166H70.0732C70.0732 83.3829 69.5624 82.8722 68.9287 82.8721V82.1055Z"/>
<path d="M68.9287 80.5713C70.8298 80.5714 72.3836 82.115 72.3838 84.0264L72.373 84.0166H71.6064C71.6064 82.5345 70.4006 81.338 68.9287 81.3379V80.5713Z"/>
<path d="M68.9287 79.0381C71.6782 79.0382 73.9168 81.2769 73.917 84.0264L73.9062 84.0166H73.1396C73.1396 81.6962 71.249 79.8048 68.9287 79.8047V79.0381Z"/>
</g>
<defs>
<clipPath id="clip0_1451_4675">
<rect width="92" height="92"/>
</clipPath>
</defs>
</svg>
