<svg viewBox="0 0 92 92" xmlns="http://www.w3.org/2000/svg">
<g clip-path="url(#clip0_2657_4643)">
<path d="M74.59 5C81.43 5 87 10.57 87 17.41V74.59C87 81.43 81.43 87 74.59 87H17.41C10.57 87 5 81.43 5 74.59V17.41C5 10.57 10.57 5 17.41 5H74.59ZM74.59 0H17.41C7.79 0 0 7.79 0 17.41V74.59C0 84.2 7.79 92 17.41 92H74.59C84.2 92 92 84.21 92 74.59V17.41C92 7.8 84.21 0 74.59 0Z"/>
<path d="M71.11 76.2301V31.5601H20.89V76.2301H17.79V78.2501H74.21V76.2301H71.11ZM27.61 41.8101H64.38V44.4901H27.61V41.8101ZM27.61 46.5101H64.38V49.1901H27.61V46.5101ZM27.61 51.2201H64.38V53.9001H27.61V51.2201ZM27.61 55.9201H64.38V58.6001H27.61V55.9201ZM27.61 60.6201H64.38V63.3001H27.61V60.6201ZM27.61 65.3201H64.38V68.0001H27.61V65.3201ZM27.61 70.0201H64.38V76.2301H27.61V70.0201ZM69.09 76.2301H66.41V41.8101H69.09V76.2301ZM22.91 33.5801H69.08V39.7901H22.91V33.5801ZM22.91 41.8101H25.59V76.2301H22.91V41.8101Z"/>
<path d="M52.78 21.82V20.56H51.94V19.72C51.94 18.79 51.19 18.04 50.26 18.04H41.03C40.1 18.04 39.35 18.79 39.35 19.72V25.59C39.35 26.52 40.1 27.27 41.03 27.27H50.26C51.19 27.27 51.94 26.52 51.94 25.59V24.75H52.78V23.49H56.14V21.81H52.78V21.82ZM49.43 25.6H41.88V24.76H49.43V25.6ZM49.43 23.92H41.88V23.08H49.43V23.92ZM49.43 22.24H41.88V21.4H49.43V22.24ZM49.43 20.57H41.88V19.73H49.43V20.57ZM40.19 28.12H51.1V29.8H40.19V28.12Z"/>
</g>
<defs>
<clipPath id="clip0_2657_4643">
<rect width="92" height="92"/>
</clipPath>
</defs>
</svg>
