<svg viewBox="0 0 92 92" xmlns="http://www.w3.org/2000/svg">
<path d="M76.6532 77.95H15.3469C7.14697 77.95 0.5 71.23 0.5 62.94V28.51C0.5 20.22 7.14697 13.5 15.3469 13.5H76.6631C84.863 13.5 91.51 20.22 91.51 28.51V62.94C91.51 71.23 84.863 77.95 76.6631 77.95H76.6532ZM15.3469 17.33C9.24392 17.33 4.29827 22.33 4.29827 28.5V62.93C4.29827 69.1 9.24392 74.1 15.3469 74.1H76.6631C82.7661 74.1 87.7117 69.1 87.7117 62.93V28.51C87.7117 22.34 82.7661 17.34 76.6631 17.34H15.3469V17.33Z"/>
<path d="M9.62 30.4399H27.02V33.9399H13.79V44.6699H26.01V48.1199H13.79V62.7399H9.62V30.4399Z"/>
<path d="M32.38 57.6599C34.25 58.8099 36.98 59.7699 39.86 59.7699C44.12 59.7699 46.62 57.5199 46.62 54.2599C46.62 51.2399 44.9 49.5199 40.53 47.8399C35.26 45.9699 32 43.2399 32 38.6899C32 33.6599 36.17 29.9199 42.45 29.9199C45.76 29.9199 48.15 30.6899 49.59 31.4999L48.44 34.8999C47.39 34.3199 45.23 33.3699 42.31 33.3699C37.9 33.3699 36.22 36.0099 36.22 38.2099C36.22 41.2299 38.19 42.7099 42.64 44.4399C48.1 46.5499 50.88 49.1799 50.88 53.9299C50.88 58.9099 47.19 63.2299 39.57 63.2299C36.46 63.2299 33.05 62.3199 31.33 61.1699L32.38 57.6699V57.6599Z"/>
<path d="M56.58 30.88C59.12 30.5 62.14 30.21 65.45 30.21C71.44 30.21 75.7 31.6 78.53 34.24C81.41 36.88 83.08 40.61 83.08 45.84C83.08 51.07 81.45 55.42 78.43 58.4C75.41 61.42 70.43 63.05 64.15 63.05C61.18 63.05 58.69 62.91 56.58 62.67V30.9V30.88ZM60.75 59.44C61.8 59.63 63.34 59.68 64.97 59.68C73.88 59.68 78.72 54.7 78.72 45.97C78.77 38.35 74.46 33.51 65.64 33.51C63.48 33.51 61.85 33.7 60.75 33.94V59.43V59.44Z"/>
</svg>
