<svg viewBox="0 0 92 92" xmlns="http://www.w3.org/2000/svg">
<g clip-path="url(#clip0_2427_3284)">
<path d="M74.59 5C81.43 5 87 10.57 87 17.41V74.59C87 81.43 81.43 87 74.59 87H17.41C10.57 87 5 81.43 5 74.59V17.41C5 10.57 10.57 5 17.41 5H74.59ZM74.59 0H17.41C7.79 0 0 7.79 0 17.41V74.59C0 84.2 7.79 92 17.41 92H74.59C84.2 92 92 84.21 92 74.59V17.41C92 7.8 84.21 0 74.59 0Z"/>
<path d="M45.07 29.7C41.5 29.7 38.59 26.79 38.59 23.22C38.59 19.65 41.5 16.74 45.07 16.74C48.64 16.74 51.55 19.65 51.55 23.22C51.55 26.79 48.64 29.7 45.07 29.7ZM45.07 20.74C43.7 20.74 42.59 21.85 42.59 23.22C42.59 24.59 43.7 25.7 45.07 25.7C46.44 25.7 47.55 24.59 47.55 23.22C47.55 21.85 46.44 20.74 45.07 20.74Z"/>
<path d="M45.0699 35.67C37.6299 35.67 31.1399 30.91 28.9099 23.82C28.7899 23.43 28.7899 23.01 28.9099 22.62C31.1399 15.53 37.6299 10.77 45.0699 10.77C52.5099 10.77 58.9999 15.53 61.2299 22.62C61.3499 23.01 61.3499 23.43 61.2299 23.82C58.9999 30.91 52.5099 35.67 45.0699 35.67ZM32.9299 23.22C34.7999 28.3 39.5999 31.67 45.0699 31.67C50.5399 31.67 55.3399 28.3 57.2099 23.22C55.3399 18.14 50.5399 14.77 45.0699 14.77C39.5999 14.77 34.7999 18.14 32.9299 23.22Z"/>
<path fill-rule="evenodd" clip-rule="evenodd" d="M28.01 42.3601V49.5601C28.01 51.5501 29.62 53.1601 31.61 53.1601H32.15L33.55 62.6801C33.81 64.4601 35.35 65.7801 37.15 65.7601H54.93C56.73 65.7801 58.27 64.4601 58.53 62.6801L59.86 53.1601H60.4C62.39 53.1601 64 51.5501 64 49.5601V42.3601H28.01ZM54.89 62.1501H37.11L35.78 53.1501H56.22L54.89 62.1501ZM60.39 49.5501H31.6V45.9501H60.39V49.5501ZM40.6 60.3501L39.7 54.9501H42.4L43.3 60.3501H40.6ZM40.91 73.5001C41.63 74.3501 42.03 75.4301 42.04 76.5401C42.04 77.7301 41.58 78.8601 40.76 79.7201C40.51 79.9901 40.23 80.2401 39.93 80.4601L39.64 80.6601C39.64 80.6601 39.57 80.6701 39.53 80.6601L38.79 79.4501L38.11 78.1901H38.24C38.39 78.0901 38.52 77.9701 38.64 77.8301C38.98 77.4901 39.17 77.0201 39.16 76.5301C39.16 76.0601 39 75.7901 38.55 75.1801C37.85 74.3301 37.45 73.2801 37.42 72.1801C37.45 70.9801 37.87 69.8201 38.61 68.8701C38.83 68.5501 39.09 68.2601 39.37 67.9901L39.62 67.7401H39.71L40.63 68.8601L41.55 69.9801L41.41 70.1201C41.24 70.2901 41.08 70.4801 40.94 70.6801C40.56 71.1301 40.34 71.6901 40.31 72.2801C40.31 72.7501 40.47 73.0201 40.94 73.6301L40.92 73.5001H40.91ZM48.11 73.5001C48.83 74.3501 49.23 75.4301 49.24 76.5401C49.24 77.7301 48.78 78.8601 47.96 79.7201C47.71 79.9901 47.43 80.2401 47.13 80.4601L46.84 80.6601C46.84 80.6601 46.77 80.6701 46.73 80.6601L46.05 79.4001L45.37 78.1401H45.5C45.65 78.0401 45.78 77.9201 45.9 77.7801C46.21 77.4401 46.38 77.0001 46.37 76.5401C46.37 76.0701 46.21 75.8001 45.76 75.1901C45.06 74.3401 44.66 73.2901 44.63 72.1901C44.66 70.9901 45.08 69.8301 45.82 68.8801C46.04 68.5601 46.3 68.2701 46.58 68.0001L46.83 67.7501H46.92L47.84 68.8701L48.76 69.9901L48.62 70.1301C48.45 70.3001 48.29 70.4901 48.15 70.6901C47.77 71.1401 47.55 71.7001 47.52 72.2901C47.52 72.7601 47.68 73.0301 48.15 73.6401L48.13 73.5101L48.11 73.5001ZM55.3 73.5001C56.02 74.3501 56.42 75.4301 56.43 76.5401C56.43 77.7301 55.97 78.8601 55.15 79.7201C54.9 79.9901 54.62 80.2401 54.32 80.4601L54.03 80.6601C54.03 80.6601 53.96 80.6701 53.92 80.6601L53.24 79.4001L52.56 78.1401H52.69C52.84 78.0401 52.97 77.9201 53.09 77.7801C53.4 77.4401 53.57 77.0001 53.56 76.5401C53.56 76.0701 53.4 75.8001 52.95 75.1901C52.25 74.3401 51.85 73.2901 51.82 72.1901C51.85 70.9901 52.27 69.8301 53.01 68.8801C53.23 68.5601 53.49 68.2701 53.77 68.0001L54.02 67.7501L54.94 68.8701L55.86 69.9901L55.72 70.1301C55.55 70.3001 55.39 70.4901 55.25 70.6901C54.87 71.1401 54.65 71.7001 54.62 72.2901C54.62 72.7601 54.78 73.0301 55.25 73.6401L55.32 73.5101L55.3 73.5001Z"/>
</g>
<defs>
<clipPath id="clip0_2427_3284">
<rect width="92" height="92"/>
</clipPath>
</defs>
</svg>
