<svg viewBox="0 0 92 92" xmlns="http://www.w3.org/2000/svg">
<g clip-path="url(#clip0_1451_4825)">
<path d="M74.1111 92H17.8889C8.07556 92 0 83.9244 0 74.1111V17.8889C0 8.07556 8.07556 0 17.8889 0H74.1111C83.9244 0 92 8.07556 92 17.8889V74.1111C92 83.9244 83.9244 92 74.1111 92ZM17.8889 5.11111C10.8356 5.11111 5.11111 10.8356 5.11111 17.8889V74.1111C5.11111 81.1645 10.8356 86.8889 17.8889 86.8889H74.1111C81.1645 86.8889 86.8889 81.1645 86.8889 74.1111V17.8889C86.8889 10.8356 81.1645 5.11111 74.1111 5.11111H17.8889Z"/>
<path d="M80.7556 80.7555H11.2444V11.2444H80.7556V80.7555ZM14.3111 77.6888H77.6889V14.3111H14.3111V77.6888Z"/>
<path d="M68.9492 65.126C69.6339 65.1261 70.2062 65.4837 71.2588 66.1377L72.2812 66.7715C73.2728 67.3848 73.8149 67.722 74.1318 68.3047C74.4487 68.8771 74.4482 69.4907 74.4482 70.7275V71.5049C74.4482 73.6001 74.4484 74.6532 73.7432 75.3789C73.0276 76.1148 72.0155 76.1143 69.9814 76.1143H69.9707V75.3477C71.7903 75.3477 72.7002 75.3476 73.1807 74.8467C73.6712 74.3356 73.6719 73.3956 73.6719 71.5049V70.7275C73.6719 69.6236 73.6717 69.0715 73.457 68.6729C73.2424 68.2742 72.7818 67.988 71.8721 67.4258L70.8506 66.792C68.9289 65.596 68.9694 65.5961 67.0479 66.792L66.0254 67.4258C65.1156 67.988 64.6551 68.2742 64.4404 68.6729C64.3179 68.8976 64.2568 69.1635 64.2363 69.623L63.4697 69.583C63.5004 69.0106 63.5826 68.6318 63.7666 68.3047C64.0835 67.7324 64.6249 67.3949 65.6162 66.7715L66.6387 66.1377C67.6916 65.4835 68.2643 65.126 68.9492 65.126Z"/>
<path d="M63.8477 73.8145C64.9005 73.8145 65.7695 74.6733 65.7695 75.7363L65.7598 75.7266H64.9932C64.9932 75.0928 64.4814 74.5811 63.8477 74.5811V73.8145Z"/>
<path d="M63.8477 72.2812C65.749 72.2812 67.3027 73.8248 67.3027 75.7363L67.293 75.7266H66.5264C66.5264 74.2443 65.3197 73.0479 63.8477 73.0479V72.2812Z"/>
<path d="M63.8477 70.748C66.5974 70.748 68.8368 72.9866 68.8369 75.7363L68.8262 75.7266H68.0596C68.0596 73.4061 66.1681 71.5146 63.8477 71.5146V70.748Z"/>
<path d="M35.6653 13.3298H33.6209V79.4267H35.6653V13.3298Z"/>
<path d="M35.0725 35.1338H11.316V37.1782H35.0725V35.1338Z"/>
<path d="M35.0111 57.1116H12.3382V59.156H35.0111V57.1116Z"/>
<path d="M58.5427 12.3179H56.4982V78.4148H58.5427V12.3179Z"/>
<path d="M80.2956 57.1116H57.6227V59.156H80.2956V57.1116Z"/>
<path d="M80.316 35.1338H56.5596V37.1782H80.316V35.1338Z"/>
<path d="M43.7266 44.0914L48.5146 46.9303C48.5453 46.9405 48.5654 46.9914 48.5654 47.0221C48.5654 47.0517 48.5179 47.11 48.5146 47.1139L43.7715 49.9459C43.7408 49.9663 43.6898 49.9663 43.6592 49.9459C43.6197 49.936 43.599 49.8593 43.5977 49.8541V44.191C43.5977 44.1604 43.6183 44.1187 43.6592 44.0983C43.6745 44.0882 43.7025 44.0889 43.7266 44.0914Z"/>
</g>
<defs>
<clipPath id="clip0_1451_4825">
<rect width="92" height="92"/>
</clipPath>
</defs>
</svg>
