<svg viewBox="0 0 92 92" xmlns="http://www.w3.org/2000/svg">
<path d="M16.87 29.8699H34.27V33.3699H21.04V44.0999H33.26V47.5499H21.04V62.1699H16.87V29.8699Z"/>
<path d="M41.69 51.9999L38.34 62.1599H34.03L45 29.8599H50.03L61.05 62.1599H56.59L53.14 51.9999H41.69ZM52.28 48.7499L49.12 39.4499C48.4 37.3399 47.92 35.4199 47.44 33.5599H47.34C46.86 35.4799 46.33 37.4399 45.71 39.4099L42.55 48.7499H52.28Z"/>
<path d="M68.24 33.4099H58.42V29.8599H82.33V33.4099H72.46V62.1599H68.24V33.4099Z"/>
<path d="M76.6532 77.95H15.3469C7.14697 77.95 0.5 71.23 0.5 62.94V28.51C0.5 20.22 7.14697 13.5 15.3469 13.5H76.6631C84.863 13.5 91.51 20.22 91.51 28.51V62.94C91.51 71.23 84.863 77.95 76.6631 77.95H76.6532ZM15.3469 17.33C9.24392 17.33 4.29827 22.33 4.29827 28.5V62.93C4.29827 69.1 9.24392 74.1 15.3469 74.1H76.6631C82.7661 74.1 87.7117 69.1 87.7117 62.93V28.51C87.7117 22.34 82.7661 17.34 76.6631 17.34H15.3469V17.33Z"/>
</svg>
