<svg viewBox="0 0 92 92" xmlns="http://www.w3.org/2000/svg">
<g clip-path="url(#clip0_1451_4784)">
<path d="M74.1111 92H17.8889C8.07556 92 0 83.9244 0 74.1111V17.8889C0 8.07556 8.07556 0 17.8889 0H74.1111C83.9244 0 92 8.07556 92 17.8889V74.1111C92 83.9244 83.9244 92 74.1111 92ZM17.8889 5.11111C10.8356 5.11111 5.11111 10.8356 5.11111 17.8889V74.1111C5.11111 81.1645 10.8356 86.8889 17.8889 86.8889H74.1111C81.1645 86.8889 86.8889 81.1645 86.8889 74.1111V17.8889C86.8889 10.8356 81.1645 5.11111 74.1111 5.11111H17.8889Z"/>
<path d="M73.9883 73.8652C74.6731 73.8652 75.2046 74.2033 76.2881 74.8779L77.3105 75.5117C78.3021 76.125 78.8545 76.4725 79.1611 77.0449C79.4779 77.6173 79.4775 78.231 79.4775 79.4678V80.2441C79.4775 82.3395 79.4776 83.3924 78.7725 84.1182C78.0569 84.8542 77.0449 84.8545 75.0107 84.8545V84.0879C76.8302 84.0879 77.7403 84.0878 78.2207 83.5869C78.7112 83.0758 78.7109 82.135 78.7109 80.2441V79.4678C78.7109 78.3638 78.7107 77.8117 78.4961 77.4131C78.2814 77.0144 77.8218 76.7282 76.9121 76.166L75.8896 75.5322C73.9679 74.3362 74.0087 74.3362 72.0869 75.5322L71.0645 76.166C70.155 76.7281 69.6951 77.0145 69.4805 77.4131C69.3579 77.6379 69.2968 77.9036 69.2764 78.3633L68.5098 78.3223C68.5404 77.7501 68.6217 77.3822 68.8057 77.0449C69.1226 76.4725 69.6647 76.1353 70.6562 75.5117L71.6787 74.8779C72.762 74.2034 73.3035 73.8653 73.9883 73.8652Z"/>
<path d="M68.877 82.5654C69.9297 82.5654 70.7986 83.4234 70.7988 84.4863L70.7891 84.4766H70.0225C70.0225 83.8428 69.5107 83.332 68.877 83.332V82.5654Z"/>
<path d="M68.877 81.0312C70.7782 81.0312 72.3319 82.5749 72.332 84.4863L72.3223 84.4766H71.5557C71.5557 82.9943 70.349 81.7979 68.877 81.7979V81.0312Z"/>
<path d="M68.877 79.498C71.6267 79.498 73.8661 81.7366 73.8662 84.4863L73.8555 84.4766H73.0889C73.0889 82.1561 71.1974 80.2646 68.877 80.2646V79.498Z"/>
<path d="M51.4893 31.5662C51.4893 21.8142 36.6569 21.8142 36.6569 31.5662V52.2253C34.7249 54.1369 33.5391 56.7844 33.5391 59.708C33.5391 65.5244 38.2516 70.2471 44.0782 70.2471C49.9049 70.2471 54.6173 65.5346 54.6173 59.708C54.6173 56.7844 53.4213 54.1369 51.4996 52.2253V31.5662H51.4893ZM44.0782 67.8449C39.5498 67.8449 35.88 64.1751 35.88 59.6466C35.88 57.224 36.9329 55.0466 38.5991 53.544V53.5235C38.8036 53.3293 38.9365 53.0738 38.9569 52.7773C38.9569 52.7773 38.9671 52.7364 38.9671 52.716V52.6751V31.5662C38.9671 31.4844 38.9671 31.3822 38.9671 31.2902C38.9671 28.6324 41.124 26.4755 43.7818 26.4755C43.8738 26.4755 43.9658 26.4755 44.0578 26.4755H44.0476C44.1293 26.4755 44.2213 26.4755 44.3133 26.4755C46.9711 26.4755 49.128 28.6324 49.128 31.2902C49.128 31.3924 49.128 31.4844 49.128 31.5764V52.6649V52.7058L49.1485 52.7569C49.1689 53.0533 49.3018 53.3191 49.5062 53.5133V53.5338C51.1929 55.0466 52.2458 57.224 52.2458 59.6466C52.2458 64.1751 48.576 67.8449 44.0476 67.8449H44.0782ZM45.2538 55.5373V49.6595C45.2538 49.0155 44.7325 48.484 44.0782 48.484C43.424 48.484 42.9027 49.0053 42.9027 49.6595V55.5373C41.0831 56.0689 39.7849 57.7146 39.7849 59.6671C39.7849 62.0386 41.7067 63.9604 44.0782 63.9604C46.4498 63.9604 48.3716 62.0386 48.3716 59.6671C48.3716 57.7146 47.0631 56.0689 45.2742 55.5475H45.2436L45.2538 55.5373ZM60.4645 25.6986C57.6636 25.6986 55.3942 27.968 55.3942 30.7689C55.3942 33.5698 57.6636 35.8391 60.4645 35.8391C63.2653 35.8391 65.5347 33.5698 65.5347 30.7689C65.5347 27.968 63.2653 25.6986 60.4645 25.6986ZM60.4645 33.4982C58.9516 33.4982 57.7351 32.2715 57.7351 30.7689C57.7351 29.2662 58.9618 28.0395 60.4645 28.0395C61.9671 28.0395 63.1938 29.2662 63.1938 30.7689C63.1938 32.2818 61.9671 33.4982 60.4645 33.4982Z"/>
</g>
<defs>
<clipPath id="clip0_1451_4784">
<rect width="92" height="92"/>
</clipPath>
</defs>
</svg>
