<svg viewBox="0 0 92 92" xmlns="http://www.w3.org/2000/svg">
<g clip-path="url(#clip0_1451_3584)">
<path d="M74.11 92H17.89C8.08 92 0 83.92 0 74.11V17.89C0 8.08 8.08 0 17.89 0H74.11C83.92 0 92 8.08 92 17.89V74.11C92 83.92 83.92 92 74.11 92ZM17.89 5.11C10.84 5.11 5.11 10.83 5.11 17.89V74.11C5.11 81.16 10.83 86.89 17.89 86.89H74.11C81.16 86.89 86.89 81.17 86.89 74.11V17.89C86.89 10.84 81.17 5.11 74.11 5.11H17.89Z"/>
<path d="M80.7602 80.7602H11.2402V11.2402H80.7502V80.7502L80.7602 80.7602ZM14.3102 77.6902H77.6902V14.3102H14.3102V77.6902Z"/>
<path d="M45.8446 33.0305C46.1196 33.0145 46.4001 33.1106 46.6103 33.3206C46.71 33.4202 46.7831 33.5362 46.8319 33.6594L55.3007 42.136C55.6911 42.5267 55.6905 43.1598 55.2997 43.55C54.9092 43.94 54.2769 43.9402 53.8866 43.55L45.8446 35.5002L37.8036 43.55C37.4134 43.9406 36.7801 43.9403 36.3896 43.55C35.9993 43.16 35.9988 42.5275 36.3886 42.137L44.8573 33.6575C44.9061 33.5348 44.9807 33.4198 45.08 33.3206C45.29 33.1107 45.5699 33.0147 45.8446 33.0305Z"/>
<path d="M54.1952 48.4507C54.5856 48.0599 55.2194 48.0602 55.6102 48.4507C56.0006 48.8412 56.0005 49.4741 55.6102 49.8648L47.1444 58.3374C47.0955 58.4623 47.0207 58.5794 46.9198 58.6802C46.7094 58.8902 46.4292 58.9856 46.1541 58.9693C45.8794 58.9852 45.5995 58.89 45.3895 58.6802C45.2887 58.5794 45.2146 58.4622 45.1659 58.3374L36.6991 49.8648C36.3089 49.4742 36.3097 48.8411 36.7 48.4507C37.0906 48.0602 37.7237 48.0601 38.1141 48.4507L46.1541 56.4995L54.1952 48.4507Z"/>
</g>
<defs>
<clipPath id="clip0_1451_3584">
<rect width="92" height="92"/>
</clipPath>
</defs>
</svg>
