<svg viewBox="0 0 92 92" xmlns="http://www.w3.org/2000/svg">
<g clip-path="url(#clip0_1451_3537)">
<path d="M74.1111 92H17.8889C8.07556 92 0 83.9244 0 74.1111V17.8889C0 8.07556 8.07556 0 17.8889 0H74.1111C83.9244 0 92 8.07556 92 17.8889V74.1111C92 83.9244 83.9244 92 74.1111 92ZM17.8889 5.11111C10.8356 5.11111 5.11111 10.8356 5.11111 17.8889V74.1111C5.11111 81.1645 10.8356 86.8889 17.8889 86.8889H74.1111C81.1645 86.8889 86.8889 81.1645 86.8889 74.1111V17.8889C86.8889 10.8356 81.1645 5.11111 74.1111 5.11111H17.8889Z"/>
<path d="M80.7552 80.7552H11.2441V11.2441H80.7552V80.7552ZM14.3108 77.6886H77.6886V14.3108H14.3108V77.6886Z"/>
<path d="M46 56.5518C46.5523 56.5518 47 56.9995 47 57.5518V61.334C46.9997 61.886 46.5521 62.334 46 62.334C45.448 62.3338 45.0003 61.8859 45 61.334V57.5518C45 56.9996 45.4479 56.5519 46 56.5518Z"/>
<path d="M37.1152 53.4707C37.5058 53.0805 38.1399 53.0804 38.5303 53.4707C38.9204 53.8611 38.9202 54.4943 38.5303 54.8848L35.8721 57.543C35.4816 57.9332 34.8485 57.9332 34.458 57.543C34.0676 57.1524 34.0675 56.5184 34.458 56.1279L37.1152 53.4707Z"/>
<path d="M53.4707 53.4707C53.8611 53.0803 54.4942 53.0806 54.8848 53.4707L57.543 56.1279C57.9335 56.5184 57.9335 57.1524 57.543 57.543C57.1524 57.9335 56.5185 57.9335 56.1279 57.543L53.4707 54.8848C53.0806 54.4942 53.0803 53.8611 53.4707 53.4707Z"/>
<path fill-rule="evenodd" clip-rule="evenodd" d="M44.876 39.1738C45.428 39.1741 45.876 39.6217 45.876 40.1738C45.876 40.726 45.428 41.1736 44.876 41.1738C42.2595 41.174 40.0488 43.3845 40.0488 46.001C40.0491 48.6172 42.2597 50.8269 44.876 50.8271C47.2746 50.8269 49.3146 49.0612 49.6523 46.6943H48.4541C48.0904 46.6943 47.7553 46.4959 47.5791 46.1777C47.4031 45.8593 47.414 45.4702 47.6074 45.1621L49.8564 41.584L49.9316 41.4805C50.1201 41.2517 50.4023 41.1162 50.7031 41.1162C51.0468 41.1164 51.3669 41.293 51.5498 41.584L53.7988 45.1621C53.992 45.4701 54.003 45.8595 53.8271 46.1777C53.6512 46.496 53.3158 46.6941 52.9521 46.6943H51.668C51.3188 50.19 48.3585 52.8269 44.876 52.8271C41.1551 52.8269 38.0491 49.7218 38.0488 46.001C38.0488 42.2799 41.155 39.174 44.876 39.1738ZM50.2637 44.6943H51.1426L50.7031 43.9951L50.2637 44.6943Z"/>
<path d="M34.4492 45.001C35.0015 45.001 35.4492 45.4487 35.4492 46.001C35.449 46.553 35.0013 47.001 34.4492 47.001H30.667C30.1149 47.001 29.6673 46.553 29.667 46.001C29.667 45.4487 30.1147 45.001 30.667 45.001H34.4492Z"/>
<path d="M61.334 45.001C61.8861 45.0011 62.334 45.4488 62.334 46.001C62.3337 46.5529 61.886 47.0008 61.334 47.001H57.5518C56.9996 47.001 56.552 46.553 56.5518 46.001C56.5518 45.4487 56.9995 45.001 57.5518 45.001H61.334Z"/>
<path d="M34.458 34.458C34.8485 34.0676 35.4816 34.0675 35.8721 34.458L38.5303 37.1152C38.9206 37.5057 38.9207 38.1398 38.5303 38.5303C38.1398 38.9207 37.5058 38.9206 37.1152 38.5303L34.458 35.8721C34.0675 35.4815 34.0675 34.8485 34.458 34.458Z"/>
<path d="M56.1279 34.458C56.5184 34.0675 57.1524 34.0676 57.543 34.458C57.9332 34.8485 57.9332 35.4816 57.543 35.8721L54.8848 38.5303C54.4943 38.9203 53.8611 38.9204 53.4707 38.5303C53.0804 38.1398 53.0804 37.5057 53.4707 37.1152L56.1279 34.458Z"/>
<path d="M46 29.667C46.5523 29.667 47 30.1147 47 30.667V34.4492C47 35.0015 46.5523 35.4492 46 35.4492C45.4479 35.4491 45 35.0014 45 34.4492V30.667C45 30.1148 45.4479 29.6672 46 29.667Z"/>
</g>
<defs>
<clipPath id="clip0_1451_3537">
<rect width="92" height="92"/>
</clipPath>
</defs>
</svg>
