<svg viewBox="0 0 92 92" xmlns="http://www.w3.org/2000/svg">
<g clip-path="url(#clip0_2652_3596)">
<path d="M15.8271 92C9.29511 92 4 86.7049 4 80.1729V11.8271C4 5.29511 9.29511 0 15.8271 0H76.4551C82.9871 0 88.2822 5.29511 88.2822 11.8271V80.1831C88.2822 86.7151 82.9871 92.0102 76.4551 92.0102H15.8271V92ZM8.54889 80.1729C8.54889 84.1902 11.8098 87.4511 15.8271 87.4511H76.4551C80.4724 87.4511 83.7333 84.1902 83.7333 80.1729V21.5178H8.54889V80.1729ZM83.7231 16.9791V11.8271C83.7231 7.80978 80.4622 4.54889 76.4449 4.54889H15.8271C11.8098 4.54889 8.54889 7.80978 8.54889 11.8271V16.9791H83.7231Z"/>
<path d="M46.2075 82.7592C30.6698 82.7592 18.0964 70.1041 18.0964 54.5663C18.0964 39.0285 30.7515 26.3734 46.2893 26.3734C61.8271 26.3734 74.4822 39.0285 74.4822 54.5663C74.4106 70.1041 61.7555 82.7592 46.2178 82.7592H46.2075ZM23.6266 61.2312C26.5809 71.2387 35.9035 78.1285 46.2893 78.1285C58.7911 78.1285 69.0951 68.4276 69.8618 55.9974C66.6826 59.0334 61.7555 62.5192 55.6938 62.5192C50.46 62.5192 46.8311 59.8716 43.6418 57.5205C40.9124 55.5476 38.6431 53.8098 35.6071 53.8098C29.852 53.8814 24.6898 59.8716 23.6369 61.2414L23.6266 61.2312ZM35.5253 49.3325C40.0742 49.3325 43.1818 51.6836 46.2893 53.9529C49.172 56.0792 51.8195 58.0418 55.612 58.0418C59.4044 58.0418 62.8902 55.9156 65.0062 54.1778C67.3573 52.2867 68.7169 50.4672 68.8702 50.2321C69.0235 50.0787 69.0951 49.9254 69.32 49.7823C67.0506 38.865 57.3498 30.9121 46.2075 30.9121C33.2458 30.9121 22.6351 41.5227 22.6351 54.5561V55.5374C25.5893 52.6547 30.2098 49.3223 35.5151 49.3223L35.5253 49.3325ZM19.6911 14.4032C17.8715 14.4032 16.3586 12.8903 16.3586 11.0707C16.3586 9.25117 17.8715 7.73828 19.6911 7.73828C21.5106 7.73828 23.0235 9.25117 23.0235 11.0707C23.0235 12.8903 21.5822 14.4032 19.6911 14.4032ZM30.2915 14.4032C28.472 14.4032 26.9591 12.8903 26.9591 11.0707C26.9591 9.25117 28.472 7.73828 30.2915 7.73828C32.1111 7.73828 33.624 9.25117 33.624 11.0707C33.624 12.8903 32.1826 14.4032 30.2915 14.4032Z"/>
</g>
<defs>
<clipPath id="clip0_2652_3596">
<rect width="92" height="92"/>
</clipPath>
</defs>
</svg>
