<svg viewBox="0 0 92 92" xmlns="http://www.w3.org/2000/svg">
<g clip-path="url(#clip0_2744_2956)">
<path d="M89 46C89 22.2518 69.7482 3 46 3C22.2518 3 3 22.2518 3 46C3 69.7482 22.2518 89 46 89V92C20.5949 92 0 71.4051 0 46C0 20.5949 20.5949 0 46 0C71.4051 0 92 20.5949 92 46C92 71.4051 71.4051 92 46 92V89C69.7482 89 89 69.7482 89 46Z"/>
<path d="M32 33H38.8267L46.0369 50.5909H46.3438L53.554 33H60.3807V59.1818H55.0114V42.1406H54.794L48.0185 59.054H44.3622L37.5866 42.0767H37.3693V59.1818H32V33Z"/>
</g>
<defs>
<clipPath id="clip0_2744_2956">
<rect width="92" height="92"/>
</clipPath>
</defs>
</svg>
